<?xml version="1.0" encoding="utf-8"?>
<!-- Generator: Adobe Illustrator 22.0.0, SVG Export Plug-In . SVG Version: 6.00 Build 0)  -->
<svg version="1.1" xmlns="http://www.w3.org/2000/svg" xmlns:xlink="http://www.w3.org/1999/xlink" x="0px" y="0px"
	 viewBox="0 0 25.8 75.4" style="enable-background:new 0 0 25.8 75.4;" xml:space="preserve">
<style type="text/css">
	.st0{fill:#917758;}
	.st1{fill:#F4EEE6;}
	.st2{fill:none;stroke:#917758;stroke-width:13;stroke-miterlimit:10;}
	.st3{fill:none;stroke:#917758;stroke-width:11;stroke-miterlimit:10;}
	.st4{fill:none;stroke:#917758;stroke-miterlimit:10;}
	.st5{fill:none;stroke:#917758;stroke-width:2;stroke-linecap:round;stroke-linejoin:round;stroke-miterlimit:10;}
	.st6{fill:#231F20;}
	.st7{opacity:0.6;fill:#F4EEE6;}
	.st8{fill:none;stroke:#917758;stroke-width:2;stroke-miterlimit:10;}
	.st9{opacity:5.000000e-02;}
	.st10{fill:none;stroke:#917758;stroke-width:7;stroke-miterlimit:10;}
	.st11{display:none;}
	.st12{display:inline;opacity:0.8;}
	.st13{display:inline;}
	.st14{opacity:0.7;fill:#231F20;}
	.st15{fill:#FFFFFF;}
	.st16{opacity:0.3;fill:#FFFFFF;}
	.st17{opacity:0.3;fill:#917758;}
	.st18{opacity:0.3;fill:#F4EEE6;}
	.st19{fill:none;stroke:#F4EEE6;stroke-width:4;stroke-linecap:round;stroke-linejoin:round;stroke-miterlimit:10;}
	.st20{opacity:0.3;fill:#231F20;}
	.st21{opacity:0.97;}
	.st22{fill:#404040;}
</style>
<g id="Layer_1">
	<g>
		<path class="st6" d="M25.1,4c-0.3-0.3-0.6-0.5-1-0.6c-0.7-2-2.6-3.4-4.7-3.4c-2,0-3.8,1.2-4.6,3l-2.4,0c-0.8-1.8-2.6-3-4.6-3
			c-2,0-3.8,1.2-4.6,3C2.2,3.1,1.3,3.4,0.7,4C0.2,4.4,0,5,0,5.7v6.9c0,0.9,0.3,1.7,0.9,2.3c0.7,0.7,1.8,1,3,1.2
			c-2.2,1.4-3.2,3.7-3.2,6.9v44.6c0,4.3,4,7.9,7.2,7.9h9.9c3.2,0,7.2-3.7,7.2-7.9V22.9c0-3.2-1-5.5-3.1-6.9c1.3-0.2,2.3-0.5,3-1.2
			c0.6-0.6,0.9-1.3,0.9-2.3V5.7C25.8,5,25.6,4.4,25.1,4z M1.9,7.8h22.1v0.9H1.9V7.8z M19.4,1.9c1,0,1.8,0.4,2.4,1.1
			c-0.3,0-0.6,0-0.9,0l-0.4,0L17,3C17.6,2.3,18.4,1.9,19.4,1.9z M7.8,1.9c1,0,1.8,0.4,2.4,1.1L5.3,3C5.9,2.3,6.8,1.9,7.8,1.9z
			 M2,5.3c0.4-0.4,1.9-0.4,2.9-0.4l0.4,0l15.6,0c1,0,2.5,0,2.9,0.4c0,0,0.1,0.1,0.1,0.4v0.2H1.9V5.7C1.9,5.4,1.9,5.3,2,5.3z
			 M23.2,66.2H2.6v-3.7h20.5V66.2z M17.8,73.6H8c-2,0-5-2.4-5.3-5.5h20.5C22.8,71.1,19.8,73.6,17.8,73.6z M23.2,22.9v37.7H2.6V22.9
			c0-4.3,1.7-7,10.3-7S23.2,18.6,23.2,22.9z M23.6,13.5c-1,1-4.4,0.9-7.3,0.7c-1.1-0.1-2.3-0.1-3.4-0.1s-2.3,0.1-3.4,0.1
			c-2.9,0.1-6.3,0.3-7.3-0.7c-0.2-0.2-0.3-0.4-0.3-0.9v-2.1h22.1v2.1C23.9,13.1,23.8,13.3,23.6,13.5z"/>
		<path class="st6" d="M12.9,33.9c-2.6,0-4.7,2.1-4.7,4.7c0,2.6,2.1,4.7,4.7,4.7s4.7-2.1,4.7-4.7C17.6,36.1,15.5,33.9,12.9,33.9z
			 M12.9,41.5c-1.6,0-2.9-1.3-2.9-2.9c0-1.6,1.3-2.9,2.9-2.9s2.9,1.3,2.9,2.9C15.8,40.3,14.5,41.5,12.9,41.5z"/>
		<path class="st6" d="M12.9,22.8c-2.6,0-4.7,2.1-4.7,4.7c0,2.6,2.1,4.7,4.7,4.7s4.7-2.1,4.7-4.7C17.6,24.9,15.5,22.8,12.9,22.8z
			 M12.9,30.4c-1.6,0-2.9-1.3-2.9-2.9s1.3-2.9,2.9-2.9s2.9,1.3,2.9,2.9S14.5,30.4,12.9,30.4z"/>
	</g>
</g>
<g id="Layer_2">
</g>
</svg>
