<?xml version="1.0" encoding="utf-8"?>
<!-- Generator: Adobe Illustrator 22.0.0, SVG Export Plug-In . SVG Version: 6.00 Build 0)  -->
<svg version="1.1" xmlns="http://www.w3.org/2000/svg" xmlns:xlink="http://www.w3.org/1999/xlink" x="0px" y="0px"
	 viewBox="0 0 64.4 75.8" style="enable-background:new 0 0 64.4 75.8;" xml:space="preserve">
<style type="text/css">
	.st0{fill:#917758;}
	.st1{fill:#F4EEE6;}
	.st2{fill:none;stroke:#917758;stroke-width:13;stroke-miterlimit:10;}
	.st3{fill:none;stroke:#917758;stroke-width:11;stroke-miterlimit:10;}
	.st4{fill:none;stroke:#917758;stroke-miterlimit:10;}
	.st5{fill:none;stroke:#917758;stroke-width:2;stroke-linecap:round;stroke-linejoin:round;stroke-miterlimit:10;}
	.st6{fill:#231F20;}
	.st7{opacity:0.6;fill:#F4EEE6;}
	.st8{fill:none;stroke:#917758;stroke-width:2;stroke-miterlimit:10;}
	.st9{opacity:5.000000e-02;}
	.st10{fill:none;stroke:#917758;stroke-width:7;stroke-miterlimit:10;}
	.st11{display:none;}
	.st12{display:inline;opacity:0.8;}
	.st13{display:inline;}
	.st14{opacity:0.7;fill:#231F20;}
	.st15{fill:#FFFFFF;}
	.st16{opacity:0.3;fill:#FFFFFF;}
	.st17{opacity:0.3;fill:#917758;}
	.st18{opacity:0.3;fill:#F4EEE6;}
	.st19{fill:none;stroke:#F4EEE6;stroke-width:4;stroke-linecap:round;stroke-linejoin:round;stroke-miterlimit:10;}
	.st20{opacity:0.3;fill:#231F20;}
	.st21{opacity:0.97;}
	.st22{fill:#404040;}
</style>
<g id="Layer_1">
	<g>
		<path class="st6" d="M12.7,52.5c-1,0-1.8,0.8-1.8,1.8s0.8,1.8,1.8,1.8c1,0,1.8-0.8,1.8-1.8S13.7,52.5,12.7,52.5z M12.7,54.8
			c-0.3,0-0.5-0.2-0.5-0.5s0.2-0.5,0.5-0.5c0.3,0,0.5,0.2,0.5,0.5S13,54.8,12.7,54.8z"/>
		<path class="st6" d="M26.7,9.7c1.7,0,3.1-1.4,3.1-3.1s-1.4-3.1-3.1-3.1s-3.1,1.4-3.1,3.1S25,9.7,26.7,9.7z M26.7,5.1
			c0.8,0,1.5,0.7,1.5,1.5s-0.7,1.5-1.5,1.5s-1.5-0.7-1.5-1.5S25.9,5.1,26.7,5.1z"/>
		<path class="st6" d="M64.3,21.9c-0.8-1.4-1.8-2.5-2.9-3.3c0,0-0.1,0-0.1-0.1c-1.7-1.1-3.5-1.4-5.3-0.6
			C53,19.1,29.7,34.5,28.7,35.2c-0.2,0.1-0.4,0.4-0.4,0.6c0,0.3,0,0.5,0.2,0.7l1.8,2.3l-12.4,9.5c0.6-3.9,1.5-8.3,2.8-11.8
			c3.2-8.8,5.8-15.2,7.8-19.4c0.6-1.1,1.3-2.3,2.1-3.6c2-3.2,4-6.5,3.2-9.3c-0.4-1.4-1.5-2.6-3.2-3.4c0,0-0.1,0-0.1,0
			c-4.8-1.6-8.3-0.7-9.7,2.4c-1.4,3.1-8.3,22.2-10.4,31c-1.5,6.5-2.3,16-1.6,20.7c-3.7,3-6.4,6.8-7.8,10.9c-1,3-1.3,7,0,8.9
			c0.5,0.7,1.2,1.1,2,1.1c0,0,0.1,0,0.1,0c2.1,0,2.2-2.2,2.3-4c0-1.4,0.1-3.1,0.7-4.7c1.9-4.7,3.1-6.3,5.7-8.2
			c0.4,0.1,0.9,0.2,1.3,0.2c0.3,0,0.5,0,0.8-0.1c0.8-0.2,2.3-0.8,2.8-3.1c0-0.2,0.1-0.4,0.1-0.7L64,23.1
			C64.4,22.8,64.5,22.3,64.3,21.9z M56.7,19.6c0.8-0.3,1.5-0.3,2.2-0.2L31.2,37l-0.6-0.8C39.1,30.5,54.6,20.5,56.7,19.6z M4.3,66.5
			c-0.8,1.9-0.8,3.8-0.9,5.3c0,0.8-0.1,2-0.3,2.2c0,0,0,0-0.2,0c-0.2,0-0.3,0-0.5-0.3c-0.8-1.2-0.7-4.4,0.2-7.3
			c1.2-3.6,3.4-6.8,6.5-9.5c0.1,0.2,0.2,0.4,0.3,0.5c0.1,0.2,0.3,0.4,0.5,0.5C7.6,59.8,6.2,61.7,4.3,66.5z M13.4,57.3
			c-0.8,0.2-1.9-0.3-2.5-1c-0.1-0.2-0.3-0.6-0.4-1.1c0,0,0-0.1,0-0.1c-0.6-3.4-0.3-12.5,1.6-20.4C14.2,26,21.1,7.1,22.4,4
			c0.7-1.6,2.2-2.1,3.7-2.1c1.3,0,2.6,0.3,3.6,0.7C31,3.1,31.7,3.9,32,4.8c0.6,2.1-1.2,5-3,7.8c-0.8,1.3-1.6,2.6-2.2,3.8
			c-2.1,4.3-4.7,10.7-7.9,19.6c-1.6,4.4-2.5,10.1-3.2,14.4c0,0,0,0,0,0c0,0.3-0.1,0.5-0.1,0.8c-0.3,1.8-0.5,3.4-0.8,4.4
			C14.6,56.5,14.1,57.1,13.4,57.3z M17.2,52.7c0.1-0.4,0.1-0.8,0.2-1.3c0-0.1,0-0.3,0.1-0.4l14.7-11.2c0.2-0.2,0.3-0.4,0.4-0.6
			c0-0.2,0-0.5-0.2-0.7l0,0l28.5-18c0.5,0.5,1,1,1.4,1.6L17.2,52.7z"/>
	</g>
</g>
<g id="Layer_2">
</g>
</svg>
