<?xml version="1.0" encoding="utf-8"?>
<!-- Generator: Adobe Illustrator 22.0.0, SVG Export Plug-In . SVG Version: 6.00 Build 0)  -->
<svg version="1.1" xmlns="http://www.w3.org/2000/svg" xmlns:xlink="http://www.w3.org/1999/xlink" x="0px" y="0px"
	 viewBox="0 0 56.2 60.9" style="enable-background:new 0 0 56.2 60.9;" xml:space="preserve">
<style type="text/css">
	.st0{fill:#917758;}
	.st1{fill:#F4EEE6;}
	.st2{fill:none;stroke:#917758;stroke-width:13;stroke-miterlimit:10;}
	.st3{fill:none;stroke:#917758;stroke-width:11;stroke-miterlimit:10;}
	.st4{fill:none;stroke:#917758;stroke-miterlimit:10;}
	.st5{fill:none;stroke:#917758;stroke-width:2;stroke-linecap:round;stroke-linejoin:round;stroke-miterlimit:10;}
	.st6{fill:#231F20;}
	.st7{opacity:0.6;fill:#F4EEE6;}
	.st8{fill:none;stroke:#917758;stroke-width:2;stroke-miterlimit:10;}
	.st9{opacity:5.000000e-02;}
	.st10{fill:none;stroke:#917758;stroke-width:7;stroke-miterlimit:10;}
	.st11{display:none;}
	.st12{display:inline;opacity:0.8;}
	.st13{display:inline;}
	.st14{opacity:0.7;fill:#231F20;}
	.st15{fill:#FFFFFF;}
	.st16{opacity:0.3;fill:#FFFFFF;}
	.st17{opacity:0.3;fill:#917758;}
	.st18{opacity:0.3;fill:#F4EEE6;}
	.st19{fill:none;stroke:#F4EEE6;stroke-width:4;stroke-linecap:round;stroke-linejoin:round;stroke-miterlimit:10;}
	.st20{opacity:0.3;fill:#231F20;}
	.st21{opacity:0.97;}
	.st22{fill:#404040;}
</style>
<g id="Layer_1">
	<g>
		<path class="st6" d="M40.5,47.2c-2.3,0-4.2,1.9-4.2,4.2c0,2.3,1.9,4.2,4.2,4.2s4.2-1.9,4.2-4.2C44.7,49.1,42.8,47.2,40.5,47.2z
			 M40.5,53.7c-1.3,0-2.3-1-2.3-2.3c0-1.3,1-2.3,2.3-2.3c1.3,0,2.3,1,2.3,2.3C42.8,52.6,41.8,53.7,40.5,53.7z"/>
		<path class="st6" d="M8,47.2c-2.3,0-4.2,1.9-4.2,4.2c0,2.3,1.9,4.2,4.2,4.2c2.3,0,4.2-1.9,4.2-4.2C12.2,49.1,10.3,47.2,8,47.2z
			 M8,53.7c-1.3,0-2.3-1-2.3-2.3c0-1.3,1-2.3,2.3-2.3c1.3,0,2.3,1,2.3,2.3C10.3,52.6,9.3,53.7,8,53.7z"/>
		<path class="st6" d="M56,56.6c-0.5-1.2-1.8-2.5-4-2.3c-2.4,0.2-3.2-0.1-3.8-0.8c0.2-0.7,0.3-1.4,0.3-2.2c0-4.4-3.6-8-8-8
			c-0.4,0-0.9,0-1.3,0.1l-8.7-11.3c1.9-3.6,12.6-23.5,13.8-26c1.5-3.1,0-5.6,0-5.7C44.1,0.2,43.8,0,43.5,0c-0.3,0-0.6,0.1-0.8,0.4
			L24.5,24.5L5.8,0.4C5.6,0.1,5.3,0,5,0c-0.3,0-0.6,0.3-0.7,0.6C4.1,0.9,3,3.6,3.7,5.4c0.3,0.9,4.8,9,14.8,27L10,43.6
			c-0.7-0.2-1.3-0.3-2-0.3c-4.4,0-8,3.6-8,8s3.6,8,8,8c4.4,0,8-3.6,8-8c0-1.7-0.5-3.2-1.4-4.5l10.3-10.7l9,10.6
			c-0.9,1.3-1.4,2.9-1.4,4.5c0,4.4,3.6,8,8,8c1.6,0,3.1-0.5,4.4-1.3c1,0.8,3,2.4,4.6,2.7c0.6,0.1,1.2,0.2,1.8,0.2
			c1.5,0,3.1-0.3,4.1-1.1C56.2,59.2,56.5,57.9,56,56.6z M43.1,3c0.1,0.7,0,1.5-0.5,2.4c-1.1,2.3-10.7,20.3-13.4,25.2L25.7,26L43.1,3
			z M5.4,4.7c-0.2-0.4-0.1-1.1,0-1.8L23.3,26l-3.6,4.8C15.8,23.7,5.8,5.9,5.4,4.7z M19.5,34.2c0.3,0.6,0.6,1,0.6,1.1
			c0.1,0.2,0.4,0.8,2.2,0.9l-8.9,9.3c-0.5-0.4-1-0.8-1.5-1.1L19.5,34.2z M8,57.5c-3.4,0-6.1-2.8-6.1-6.1c0-3.4,2.8-6.1,6.1-6.1
			c3.4,0,6.1,2.8,6.1,6.1C14.1,54.7,11.4,57.5,8,57.5z M25.1,34.2c-1.4,0.2-3,0.2-3.5,0c-0.2-0.3-0.5-0.8-0.9-1.6l3.8-5L37.3,44
			c-0.8,0.3-1.5,0.8-2.1,1.4l-9.3-10.9C25.7,34.3,25.4,34.1,25.1,34.2z M34.3,51.4c0-3.4,2.8-6.1,6.1-6.1s6.1,2.8,6.1,6.1
			c0,3.4-2.8,6.1-6.1,6.1S34.3,54.7,34.3,51.4z M54.2,58.3c-0.9,0.7-2.8,0.9-4.5,0.6c-0.9-0.2-2.4-1.2-3.5-2.1
			c0.4-0.4,0.8-0.9,1.1-1.5c1,0.7,2.3,1.1,4.7,0.8c1.5-0.1,2,0.7,2.1,1.1C54.4,57.8,54.4,58.2,54.2,58.3z"/>
	</g>
</g>
<g id="Layer_2">
</g>
</svg>
