<?xml version="1.0" encoding="utf-8"?>
<!-- Generator: Adobe Illustrator 22.0.0, SVG Export Plug-In . SVG Version: 6.00 Build 0)  -->
<svg version="1.1" xmlns="http://www.w3.org/2000/svg" xmlns:xlink="http://www.w3.org/1999/xlink" x="0px" y="0px"
	 viewBox="0 0 26.9 71.1" style="enable-background:new 0 0 26.9 71.1;" xml:space="preserve">
<style type="text/css">
	.st0{fill:#917758;}
	.st1{fill:#F4EEE6;}
	.st2{fill:none;stroke:#917758;stroke-width:13;stroke-miterlimit:10;}
	.st3{fill:none;stroke:#917758;stroke-width:11;stroke-miterlimit:10;}
	.st4{fill:none;stroke:#917758;stroke-miterlimit:10;}
	.st5{fill:none;stroke:#917758;stroke-width:2;stroke-linecap:round;stroke-linejoin:round;stroke-miterlimit:10;}
	.st6{fill:#231F20;}
	.st7{opacity:0.6;fill:#F4EEE6;}
	.st8{fill:none;stroke:#917758;stroke-width:2;stroke-miterlimit:10;}
	.st9{opacity:5.000000e-02;}
	.st10{fill:none;stroke:#917758;stroke-width:7;stroke-miterlimit:10;}
	.st11{display:none;}
	.st12{display:inline;opacity:0.8;}
	.st13{display:inline;}
	.st14{opacity:0.7;fill:#231F20;}
	.st15{fill:#FFFFFF;}
	.st16{opacity:0.3;fill:#FFFFFF;}
	.st17{opacity:0.3;fill:#917758;}
	.st18{opacity:0.3;fill:#F4EEE6;}
	.st19{fill:none;stroke:#F4EEE6;stroke-width:4;stroke-linecap:round;stroke-linejoin:round;stroke-miterlimit:10;}
	.st20{opacity:0.3;fill:#231F20;}
	.st21{opacity:0.97;}
	.st22{fill:#404040;}
</style>
<g id="Layer_1">
	<path class="st6" d="M26,65.5H8.1v-2.3h17.1c0.5,0,0.9-0.4,0.9-0.9s-0.4-0.9-0.9-0.9H8.1v-1.8h17.1c0.5,0,0.9-0.4,0.9-0.9
		c0-0.5-0.4-0.9-0.9-0.9H8.1v-1.8h17.1c0.5,0,0.9-0.4,0.9-0.9c0-0.5-0.4-0.9-0.9-0.9H8.1v-1.8h17.1c0.5,0,0.9-0.4,0.9-0.9
		c0-0.5-0.4-0.9-0.9-0.9H8.1v-1.8h17.1c0.5,0,0.9-0.4,0.9-0.9s-0.4-0.9-0.9-0.9H8.1v-1.8h17.1c0.5,0,0.9-0.4,0.9-0.9
		c0-0.5-0.4-0.9-0.9-0.9H8.1v-1.8h17.1c0.5,0,0.9-0.4,0.9-0.9c0-0.5-0.4-0.9-0.9-0.9H8.1v-1.8h17.1c0.5,0,0.9-0.4,0.9-0.9
		c0-0.5-0.4-0.9-0.9-0.9H8.1v-1.8h17.1c0.5,0,0.9-0.4,0.9-0.9c0-0.5-0.4-0.9-0.9-0.9H8.1v-1.8h17.1c0.5,0,0.9-0.4,0.9-0.9
		s-0.4-0.9-0.9-0.9H8.1v-1.8h17.1c0.5,0,0.9-0.4,0.9-0.9c0-0.5-0.4-0.9-0.9-0.9H8.1v-1.8h17.1c0.5,0,0.9-0.4,0.9-0.9
		c0-0.5-0.4-0.9-0.9-0.9H8.1v-1.8h17.1c0.5,0,0.9-0.4,0.9-0.9c0-0.5-0.4-0.9-0.9-0.9H8.1V16h17.1c0.5,0,0.9-0.4,0.9-0.9
		s-0.4-0.9-0.9-0.9H8.1v-1.8h17.1c0.5,0,0.9-0.4,0.9-0.9c0-0.5-0.4-0.9-0.9-0.9H8.1V8.7h17.1c0.5,0,0.9-0.4,0.9-0.9
		c0-0.5-0.4-0.9-0.9-0.9H8.1V5.5L26,5.6c0,0,0,0,0,0c0.2,0,0.5-0.1,0.7-0.3c0.2-0.2,0.3-0.4,0.3-0.7C26.9,0,22,0,20.4,0H6.5
		C2.9,0,0,2.9,0,6.5v58.1c0,3.6,2.9,6.5,6.5,6.5h13.9c1.6,0,6.5,0,6.5-4.6C26.9,65.9,26.5,65.5,26,65.5z M20.4,69.2H6.5
		c-2.6,0-4.6-2.1-4.6-4.6V6.5c0-2.6,2.1-4.6,4.6-4.6h13.9c3.1,0,4.2,0.7,4.5,1.8L7.2,3.6c0,0,0,0,0,0c-0.2,0-0.5,0.1-0.7,0.3
		C6.4,4.1,6.3,4.3,6.3,4.5v61.9c0,0.5,0.4,0.9,0.9,0.9h17.7C24.6,68.5,23.5,69.2,20.4,69.2z"/>
</g>
<g id="Layer_2">
</g>
</svg>
