<?xml version="1.0" encoding="utf-8"?>
<!-- Generator: Adobe Illustrator 22.0.0, SVG Export Plug-In . SVG Version: 6.00 Build 0)  -->
<svg version="1.1" xmlns="http://www.w3.org/2000/svg" xmlns:xlink="http://www.w3.org/1999/xlink" x="0px" y="0px"
	 viewBox="0 0 39.1 76.8" style="enable-background:new 0 0 39.1 76.8;" xml:space="preserve">
<style type="text/css">
	.st0{fill:#917758;}
	.st1{fill:#F4EEE6;}
	.st2{fill:none;stroke:#917758;stroke-width:13;stroke-miterlimit:10;}
	.st3{fill:none;stroke:#917758;stroke-width:11;stroke-miterlimit:10;}
	.st4{fill:none;stroke:#917758;stroke-miterlimit:10;}
	.st5{fill:none;stroke:#917758;stroke-width:2;stroke-linecap:round;stroke-linejoin:round;stroke-miterlimit:10;}
	.st6{fill:#231F20;}
	.st7{opacity:0.6;fill:#F4EEE6;}
	.st8{fill:none;stroke:#917758;stroke-width:2;stroke-miterlimit:10;}
	.st9{opacity:5.000000e-02;}
	.st10{fill:none;stroke:#917758;stroke-width:7;stroke-miterlimit:10;}
	.st11{display:none;}
	.st12{display:inline;opacity:0.8;}
	.st13{display:inline;}
	.st14{opacity:0.7;fill:#231F20;}
	.st15{fill:#FFFFFF;}
	.st16{opacity:0.3;fill:#FFFFFF;}
	.st17{opacity:0.3;fill:#917758;}
	.st18{opacity:0.3;fill:#F4EEE6;}
	.st19{fill:none;stroke:#F4EEE6;stroke-width:4;stroke-linecap:round;stroke-linejoin:round;stroke-miterlimit:10;}
	.st20{opacity:0.3;fill:#231F20;}
	.st21{opacity:0.97;}
	.st22{fill:#404040;}
</style>
<g id="Layer_1">
	<path class="st6" d="M31.2,42.9h-0.8c4.2-8,8.6-26.5,8.6-31.4c0-3.3-3-6.5-7.4-8.7c-0.1-0.1-0.2-0.1-0.4-0.2
		c-2.6-1.2-5.6-2.1-8.8-2.5c-0.1,0-0.1,0-0.2,0c-1-0.1-1.9-0.2-2.9-0.2c-1.1,0-2.2,0.1-3.3,0.2c-0.1,0-0.1,0-0.1,0
		c-3.2,0.4-6.3,1.4-8.9,2.7C7.1,2.9,7,3,6.9,3C2.8,5.2,0,8.3,0,11.5c0,4.9,4.5,23.4,8.6,31.4H7.9c-2,0-3.6,1.6-3.6,3.6
		c0,1.7,1.2,3.1,2.7,3.5v13.2c0,2.6,1.6,4.8,3.8,5.8c-1.6,1.9-3.1,4.8-2.4,6.5c0.3,0.9,1.1,1.4,2.2,1.4h18c1.1,0,1.9-0.5,2.2-1.4
		c0.6-1.7-0.8-4.6-2.4-6.5c2.2-1,3.8-3.2,3.8-5.8V49.9c1.5-0.4,2.7-1.8,2.7-3.5C34.8,44.5,33.2,42.9,31.2,42.9z M37.3,11.5
		c0,4.9-4.7,24.2-8.9,31.4h-3c0.7-2.6,1.4-5.1,2-7.4c3.6-12.9,6-21.8,5-30.2C35.4,7.1,37.3,9.4,37.3,11.5z M22.2,42.9
		c1.2-6.9,4-27.5,1.4-40.7c2.5,0.4,4.8,1.1,6.8,2c1.5,8.4-1,17.4-4.7,30.8c-0.7,2.5-1.4,5.1-2.2,7.9H22.2z M21.7,1.9
		c2.8,13.1-0.2,34.5-1.4,40.9h-1.8c-1.7-8.8-4-28.9-1.4-40.9c0.8-0.1,1.6-0.1,2.5-0.1C20.3,1.9,21,1.9,21.7,1.9z M15.3,42.9
		c-0.8-3-1.6-5.8-2.3-8.4C9.3,21.4,6.9,12.7,8.4,4.3c1.9-1,4.2-1.7,6.8-2.1C12.8,14.5,15,34,16.6,42.9H15.3z M1.9,11.5
		c0-2,1.7-4.2,4.5-6c-1,8.3,1.4,16.9,4.9,29.5c0.7,2.5,1.4,5.1,2.2,7.9h-2.6C6.6,35.8,1.9,16.5,1.9,11.5z M29,74.8
		c0,0.1-0.1,0.2-0.5,0.2h-18c-0.4,0-0.4-0.1-0.5-0.2c-0.3-0.9,1-3.7,2.7-5.3c0.2,0,0.4,0,0.6,0h12.4c0.2,0,0.4,0,0.6,0
		C28,71.1,29.4,73.9,29,74.8z M25.7,67.7H13.4c-2.5,0-4.5-2-4.5-4.5V50.1h21.4v13.1C30.3,65.6,28.2,67.7,25.7,67.7z M31.2,48.2H7.9
		c-1,0-1.7-0.8-1.7-1.7s0.8-1.7,1.7-1.7h23.4c1,0,1.7,0.8,1.7,1.7S32.2,48.2,31.2,48.2z"/>
</g>
<g id="Layer_2">
</g>
</svg>
