<?xml version="1.0" encoding="utf-8"?>
<!-- Generator: Adobe Illustrator 22.0.0, SVG Export Plug-In . SVG Version: 6.00 Build 0)  -->
<svg version="1.1" xmlns="http://www.w3.org/2000/svg" xmlns:xlink="http://www.w3.org/1999/xlink" x="0px" y="0px"
	 viewBox="0 0 60 60.8" style="enable-background:new 0 0 60 60.8;" xml:space="preserve">
<style type="text/css">
	.st0{fill:#917758;}
	.st1{fill:#F4EEE6;}
	.st2{fill:none;stroke:#917758;stroke-width:13;stroke-miterlimit:10;}
	.st3{fill:none;stroke:#917758;stroke-width:11;stroke-miterlimit:10;}
	.st4{fill:none;stroke:#917758;stroke-miterlimit:10;}
	.st5{fill:none;stroke:#917758;stroke-width:2;stroke-linecap:round;stroke-linejoin:round;stroke-miterlimit:10;}
	.st6{fill:#231F20;}
	.st7{opacity:0.6;fill:#F4EEE6;}
	.st8{fill:none;stroke:#917758;stroke-width:2;stroke-miterlimit:10;}
	.st9{opacity:5.000000e-02;}
	.st10{fill:none;stroke:#917758;stroke-width:7;stroke-miterlimit:10;}
	.st11{display:none;}
	.st12{display:inline;opacity:0.8;}
	.st13{display:inline;}
	.st14{opacity:0.7;fill:#231F20;}
	.st15{fill:#FFFFFF;}
	.st16{opacity:0.3;fill:#FFFFFF;}
	.st17{opacity:0.3;fill:#917758;}
	.st18{opacity:0.3;fill:#F4EEE6;}
	.st19{fill:none;stroke:#F4EEE6;stroke-width:4;stroke-linecap:round;stroke-linejoin:round;stroke-miterlimit:10;}
	.st20{opacity:0.3;fill:#231F20;}
	.st21{opacity:0.97;}
	.st22{fill:#404040;}
</style>
<g id="Layer_1">
	<path class="st6" d="M59.5,1.9c-0.3-0.2-0.7-0.1-0.9,0l-9.1,5.9C46.2,6.7,26.2,0,17.2,0C10.6,0,5.3,3.3,2.4,8.5
		C2.3,8.6,2.2,8.7,2.2,8.9c-0.6,1.2-1.1,2.5-1.5,3.8c-0.1,0.1-0.1,0.2-0.1,0.4c-0.3,1.2-0.5,2.5-0.6,3.8C0,16.9,0,17,0,17
		c0,0,0,0.1,0,0.1c0,0.3,0,0.6,0,0.9c0,2.7,0.6,5,1.7,7.1c0,0.1,0.1,0.2,0.2,0.3c1.8,3.2,4.7,5.6,8,7v20.2c0,2.3,1.3,3.5,2.8,4.1
		c0,0.8,0.1,1.7,0.5,2.4c0.6,1,1.8,1.5,3.7,1.5c3.6,0,4.3-0.8,4.4-3.9c1.3-0.6,2.3-1.7,2.5-3.8c2.1-0.4,3.6-2.2,3.6-4.4
		c0-2.2-1.5-4-3.6-4.4v-0.9c2-0.4,3.6-2.2,3.6-4.4c0-2.2-1.5-4-3.6-4.4v-1.4c10.3-1.9,23.1-5.6,25.6-6.4l9.1,5.8
		c0.2,0.1,0.3,0.1,0.5,0.1c0.2,0,0.3,0,0.4-0.1c0.3-0.2,0.5-0.5,0.5-0.8v-29C60,2.4,59.8,2.1,59.5,1.9z M4.3,25.8h6.1
		c0.5,0,0.9-0.4,0.9-0.9c0-0.5-0.4-0.9-0.9-0.9H3.2c-0.3-0.7-0.6-1.4-0.8-2.1h8c0.5,0,0.9-0.4,0.9-0.9c0-0.5-0.4-0.9-0.9-0.9H2
		c-0.1-0.7-0.2-1.3-0.2-2c0,0,0-0.1,0-0.1h8.6c0.5,0,0.9-0.4,0.9-0.9c0-0.5-0.4-0.9-0.9-0.9H2C2,15.4,2.1,14.7,2.3,14h8.1
		c0.5,0,0.9-0.4,0.9-0.9c0-0.5-0.4-0.9-0.9-0.9H2.8c0.2-0.7,0.5-1.4,0.8-2.1h6.8c0.5,0,0.9-0.4,0.9-0.9c0-0.5-0.4-0.9-0.9-0.9H4.7
		c2.5-3.8,6.6-6.1,11.7-6.3v30.3c-1.8-0.1-3.4-0.4-4.9-0.9c-0.2-0.1-0.4-0.2-0.6-0.2c0,0,0,0,0,0C8,29.9,5.8,28.1,4.3,25.8z
		 M16.9,58.9c-1.7,0-2-0.5-2.1-0.6c-0.1-0.2-0.2-0.6-0.2-0.9c0.9,0.1,1.8,0.1,2.3,0.1c0.8,0,1.7,0,2.6-0.1
		C19.4,58.9,19,58.9,16.9,58.9z M25.6,48.7c0,1.1-0.7,2.1-1.7,2.5v-5C24.9,46.6,25.6,47.5,25.6,48.7z M25.6,38.9
		c0,1.1-0.7,2.1-1.7,2.5v-5C24.9,36.8,25.6,37.8,25.6,38.9z M22,52.3c0,3.2-1.8,3.4-5.1,3.4c-4.5,0-5.1-1.4-5.1-2.8V33.2
		c1.8,0.5,3.6,0.8,5.4,0.8c0,0,0.1,0,0.1,0c1.4-0.1,3.1-0.4,4.8-0.6V52.3z M48.7,25c-3.6,1-20.5,5.9-30.5,7.1V1.9
		c8.9,0.5,26.9,6.4,30.5,7.7V25z M58.2,30.1l-7.6-4.8V9.4l7.6-4.9V30.1z"/>
</g>
<g id="Layer_2">
</g>
</svg>
