<?xml version="1.0" encoding="utf-8"?>
<!-- Generator: Adobe Illustrator 22.0.0, SVG Export Plug-In . SVG Version: 6.00 Build 0)  -->
<svg version="1.1" xmlns="http://www.w3.org/2000/svg" xmlns:xlink="http://www.w3.org/1999/xlink" x="0px" y="0px"
	 viewBox="0 0 32.4 81.9" style="enable-background:new 0 0 32.4 81.9;" xml:space="preserve">
<style type="text/css">
	.st0{fill:#917758;}
	.st1{fill:#F4EEE6;}
	.st2{fill:none;stroke:#917758;stroke-width:13;stroke-miterlimit:10;}
	.st3{fill:none;stroke:#917758;stroke-width:11;stroke-miterlimit:10;}
	.st4{fill:none;stroke:#917758;stroke-miterlimit:10;}
	.st5{fill:none;stroke:#917758;stroke-width:2;stroke-linecap:round;stroke-linejoin:round;stroke-miterlimit:10;}
	.st6{fill:#231F20;}
	.st7{opacity:0.6;fill:#F4EEE6;}
	.st8{fill:none;stroke:#917758;stroke-width:2;stroke-miterlimit:10;}
	.st9{opacity:5.000000e-02;}
	.st10{fill:none;stroke:#917758;stroke-width:7;stroke-miterlimit:10;}
	.st11{display:none;}
	.st12{display:inline;opacity:0.8;}
	.st13{display:inline;}
	.st14{opacity:0.7;fill:#231F20;}
	.st15{fill:#FFFFFF;}
	.st16{opacity:0.3;fill:#FFFFFF;}
	.st17{opacity:0.3;fill:#917758;}
	.st18{opacity:0.3;fill:#F4EEE6;}
	.st19{fill:none;stroke:#F4EEE6;stroke-width:4;stroke-linecap:round;stroke-linejoin:round;stroke-miterlimit:10;}
	.st20{opacity:0.3;fill:#231F20;}
	.st21{opacity:0.97;}
	.st22{fill:#404040;}
</style>
<g id="Layer_1">
	<g>
		<path class="st6" d="M16.1,69.2c5.4,0,9.6-7.1,9.6-16.3c0-9.1-4.2-16.3-9.6-16.3c-5.4,0-9.6,7.1-9.6,16.3
			C6.4,62,10.7,69.2,16.1,69.2z M16.1,38.5c4.2,0,7.8,6.6,7.8,14.4c0,7.8-3.6,14.4-7.8,14.4c-4.2,0-7.8-6.6-7.8-14.4
			C8.3,45.1,11.8,38.5,16.1,38.5z"/>
		<path class="st6" d="M31.5,0H7C6.5,0,6.1,0.4,6.1,0.9v3.5c0,0.5,0.4,0.9,0.9,0.9h6.2v1.7c-1.5,0.1-2.6,1.8-2.6,4.1v2.4
			c-1.9,0.3-3.4,2-3.4,4v6.5C3.1,24.8,0,28.3,0,32.6v40.7c0,4.8,3.9,8.6,8.6,8.6h14.9c4.8,0,8.6-3.9,8.6-8.6V32.6c0-4.2-3-7.7-7-8.5
			v-6.6c0-2-1.5-3.7-3.4-4v-2.4c0-2.1-0.9-3.7-2.2-4V5.4h5.9l5.7,2.5c0.1,0.1,0.2,0.1,0.4,0.1c0.2,0,0.4-0.1,0.5-0.2
			c0.3-0.2,0.4-0.5,0.4-0.8V0.9C32.4,0.4,32,0,31.5,0z M30.3,32.6v40.7c0,3.7-3,6.8-6.8,6.8H8.6c-3.7,0-6.8-3-6.8-6.8V32.6
			c0-3.7,3-6.8,6.8-6.8h14.9C27.2,25.8,30.3,28.9,30.3,32.6z M21.1,15.3c1.2,0,2.2,1,2.2,2.2V24H9v-6.4c0-1.2,1-2.2,2.2-2.2H21.1z
			 M19.9,11.2v2.3h-7.5v-2.3c0-1.4,0.6-2.2,0.9-2.2H19C19.3,8.9,19.9,9.8,19.9,11.2z M15,7.1V5.4h2.7v1.7H15z M30.5,5.6l-4.6-2
			c-0.1,0-0.2-0.1-0.4-0.1H7.9V1.9h22.6V5.6z"/>
	</g>
</g>
<g id="Layer_2">
</g>
</svg>
