<?xml version="1.0" encoding="utf-8"?>
<!-- Generator: Adobe Illustrator 22.0.0, SVG Export Plug-In . SVG Version: 6.00 Build 0)  -->
<svg version="1.1" xmlns="http://www.w3.org/2000/svg" xmlns:xlink="http://www.w3.org/1999/xlink" x="0px" y="0px"
	 viewBox="0 0 364.7 300.8" style="enable-background:new 0 0 364.7 300.8;" xml:space="preserve">
<style type="text/css">
	.st0{fill:#917758;}
	.st1{fill:#F4EEE6;}
	.st2{fill:none;stroke:#917758;stroke-width:13;stroke-miterlimit:10;}
	.st3{fill:none;stroke:#917758;stroke-width:11;stroke-miterlimit:10;}
	.st4{fill:none;stroke:#917758;stroke-miterlimit:10;}
	.st5{fill:none;stroke:#917758;stroke-width:2;stroke-linecap:round;stroke-linejoin:round;stroke-miterlimit:10;}
	.st6{fill:#231F20;}
	.st7{opacity:0.6;fill:#F4EEE6;}
	.st8{fill:none;stroke:#917758;stroke-width:2;stroke-miterlimit:10;}
	.st9{opacity:5.000000e-02;}
	.st10{fill:none;stroke:#917758;stroke-width:7;stroke-miterlimit:10;}
	.st11{display:none;}
	.st12{display:inline;opacity:0.8;}
	.st13{display:inline;}
	.st14{opacity:0.7;fill:#231F20;}
	.st15{fill:#FFFFFF;}
	.st16{opacity:0.3;fill:#FFFFFF;}
	.st17{opacity:0.3;fill:#917758;}
	.st18{opacity:0.3;fill:#F4EEE6;}
	.st19{fill:none;stroke:#F4EEE6;stroke-width:4;stroke-linecap:round;stroke-linejoin:round;stroke-miterlimit:10;}
	.st20{opacity:0.3;fill:#231F20;}
	.st21{opacity:0.97;}
	.st22{fill:#404040;}
</style>
<g id="Layer_1">
	<g>
		<g>
			<g>
				<rect x="96.5" y="188.6" transform="matrix(0.5 -0.866 0.866 0.5 -112.614 183.4307)" class="st6" width="12" height="1.2"/>
			</g>
			<rect x="96.8" y="196.5" transform="matrix(0.5 -0.866 0.866 0.5 -121.6449 183.4396)" class="st6" width="2.4" height="1.2"/>
			<rect x="105.9" y="180.8" transform="matrix(0.5 -0.866 0.866 0.5 -103.6031 183.4398)" class="st6" width="2.4" height="1.2"/>
			<g>
				<rect x="118.5" y="175.9" class="st6" width="12" height="1.2"/>
			</g>
			<rect x="114.3" y="176" class="st6" width="2.4" height="1.2"/>
			<rect x="132.3" y="176" class="st6" width="2.4" height="1.2"/>
			<g>
				<rect x="145.9" y="183.2" transform="matrix(0.866 -0.5 0.5 0.866 -74.9874 98.609)" class="st6" width="1.2" height="12"/>
			</g>
			<rect x="141.4" y="180.2" transform="matrix(0.866 -0.5 0.5 0.866 -71.6852 95.3003)" class="st6" width="1.2" height="2.4"/>
			<rect x="150.4" y="195.8" transform="matrix(0.866 -0.5 0.5 0.866 -78.2888 101.9036)" class="st6" width="1.2" height="2.4"/>
			<g>
				<rect x="140.5" y="214" transform="matrix(0.5 -0.866 0.866 0.5 -112.6035 234.1966)" class="st6" width="12" height="1.2"/>
			</g>
			<rect x="149.8" y="206.2" transform="matrix(0.5 -0.866 0.866 0.5 -103.5726 234.1879)" class="st6" width="2.4" height="1.2"/>
			<rect x="140.8" y="221.8" transform="matrix(0.5 -0.866 0.866 0.5 -121.6145 234.1873)" class="st6" width="2.4" height="1.2"/>
			<rect x="132.4" y="226.7" class="st6" width="2.4" height="1.2"/>
			<rect x="114.3" y="226.7" class="st6" width="2.4" height="1.2"/>
			<g>
				<rect x="101.9" y="208.6" transform="matrix(0.866 -0.5 0.5 0.866 -93.5728 80.0313)" class="st6" width="1.2" height="12"/>
			</g>
			<rect x="106.5" y="221.2" transform="matrix(0.866 -0.5 0.5 0.866 -96.875 83.34)" class="st6" width="1.2" height="2.4"/>
			<rect x="97.5" y="205.6" transform="matrix(0.866 -0.5 0.5 0.866 -90.2714 76.7365)" class="st6" width="1.2" height="2.4"/>
			<g>
				<path class="st6" d="M113,177.1v-1.2h-3.5l-1.7,3l1.1,0.6c0,0,0.4-0.6,0.7-1.2c0.2-0.3,0.4-0.6,0.5-0.8c0.1-0.1,0.1-0.2,0.2-0.3
					c0,0,0-0.1,0-0.1c0,0,0,0,0,0l0,0l0,0l0,0l0,0v0c0,0,0,0,0,0c0,0,0,0,0,0H113z"/>
			</g>
			<g>
				<path class="st6" d="M140.2,179.5l1-0.6l-1.7-3l-3.5,0v1.2c0,0,0.7,0,1.4,0c0.4,0,0.7,0,1,0c0.1,0,0.2,0,0.3,0c0,0,0.1,0,0.1,0
					c0,0,0,0,0,0h0h0h0h0l0,0l0,0c0,0,0,0,0,0L140.2,179.5z"/>
			</g>
			<g>
				<path class="st6" d="M151.8,204.3l1,0.6l1.7-3l-1.8-3l-1.1,0.6c0,0,0.4,0.6,0.7,1.2c0.2,0.3,0.4,0.6,0.5,0.8
					c0.1,0.1,0.1,0.2,0.2,0.3c0,0,0,0.1,0,0.1c0,0,0,0,0,0l0,0l0,0l0,0l0,0l0,0l0,0c0,0,0,0,0,0L151.8,204.3z"/>
			</g>
			<g>
				<path class="st6" d="M136.1,226.7v1.2h3.5l1.7-3l-1.1-0.6c0,0-0.4,0.6-0.7,1.2c-0.2,0.3-0.4,0.6-0.5,0.8
					c-0.1,0.1-0.1,0.2-0.2,0.3c0,0,0,0.1,0,0.1c0,0,0,0,0,0l0,0l0,0l0,0l0,0v0c0,0,0,0,0,0c0,0,0,0,0,0H136.1z"/>
			</g>
			<g>
				<path class="st6" d="M108.8,224.3l-1,0.6l1.7,3l3.5,0v-1.2c0,0-0.7,0-1.4,0c-0.4,0-0.7,0-1,0c-0.1,0-0.2,0-0.3,0
					c0,0-0.1,0-0.1,0c0,0,0,0,0,0h0h0h0l0,0l0,0l0,0c0,0,0,0,0,0L108.8,224.3z"/>
			</g>
			<g>
				<path class="st6" d="M97.3,199.5l-1-0.6l-1.7,3l1.8,3l1.1-0.6c0,0-0.4-0.6-0.7-1.2c-0.2-0.3-0.4-0.6-0.5-0.8
					c-0.1-0.1-0.1-0.2-0.2-0.3c0,0,0-0.1,0-0.1c0,0,0,0,0,0l0,0l0,0l0,0l0,0l0,0l0,0c0,0,0,0,0,0L97.3,199.5z"/>
			</g>
			<g>
				<path class="st6" d="M137.6,187.2c0-0.1-0.1-0.1-0.1-0.1c-0.4,0.5-0.9,0.8-1.5,0.9c0.1-0.4,0.2-0.7,0.3-1c0-0.1-0.1-0.1-0.1-0.1
					c-0.4,0.3-0.9,0.5-1.5,0.5c-0.5,0-1-0.2-1.5-0.5c-0.9-0.5-1.7-1-2.6-1.6c-0.8-0.5-1.7-1-2.6-1.3c-0.5-0.2-1-0.3-1.4-0.4
					c-1.9-0.5-4-0.3-5.8,0.7c-1.1,0.6-2,1.5-2.8,2.4c-0.8,0.4-1.5,0.9-2,1.7c-0.5,0.9-0.8,1.9-0.8,3c-0.1,1.1,0,2.2,0,3.3
					c0,0.9,0.1,1.8-0.1,2.7c0,0.1,0.1,0.1,0.1,0.1c1.1-1.3,2-2.8,2.6-4.4c0,0,0,0,0.1,0c0.6-1.3,1.7-2.2,3.2-2.4
					c0.7-0.1,1.4,0,2.1,0.2c0.3,0.1,0.7,0.3,1.1,0.5c0.9,0.4,1.9,0.7,2.9,1c1.2,0.3,2.5,0.5,3.8,0.5c0.6,1.7,1.5,3.3,2.6,4.6
					c0,0.1,0.1,0,0.1-0.1c-0.2-0.9-0.2-1.8-0.1-2.7c0-0.8,0.1-1.6,0-2.4c1-0.4,1.9-1.1,2.6-1.8C136.8,189.6,137.4,188.4,137.6,187.2
					z"/>
				<path class="st6" d="M133.3,200.1c0.4,4-1.2,6.5-1.2,6.5l0-2.4c0,0-1,3.2-2.9,3.2c-2.6,0-5.1-1-5.1-1s-2.4,1-5,1
					c-1.9,0-2.9-3.2-2.9-3.2l0,2.4c0,0-1.6-2.5-1.2-6.5c0,0-2.2,7,0.5,13.4l0.4-1.1c0,0-0.4,1.9,2.9,3.7l0-1.1c0,0-0.3,2,5.4,4.7
					c5.7-2.6,5.1-4.7,5.1-4.7l0.2,1.1c3.3-1.9,3-3.7,3-3.7l0.4,1.1C135.6,207.1,133.3,200.1,133.3,200.1z M127.5,207.9
					c-0.4,1.5-3.3,1.9-3.3,1.9s-2.9-0.3-3.3-1.9c-0.3-1.2-0.3,0.9-0.3,0.9l3.6-1.4l3.6,1.4C127.8,208.8,127.8,206.6,127.5,207.9z"/>
				<path class="st6" d="M131.1,206.5c0-0.1,0-0.2,0-0.3c0,0-0.1,0-0.1,0c-0.2,0.7-0.8,0.8-1.4,0.7c0.1,0,0.2,0,0.3-0.1
					c0,0,0-0.1-0.1-0.1c-0.1,0.1-0.6,0-0.7,0c-0.1,0-0.2,0-0.3,0c-0.6-0.3-1.1-0.8-1.7-1.1c-0.6-0.2-1.4-0.4-2,0
					c-0.4,0.2-0.7,0.6-0.8,1c0,0,0,0,0,0c0,0.1-0.1,0.2-0.1,0.3c0-0.1-0.1-0.2-0.1-0.3c0,0,0,0,0,0c-0.1-0.4-0.4-0.8-0.8-1
					c-0.6-0.3-1.4-0.2-2,0c-0.7,0.2-1.1,0.8-1.7,1.1c-0.1,0-0.2,0-0.3,0c-0.1,0-0.6,0.1-0.7,0c0,0-0.1,0-0.1,0.1
					c0.1,0.1,0.2,0.1,0.3,0.1c-0.6,0.1-1.2,0-1.4-0.7c0,0-0.1,0-0.1,0c0,0.1,0,0.2,0,0.3c-0.1,0.6,0.5,1.3,0.9,1.6
					c0.7,0.5,1.6,0.7,2.5,0.7c1,0.1,3.2-0.2,3.5-1.4c0.3,1.1,2.6,1.4,3.5,1.4c0.9-0.1,1.8-0.2,2.5-0.7
					C130.6,207.7,131.2,207,131.1,206.5z"/>
				<g>
					<path id="XMLID_10_" class="st6" d="M122.5,196.6c-0.2,0-0.4-0.1-0.6-0.1c0,0,0,0.1,0,0.1c-0.3-0.1-0.6-0.2-0.8-0.2
						c0,0,0.1,0.1,0.1,0.1c-0.5-0.2-1.1-0.3-1.6-0.3c0,0,0.1,0,0.1,0.1c-0.7,0-1.4,0.4-1.8,1.1c0.3,0,0.6-0.2,0.9-0.3
						c0.7-0.2,1.4,0.2,2.1,0.4c0.6,0.2,1.3,0.1,1.9,0.1L122.5,196.6z"/>
				</g>
				<g>
					<path id="XMLID_6_" class="st6" d="M126.1,196.6c0.2,0,0.3-0.1,0.5-0.1c0,0,0,0.1,0,0.1c0.2-0.1,0.5-0.2,0.8-0.2
						c0,0-0.1,0.1-0.1,0.1c0.5-0.2,1-0.3,1.5-0.3c0,0-0.1,0-0.1,0.1c0.7,0,1.4,0.4,1.7,1c-0.3,0-0.6-0.2-0.9-0.3
						c-0.7-0.2-1.3,0.2-2,0.4c-0.6,0.1-1.2,0.1-1.8,0.1L126.1,196.6z"/>
				</g>
			</g>
			<g>
				<path class="st6" d="M105.3,201.7v0.4h-1v1.4h1.2v0.4h-1.7v-4.1h1.7v0.4h-1.2v1.4H105.3z"/>
				<path class="st6" d="M107.7,200.9v0.1h-0.4v-0.1c0-0.4-0.1-0.6-0.5-0.6c-0.3,0-0.5,0.2-0.5,0.6c0,0.9,1.4,1,1.4,2.1
					c0,0.6-0.3,1-0.9,1c-0.6,0-0.9-0.4-0.9-1v-0.2h0.4v0.3c0,0.4,0.2,0.6,0.5,0.6s0.5-0.2,0.5-0.6c0-0.9-1.4-1-1.4-2.1
					c0-0.6,0.3-1,0.9-1C107.4,199.9,107.7,200.3,107.7,200.9z"/>
				<path class="st6" d="M108.7,204v-3.6h-0.7v-0.4h1.9v0.4h-0.7v3.6H108.7z"/>
				<path class="st6" d="M110.3,203.4v0.6h-0.4v-0.6H110.3z"/>
			</g>
			<g>
				<path class="st6" d="M138.9,200.9c0,1.2-1.4,1.7-1.4,2.6v0.1h1.3v0.4h-1.8v-0.3c0-1.3,1.4-1.6,1.4-2.7c0-0.4-0.1-0.6-0.5-0.6
					c-0.3,0-0.5,0.2-0.5,0.6v0.4h-0.4v-0.3c0-0.6,0.3-1,0.9-1C138.7,199.9,138.9,200.3,138.9,200.9z"/>
				<path class="st6" d="M139.3,200.9c0-0.6,0.3-1,0.9-1c0.6,0,0.9,0.4,0.9,1v2.1c0,0.6-0.3,1-0.9,1c-0.6,0-0.9-0.4-0.9-1V200.9z
					 M139.8,203c0,0.4,0.2,0.6,0.5,0.6c0.3,0,0.5-0.2,0.5-0.6v-2.1c0-0.4-0.2-0.6-0.5-0.6c-0.3,0-0.5,0.2-0.5,0.6V203z"/>
				<path class="st6" d="M142.4,200.6c-0.2,0.1-0.3,0.2-0.6,0.2v-0.4c0.4,0,0.6-0.3,0.7-0.5h0.3v4.1h-0.4V200.6z"/>
				<path class="st6" d="M145.4,200.9L145.4,200.9l-0.4,0.1v-0.1c0-0.4-0.2-0.6-0.5-0.6c-0.3,0-0.5,0.2-0.5,0.7v0.9
					c0.1-0.3,0.3-0.4,0.7-0.4c0.5,0,0.8,0.4,0.8,1v0.6c0,0.6-0.3,1-0.9,1c-0.6,0-0.9-0.4-0.9-1v-2.1c0-0.6,0.3-1,0.9-1
					C145.1,199.9,145.4,200.3,145.4,200.9z M144,202.4v0.6c0,0.4,0.2,0.6,0.5,0.6c0.3,0,0.5-0.2,0.5-0.6v-0.6c0-0.4-0.2-0.6-0.5-0.6
					C144.2,201.8,144,202,144,202.4z"/>
			</g>
			<rect x="137" y="198.6" class="st6" width="8.5" height="0.2"/>
			<rect x="137" y="205" class="st6" width="8.5" height="0.2"/>
			<rect x="102.7" y="198.6" class="st6" width="8.5" height="0.2"/>
			<rect x="102.7" y="205.1" class="st6" width="8.5" height="0.2"/>
			<g>
				<path class="st6" d="M164.6,204.8l0.1-0.1c-2.6-0.7-4.2-5.5-4.2-5.5c-1.1-4.7-5.5-11.9-6.9-13.8c-1.4-2-2.9,0.9-2.9,0.9l3.7,5.7
					c2.3,0.1,5.3,7.4,5.3,7.4C162.4,204.8,164.6,204.8,164.6,204.8z"/>
				<path class="st20" d="M150.9,185.8L150.9,185.8c-0.2,0.3-0.3,0.5-0.3,0.5l3.7,5.7c0.2,0,0.5,0.1,0.7,0.2L150.9,185.8z"/>
			</g>
			<g>
				<g>
					<path class="st6" d="M159,210.1c0,0,5.2-8.9,3.7-9.8c-1.5-0.9-2.9,4.8-7,10.6c-4.1,5.8-6.3,7.9-5.4,9
						C151.2,221.1,156.4,215,159,210.1z"/>
					<g>
						<path class="st20" d="M161.9,202.5c-0.2,0.1-0.4,0.1-0.6-0.1c-0.1-0.2-0.1-0.4,0.1-0.6c0.2-0.1,0.4-0.1,0.6,0.1
							C162.2,202.1,162.1,202.4,161.9,202.5z"/>
						<path class="st20" d="M157.4,211.3c-0.2,0.1-0.4,0.1-0.6-0.1c-0.1-0.2-0.1-0.4,0.1-0.6c0.2-0.1,0.4-0.1,0.6,0.1
							C157.6,210.9,157.6,211.2,157.4,211.3z"/>
						<path class="st20" d="M154.7,215.1c-0.2,0.1-0.4,0.1-0.6-0.1c-0.1-0.2-0.1-0.4,0.1-0.6c0.2-0.1,0.4-0.1,0.6,0.1
							C155,214.7,154.9,214.9,154.7,215.1z"/>
						<path class="st20" d="M152,218.6c-0.2,0.1-0.4,0.1-0.6-0.1c-0.1-0.2-0.1-0.4,0.1-0.6c0.2-0.1,0.4-0.1,0.6,0.1
							C152.2,218.2,152.2,218.5,152,218.6z"/>
					</g>
				</g>
			</g>
			<g>
				<path class="st6" d="M84.4,205l-0.1-0.1c2.6-0.7,4.2-5.5,4.2-5.5c1.1-4.7,5.5-11.9,6.9-13.8c1.4-2,2.9,0.9,2.9,0.9l-3.7,5.7
					c-2.3,0.1-5.3,7.4-5.3,7.4C86.6,205,84.4,205,84.4,205z"/>
				<path class="st20" d="M98.1,186L98.1,186c0.2,0.3,0.3,0.5,0.3,0.5l-3.7,5.7c-0.2,0-0.5,0.1-0.7,0.2L98.1,186z"/>
			</g>
			<g>
				<g>
					<path class="st6" d="M90,210.3c0,0-5.2-8.9-3.7-9.8c1.5-0.9,2.9,4.8,7,10.6c4.1,5.8,6.3,7.9,5.4,9
						C97.8,221.3,92.6,215.1,90,210.3z"/>
					<g>
						<path class="st20" d="M87.1,202.7c0.2,0.1,0.4,0.1,0.6-0.1c0.1-0.2,0.1-0.4-0.1-0.6c-0.2-0.1-0.4-0.1-0.6,0.1
							C86.8,202.3,86.9,202.5,87.1,202.7z"/>
						<path class="st20" d="M91.6,211.4c0.2,0.1,0.4,0.1,0.6-0.1c0.1-0.2,0.1-0.4-0.1-0.6c-0.2-0.1-0.4-0.1-0.6,0.1
							C91.4,211.1,91.4,211.3,91.6,211.4z"/>
						<path class="st20" d="M94.3,215.2c0.2,0.1,0.4,0.1,0.6-0.1c0.1-0.2,0.1-0.4-0.1-0.6c-0.2-0.1-0.4-0.1-0.6,0.1
							C94,214.8,94.1,215.1,94.3,215.2z"/>
						<path class="st20" d="M97,218.8c0.2,0.1,0.4,0.1,0.6-0.1c0.1-0.2,0.1-0.4-0.1-0.6c-0.2-0.1-0.4-0.1-0.6,0.1
							C96.8,218.4,96.8,218.6,97,218.8z"/>
					</g>
				</g>
			</g>
			<path class="st6" d="M140,168.7l0,0.4l0,0.4l0,3.5c0,0.1-0.1,0.3-0.3,0.3c-0.1,0-0.3-0.1-0.3-0.3l0-3.5l-0.6,0l0,3.5
				c0,0.1-0.1,0.3-0.3,0.3c-0.1,0-0.3-0.1-0.3-0.3l0-3.5l-0.6,0l0,3.5c0,0.1-0.1,0.3-0.3,0.3c-0.1,0-0.3-0.1-0.3-0.3l0-3.5l-0.6,0
				l0,3.5c0,0.1-0.1,0.3-0.3,0.3c-0.1,0-0.3-0.1-0.3-0.3l0-3.5l-0.6,0l0,3.5c0,0.1-0.1,0.3-0.3,0.3c-0.1,0-0.3-0.1-0.3-0.3l0-3.5
				l-0.6,0l0,3.5c0,0.1-0.1,0.3-0.3,0.3c-0.1,0-0.3-0.1-0.3-0.3l0-3.5l-0.6,0l0,3.5c0,0.1-0.1,0.3-0.3,0.3c-0.1,0-0.3-0.1-0.3-0.3
				l0-3.5l-0.6,0l0,3.5c0,0.1-0.1,0.3-0.3,0.3c-0.1,0-0.3-0.1-0.3-0.3l0-3.5h-0.6l0,3.5c0,0.1-0.1,0.3-0.3,0.3
				c-0.1,0-0.3-0.1-0.3-0.3l0-3.5l-0.6,0l0,3.5c0,0.1-0.1,0.3-0.3,0.3c-0.1,0-0.3-0.1-0.3-0.3l0-3.5h-0.6l0,3.5
				c0,0.1-0.1,0.3-0.3,0.3c-0.1,0-0.3-0.1-0.3-0.3l0-3.5h-0.6l0,3.5c0,0.1-0.1,0.3-0.3,0.3c-0.1,0-0.3-0.1-0.3-0.3l0-3.5l-0.6,0
				l0,3.5c0,0.1-0.1,0.3-0.3,0.3c-0.1,0-0.3-0.1-0.3-0.3l0-3.5l-0.6,0l0,3.5c0,0.1-0.1,0.3-0.3,0.3c-0.1,0-0.3-0.1-0.3-0.3l0-3.5
				l-0.6,0l0,3.5c0,0.1-0.1,0.3-0.3,0.3c-0.1,0-0.3-0.1-0.3-0.3l0-3.5l-0.6,0l0,3.5c0,0.1-0.1,0.3-0.3,0.3c-0.1,0-0.3-0.1-0.3-0.3
				l0-3.5l-0.6,0l0,3.5c0,0.1-0.1,0.3-0.3,0.3c-0.1,0-0.3-0.1-0.3-0.3l0-3.5h-0.6l0,3.5c0,0.1-0.1,0.3-0.3,0.3
				c-0.1,0-0.3-0.1-0.3-0.3l0-3.5h-0.6l0,3.5c0,0.1-0.1,0.3-0.3,0.3c-0.1,0-0.3-0.1-0.3-0.3l0-3.5l-0.6,0l0,3.5
				c0,0.1-0.1,0.3-0.3,0.3c-0.1,0-0.3-0.1-0.3-0.3l0-3.5l-0.6,0l0,3.5c0,0.1-0.1,0.3-0.3,0.3c-0.1,0-0.3-0.1-0.3-0.3l0-3.5l-0.6,0
				l0,3.5c0,0.1-0.1,0.3-0.3,0.3c-0.1,0-0.3-0.1-0.3-0.3l0-3.5l-0.6,0l0,3.5c0,0.1-0.1,0.3-0.3,0.3c-0.1,0-0.3-0.1-0.3-0.3l0-3.5
				l-0.6,0l0,3.5c0,0.1-0.1,0.3-0.3,0.3c-0.1,0-0.3-0.1-0.3-0.3l0-3.5h-0.6l0,3.5c0,0.1-0.1,0.3-0.3,0.3c-0.1,0-0.3-0.1-0.3-0.3
				l0-3.5h-0.6l0,3.5c0,0.1-0.1,0.3-0.3,0.3c-0.1,0-0.3-0.1-0.3-0.3l0-3.5l-0.6,0l0,3.5c0,0.1-0.1,0.3-0.3,0.3
				c-0.1,0-0.3-0.1-0.3-0.3l0-3.5l-0.6,0l0,3.5c0,0.1-0.1,0.3-0.3,0.3c-0.1,0-0.3-0.1-0.3-0.3l0-3.9c0,0,0,0,0,0l0-0.4
				c0-0.9,0.7-1.6,1.6-1.6l28.2,0C139.3,167.1,140,167.8,140,168.7z"/>
			<path class="st6" d="M122.2,227.8c-0.1,0-0.1,0.1-0.2,0.1C122.1,227.9,122.1,227.8,122.2,227.8z"/>
			<path class="st6" d="M129.6,227.9h0.7c0.1,0,0.2,0,0.3-0.1v-1.2h-0.7c-0.5,0.3-1,0.5-1.4,0.8
				C128.8,227.7,129.1,227.9,129.6,227.9z"/>
			<path class="st6" d="M124.8,227.2c-0.1-0.3-0.4-0.4-0.6-0.3c-0.3,0.1-0.4,0.4-0.3,0.6c0.1,0.3,0.4,0.4,0.6,0.3
				C124.7,227.7,124.9,227.4,124.8,227.2z"/>
			<path class="st6" d="M121.9,228c-1.1,0.6-2.2,1.4-3.9,0.9c-0.8-0.2-1.8-0.1-2.6,0.5c-1.3,0.8-1.9,2.1-1.7,3.2c0,0,0,0.1,0,0.1
				c-0.7,0.2-1.5,0.1-2-0.5c-0.3-0.3-0.8,0.1-0.5,0.4c0.7,0.8,1.8,1,2.7,0.7c0,0.1,0.1,0.1,0.2,0.2c0.8,0.8,2.3,0.9,3.7,0.1
				c0.8-0.5,1.4-1.2,1.6-1.9c0,0,0.9-1.3,3.3-2.3c0.2-0.1,0.5-0.2,0.8-0.4C123,228.6,122.5,228.3,121.9,228z M117.5,233
				c-1.2,0.7-2.6,0.5-3.1-0.4c-0.5-0.9,0-2.2,1.1-2.9c1.2-0.7,2.6-0.5,3.1,0.4C119.2,231,118.7,232.3,117.5,233z"/>
			<path class="st6" d="M119.7,226.7h-1.1v1.2h1.2c0.4-0.1,0.8-0.3,1.2-0.5C120.5,227.2,120.1,226.9,119.7,226.7z"/>
			<path class="st6" d="M127.3,226.9C127.3,226.9,127.4,226.9,127.3,226.9c3.9-2,8.4-4.7,8.4-5.5c0,0-5.9,2.8-9.9,4.7
				C126.5,226.5,127.1,226.8,127.3,226.9z"/>
			<path class="st6" d="M123.5,226.1c-4-2-10.1-5.1-10.1-5.1c-0.1,0.9,5.5,4.3,9.4,6.4C122.8,226.8,123.1,226.3,123.5,226.1z"/>
			<path class="st6" d="M133.5,229.3c-0.9-0.5-1.8-0.7-2.6-0.5c-1.9,0.4-2.8-0.4-4-1c-0.2-0.1-0.6-0.3-1.1-0.6c0,0.3,0,0.6-0.2,0.8
				c-0.1,0.2-0.3,0.4-0.5,0.5c0.4,0.2,0.7,0.4,1,0.5c2.4,1.1,3.3,2.4,3.3,2.4c0.2,0.7,0.8,1.5,1.6,2c1.5,0.9,3.2,0.8,3.9-0.4
				C135.6,231.9,135,230.2,133.5,229.3z M134.3,232.7c-0.6,0.9-2,1-3.1,0.3c-1.2-0.7-1.6-2-1.1-2.9c0.6-0.9,2-1,3.1-0.3
				C134.4,230.5,134.9,231.8,134.3,232.7z"/>
		</g>
		<g>
			<path class="st6" d="M364.7,142.7c0-0.1,0-0.2,0-0.2c0-0.1,0-0.1,0-0.2c0-0.1,0-0.1-0.1-0.2c0-0.1,0-0.1-0.1-0.2c0,0,0,0,0,0
				l-26.1-56.5c0-0.1,0-0.1,0-0.2v-46h4.8c1.1,0,2-0.9,2-2V18.8h3.8c1.1,0,2-0.9,2-2V2c0-1.1-0.9-2-2-2h-334c-1.1,0-2,0.9-2,2v14.8
				c0,1.1,0.9,2,2,2h5v18.5c0,1.1,0.9,2,2,2h5.8v45.9L0.2,141.9c0,0,0,0,0,0c0,0.1-0.1,0.1-0.1,0.2c0,0.1,0,0.1-0.1,0.2
				c0,0.1,0,0.1,0,0.2c0,0.1,0,0.1,0,0.2c0,0,0,0,0,0v14.7c0,1.1,0.9,2,2,2h6.8l18.9,49.2V275v7.8h-6.2c-1.1,0-2,0.9-2,2v14
				c0,1.1,0.9,2,2,2h199.5h94.2h29.8c1.1,0,2-0.9,2-2v-14c0-1.1-0.9-2-2-2h-6.2V275c0-1.1-0.9-2-2-2h-19.5V159.4h34.6L324.3,231
				c-0.4,1,0.1,2.2,1.2,2.6c0.2,0.1,0.5,0.1,0.7,0.1c0.8,0,1.6-0.5,1.9-1.3l28-73h6.6c1.1,0,2-0.9,2-2L364.7,142.7
				C364.7,142.7,364.7,142.7,364.7,142.7z M315.2,155.4h-6.9h-5.9v-10.7h16.2v10.7H315.2z M248.5,185.3c-0.4-0.4-0.9-0.6-1.4-0.6
				l-17.8-0.1v-25.2h77v39.8h-57.4l0.1-12.5C249,186.2,248.8,185.7,248.5,185.3z M220.9,155.4h-3.8v-10.7h16.5v10.7h-6.4H220.9z
				 M199.3,155.4h-5.2v-10.7h19v10.7H199.3z M49.7,245.8h149.7h4.8v7.5H45v-7.5H49.7z M197.3,241.8H51.7v-82.3h145.7V241.8z
				 M29.7,155.4h-5.8v-10.7h18.2v10.7H29.7z M44.3,60.1l11.1,0l-34.8,80.7H5.2L44.3,60.1z M72.8,60.1l-30,80.6H25l34.8-80.7
				L72.8,60.1z M155.6,60.2l-7.3,80.6h-15.7l10.9-80.6L155.6,60.2z M189.2,60.2l1,80.6h-15.4l1.9-80.6L189.2,60.2z M305.4,60.2
				l34.8,80.5h-18.1l-29.5-80.5L305.4,60.2z M288.3,60.2l29.5,80.5h-15.9l-26-80.5L288.3,60.2z M279.9,155.4v-10.7h18.5v10.7H279.9z
				 M261.7,155.4v-10.7h14.2v10.7H261.7z M237.7,155.4v-10.7h20v10.7H237.7z M271.7,60.2l26,80.5h-18.2l-19.8-80.5L271.7,60.2z
				 M255.6,60.2l19.8,80.5h-14.1l-17.6-80.5L255.6,60.2z M239.6,60.2l17.6,80.6h-19.8l-12.1-80.6L239.6,60.2z M221.2,60.2l12.1,80.6
				H217l-7.4-80.6L221.2,60.2z M205.6,60.2l7.4,80.6h-18.8l-1-80.6L205.6,60.2z M174.7,155.4l0-10.7h15.5v10.7H174.7z M152,155.4
				v-10.7h18.6v10.7H152z M132.3,155.4v-10.7H148v10.7H132.3z M108,155.4v-10.7h20.3v10.7H108z M89.3,155.4v-10.7H104v10.7H89.3z
				 M66.4,155.4v-10.7h18.9v10.7H66.4z M170.7,140.8h-18.5l7.3-80.6l13,0L170.7,140.8z M128.5,140.8h-20l18-80.6l13,0L128.5,140.8z
				 M104.4,140.8H89.9l20.8-80.6l11.7,0L104.4,140.8z M85.7,140.8h-19l26.3-80.6l13.4,0L85.7,140.8z M62.6,140.8H47l30-80.6l11.8,0
				L62.6,140.8z M46.2,144.8h16.2v10.7H49.7h-3.5V144.8z M322.7,144.8h18.5v10.7h-18.5V144.8z M344.5,140.8l-34.8-80.5l12.7,0
				l37.2,80.5H344.5z M16.9,4h330v10.8h-3.8H21.9h-5V4z M23.9,18.8h317.2v16.5h-4.8H29.7h-5.8V18.8z M31.7,39.2h302.8v37.5
				l-8.9-19.4c-0.3-0.7-1-1.2-1.8-1.2l-17,0c0,0,0,0,0,0l-65.5,0c0,0,0,0,0,0l-50,0c0,0,0,0,0,0c0,0,0,0,0,0l-16.5,0c0,0,0,0,0,0
				c0,0,0,0,0,0l-32.5,0c-0.1,0-0.1,0-0.2,0c-0.2,0-0.5,0-0.7,0l-82.8,0c0,0,0,0,0,0l-15.4,0h0c-0.8,0-1.5,0.4-1.8,1.1l-9.5,19.7
				V39.2z M4,144.8h15.9v10.7h-9.7c0,0,0,0,0,0H4V144.8z M13.1,159.4h14.6v38.1L13.1,159.4z M40.5,231l-8.9-23.1v-48.5h16v82.3H43
				c-1.1,0-2,0.9-2,2v11.5c0,1.1,0.9,2,2,2h163.2c1.1,0,2-0.9,2-2v-11.5c0-1.1-0.9-2-2-2h-4.8v-82.3h17.6V273H31.7v-53.9l5.1,13.4
				c0.3,0.8,1.1,1.3,1.9,1.3c0.2,0,0.5,0,0.7-0.1C40.4,233.2,40.9,232.1,40.5,231z M31.7,277h187.2v5.8H31.7V277z M23.4,286.8h6.2
				h189.2v10H23.4V286.8z M342.9,296.8h-25.8v-10h19.5h6.2V296.8z M334.7,277v5.8h-17.5V277H334.7z M313.2,275v9.8v12h-90.2v-12V275
				V159.4h2.4v27.2c0,1.1,0.9,2,2,2l17.7,0.1l-0.1,12.5c0,0.5,0.2,1,0.6,1.4c0.4,0.4,0.9,0.6,1.4,0.6h61.4c1.1,0,2-0.9,2-2v-41.8
				h2.9V275z M360.7,155.4h-6.1c0,0,0,0,0,0h-9.4v-10.7h15.5V155.4z"/>
			<path class="st6" d="M308.3,209H247c-0.5,0-1,0.2-1.4,0.6c-0.4,0.4-0.6,0.9-0.6,1.4l0.1,12.2h-17.9c-1.1,0-2,0.9-2,2v35.2
				c0,1.1,0.9,2,2,2h81c1.1,0,2-0.9,2-2V211C310.3,209.9,309.4,209,308.3,209z M306.3,258.5h-77v-31.2h17.9c0.5,0,1-0.2,1.4-0.6
				c0.4-0.4,0.6-0.9,0.6-1.4l-0.1-12.2h57.2V258.5z"/>
			<path class="st6" d="M227,209.2h14.1c1.1,0,2-0.9,2-2s-0.9-2-2-2H229v-3.4c0-1.1-0.9-2-2-2s-2,0.9-2,2v5.4
				C225,208.4,225.9,209.2,227,209.2z"/>
		</g>
		<path class="st6" d="M336.7,277c-1.1,0-2-0.9-2-2V157.4c0-1.1,0.9-2,2-2s2,0.9,2,2V275C338.7,276.1,337.8,277,336.7,277z"/>
	</g>
</g>
<g id="Layer_2">
</g>
</svg>
