<svg xmlns="http://www.w3.org/2000/svg" viewBox="0 0 64.03 83.73"><defs><style>.cls-1{fill:#231f20;}</style></defs><title>Asset 1</title><g id="Layer_2" data-name="Layer 2"><g id="Layer_1-2" data-name="Layer 1"><path class="cls-1" d="M32,83.73c-2.41,0-5.46-2-9.3-6.14A96.18,96.18,0,0,1,12.57,64.12C4.7,51.73,0,39.73,0,32a32,32,0,0,1,64,0c0,7.72-4.7,19.72-12.57,32.1A96.16,96.16,0,0,1,41.32,77.6C37.47,81.73,34.43,83.73,32,83.73Zm0-79.2A27.52,27.52,0,0,0,4.53,32c0,6.79,4.54,18.16,11.86,29.67C24.25,74.07,30.45,79.2,32,79.2s7.76-5.14,15.63-17.51C55,50.18,59.5,38.81,59.5,32A27.52,27.52,0,0,0,32,4.53Zm0,44.62A17.13,17.13,0,1,1,49.14,32,17.15,17.15,0,0,1,32,49.14Zm0-29.73A12.6,12.6,0,1,0,44.62,32,12.61,12.61,0,0,0,32,19.42Z"/></g></g></svg>