<svg xmlns="http://www.w3.org/2000/svg" viewBox="0 0 76.31 83.73"><defs><style>.cls-1{fill:#917758;}</style></defs><title>Asset 2</title><g id="Layer_2" data-name="Layer 2"><g id="Layer_1-2" data-name="Layer 1"><path class="cls-1" d="M55.06,65.43a5.46,5.46,0,1,0,5.46,5.46A5.47,5.47,0,0,0,55.06,65.43Zm0,8.85a3.39,3.39,0,1,1,3.39-3.39A3.39,3.39,0,0,1,55.06,74.28Z"/><path class="cls-1" d="M10.69,65.43a5.46,5.46,0,1,0,5.46,5.46A5.47,5.47,0,0,0,10.69,65.43Zm0,8.85a3.39,3.39,0,1,1,3.39-3.39A3.39,3.39,0,0,1,10.69,74.28Z"/><path class="cls-1" d="M76,78.18a4.86,4.86,0,0,0-5.25-3c-3.5.32-4.6-.27-5.44-1.27A10.68,10.68,0,0,0,53.18,60.37L41.1,44.76C43.55,40.2,58.4,12.59,60,9.11A8.35,8.35,0,0,0,60,1.5L59.19.19l-26,34.39L6.45,0,5.76,1.63C5.58,2,4.09,5.66,5,8c.58,1.56,11.16,20.6,20.32,37L13.57,60.59a10.71,10.71,0,1,0,5.85,4.12L33.75,49.82,46.37,64.67A10.69,10.69,0,0,0,61.06,79.73c1.28,1.1,4.12,3.37,6.24,3.77a13.35,13.35,0,0,0,2.46.23,9.36,9.36,0,0,0,5.45-1.49A3.49,3.49,0,0,0,76,78.18Zm-17.25-74a6.69,6.69,0,0,1-.59,4C56.64,11.45,43.08,36.7,39.71,43l-5.18-6.69ZM6.92,7.32a6,6,0,0,1,.16-3.11L31.92,36.29l-5.26,7C21.4,33.83,7.5,8.88,6.92,7.32ZM26.4,47l1,1.76c.16.3.58,1.07,3.39,1.12L18,63.14a10.74,10.74,0,0,0-2.48-1.76ZM10.69,79.51a8.62,8.62,0,1,1,8.62-8.62A8.63,8.63,0,0,1,10.69,79.51ZM34,47.67a16.44,16.44,0,0,1-4.92,0l-1.36-2.44L33.24,38,51,61a10.72,10.72,0,0,0-3.28,2.11L34.59,47.61ZM46.44,70.89a8.62,8.62,0,1,1,8.62,8.62A8.63,8.63,0,0,1,46.44,70.89Zm27.51,9.7c-1.23.94-3.93,1.31-6.27.87-1.4-.26-3.63-1.93-5-3.08A10.75,10.75,0,0,0,64.45,76c1.28,1.09,3.05,1.58,6.49,1.26a2.84,2.84,0,0,1,3.13,1.67A1.56,1.56,0,0,1,73.95,80.59Z"/></g></g></svg>