<?xml version="1.0" encoding="utf-8"?>
<!-- Generator: Adobe Illustrator 22.0.0, SVG Export Plug-In . SVG Version: 6.00 Build 0)  -->
<svg version="1.1" id="Layer_1" xmlns="http://www.w3.org/2000/svg" xmlns:xlink="http://www.w3.org/1999/xlink" x="0px" y="0px"
	 viewBox="0 0 498.4 415.2" style="enable-background:new 0 0 498.4 415.2;" xml:space="preserve">
<style type="text/css">
	.st0{fill:#FFFFFF;}
	.st1{opacity:0.3;fill:#FFFFFF;}
</style>
<g>
	<g>
		<rect x="75.7" y="133.5" transform="matrix(0.5 -0.866 0.866 0.5 -62.3339 166.4774)" class="st0" width="74.6" height="7.5"/>
	</g>
	<rect x="77.6" y="182" transform="matrix(0.5 -0.866 0.866 0.5 -118.364 166.5332)" class="st0" width="14.9" height="7.5"/>
	<rect x="133.5" y="85.1" transform="matrix(0.5 -0.866 0.866 0.5 -6.4276 166.5334)" class="st0" width="14.9" height="7.5"/>
	<g>
		<rect x="212.1" y="54.7" class="st0" width="74.6" height="7.5"/>
	</g>
	<rect x="185.9" y="54.8" class="st0" width="14.9" height="7.5"/>
	<rect x="297.8" y="54.8" class="st0" width="14.9" height="7.5"/>
	<g>
		<rect x="382" y="99.9" transform="matrix(0.866 -0.5 0.5 0.866 -16.8986 211.2638)" class="st0" width="7.5" height="74.6"/>
	</g>
	<rect x="354" y="81.2" transform="matrix(0.866 -0.5 0.5 0.866 3.5894 190.7351)" class="st0" width="7.5" height="14.9"/>
	<rect x="409.9" y="178.1" transform="matrix(0.866 -0.5 0.5 0.866 -37.3823 231.7058)" class="st0" width="7.5" height="14.9"/>
	<g>
		<rect x="348.5" y="290.9" transform="matrix(0.5 -0.866 0.866 0.5 -62.2689 481.4423)" class="st0" width="74.6" height="7.5"/>
	</g>
	<rect x="406.3" y="242.3" transform="matrix(0.5 -0.866 0.866 0.5 -6.2385 481.3867)" class="st0" width="14.9" height="7.5"/>
	<rect x="350.3" y="339.3" transform="matrix(0.5 -0.866 0.866 0.5 -118.1753 481.3858)" class="st0" width="14.9" height="7.5"/>
	<rect x="298" y="369.6" class="st0" width="14.9" height="7.5"/>
	<rect x="186.1" y="369.6" class="st0" width="14.9" height="7.5"/>
	<g>
		<rect x="109.3" y="257.4" transform="matrix(0.866 -0.5 0.5 0.866 -132.2076 96.0024)" class="st0" width="7.5" height="74.6"/>
	</g>
	<rect x="137.4" y="335.7" transform="matrix(0.866 -0.5 0.5 0.866 -152.6954 116.5313)" class="st0" width="7.5" height="14.9"/>
	<rect x="81.4" y="238.8" transform="matrix(0.866 -0.5 0.5 0.866 -111.7241 75.56)" class="st0" width="7.5" height="14.9"/>
	<g>
		<path class="st0" d="M177.8,62.1v-7.5h-21.5l-10.9,18.8l6.5,3.8c0,0,2.2-3.8,4.3-7.5c1.1-1.9,2.2-3.8,3-5.2c0.4-0.7,0.7-1.3,1-1.7
			c0.1-0.2,0.2-0.4,0.3-0.5c0-0.1,0.1-0.1,0.1-0.1l0,0l0,0l0,0l0,0v0c0,0,0,0,0,0c0,0,0,0,0,0H177.8z"/>
	</g>
	<g>
		<path class="st0" d="M346.8,77l6.5-3.8l-10.8-18.6l-21.7,0v7.5c0,0,4.3,0,8.7,0c2.2,0,4.3,0,6,0c0.8,0,1.5,0,2,0
			c0.2,0,0.4,0,0.6,0c0.1,0,0.1,0,0.1,0h0h0h0l0,0l0,0l0,0c0,0,0,0,0,0L346.8,77z"/>
	</g>
	<g>
		<path class="st0" d="M418.4,230.8l6.5,3.8l10.8-18.6l-10.9-18.8l-6.5,3.8c0,0,2.2,3.8,4.3,7.5c1.1,1.9,2.2,3.8,3,5.2
			c0.4,0.7,0.7,1.3,1,1.7c0.1,0.2,0.2,0.4,0.3,0.5c0,0.1,0.1,0.1,0.1,0.1l0,0l0,0l0,0l0,0l0,0l0,0c0,0,0,0,0,0L418.4,230.8z"/>
	</g>
	<g>
		<path class="st0" d="M321,369.7v7.5h21.5l10.9-18.8l-6.5-3.8c0,0-2.2,3.8-4.3,7.5c-1.1,1.9-2.2,3.8-3,5.2c-0.4,0.7-0.7,1.3-1,1.7
			c-0.1,0.2-0.2,0.4-0.3,0.5c0,0.1-0.1,0.1-0.1,0.1l0,0l0,0l0,0l0,0v0c0,0,0,0,0,0c0,0,0,0,0,0H321z"/>
	</g>
	<g>
		<path class="st0" d="M152,354.8l-6.5,3.8l10.8,18.6l21.7,0v-7.5c0,0-4.3,0-8.7,0c-2.2,0-4.3,0-6,0c-0.8,0-1.5,0-2,0
			c-0.2,0-0.4,0-0.6,0c-0.1,0-0.1,0-0.1,0h0h0h0l0,0l0,0l0,0c0,0,0,0,0,0L152,354.8z"/>
	</g>
	<g>
		<path class="st0" d="M80.4,201l-6.5-3.8l-10.8,18.6L74,234.7l6.5-3.8c0,0-2.2-3.8-4.3-7.5c-1.1-1.9-2.2-3.8-3-5.2
			c-0.4-0.7-0.7-1.3-1-1.7c-0.1-0.2-0.2-0.4-0.3-0.5c0-0.1-0.1-0.1-0.1-0.1l0,0l0,0l0,0l0,0l0,0l0,0c0,0,0,0,0,0L80.4,201z"/>
	</g>
	<g>
		<g>
			<path class="st0" d="M330.3,124.3c0-0.4-0.5-0.6-0.8-0.3c-2.5,2.8-5.6,4.8-9.3,5.5c0.5-2.2,1.2-4.3,2.1-6.4
				c0.1-0.4-0.3-0.7-0.7-0.5c-2.8,2-5.7,3.3-9.2,3.2c-3.3,0-6.4-1.5-9.3-3c-5.5-2.9-10.7-6.5-16-9.7c-5.2-3.1-10.6-6-16.3-8
				c-2.9-1.1-5.9-1.6-8.9-2.4c-11.8-3.3-25-1.6-35.7,4c-6.9,3.6-12.7,9-17.4,15.1c-5.2,2.3-9.6,5.8-12.7,10.8
				c-3.4,5.5-4.7,12-5.3,18.3c-0.6,6.8-0.3,13.6-0.1,20.4c0.2,5.4,0.6,11.2-0.9,16.5c-0.1,0.4,0.5,0.8,0.7,0.4
				c6.6-8.1,12.1-17.5,15.8-27.5c0.1,0,0.2-0.1,0.3-0.2c3.7-8.2,10.5-13.7,19.6-14.6c4.3-0.4,8.9,0.1,13,1.5c1.9,0.6,4.6,2.1,6.6,3
				c5.8,2.4,11.7,4.4,17.9,5.9c7.6,1.9,15.6,3.4,23.4,3.2c3.7,10.4,9.4,20.2,16.2,28.6c0.3,0.4,0.9,0,0.7-0.4
				c-1.4-5.3-1-11.1-0.9-16.5c0.2-5,0.4-10,0.2-15c6-2.6,11.7-6.7,16.3-11.2C325.7,139.4,329.3,132.2,330.3,124.3z"/>
		</g>
		<g>
			<path class="st0" d="M304.1,204.8c2.5,24.8-7.4,40.6-7.4,40.6l0.1-14.8c0,0-6.2,20-18.1,20c-16.2,0-31.8-6.2-31.8-6.2
				s-14.9,6.2-31.1,6.2c-11.9,0-18.2-20.1-18.2-20.1l0.1,14.9c0,0-9.9-15.8-7.4-40.6c0,0-13.9,43.2,2.8,83.2l2.5-6.8
				c0,0-2.5,11.6,17.9,23.2l0.3-7.1c0,0-2.1,12.6,33.4,29c35.6-16.4,31.8-29,31.8-29l1.1,7.1c20.4-11.6,18.7-23.2,18.7-23.2l2.5,6.8
				C318,248,304.1,204.8,304.1,204.8z M267.6,252.8c-2.4,9.6-20.4,11.6-20.4,11.6s-18-2-20.4-11.6c-1.9-7.6-2.2,5.5-2.2,5.5
				l22.6-8.4l22.6,8.4C269.8,258.3,269.5,245.2,267.6,252.8z"/>
		</g>
		<g>
			<path class="st0" d="M290.1,244.1c0.1-0.7,0.1-1.4-0.1-2.1c-0.1-0.2-0.4-0.2-0.4,0c-1.2,4.3-5,5.1-8.7,4.5c0.8,0,1.5-0.2,2-0.7
				c0.2-0.2-0.1-0.7-0.4-0.5c-0.8,0.6-3.5,0-4.4-0.1c-0.6-0.1-1.2-0.1-1.8-0.2c-3.8-1.9-6.8-5.1-10.8-6.7c-3.6-1.4-9-2.3-12.5-0.3
				c-2.3,1.3-4.3,3.9-5.1,6.5c-0.1,0.1-0.2,0.2-0.2,0.3c-0.3,0.6-0.5,1.2-0.6,1.8c-0.1-0.6-0.3-1.2-0.6-1.8c0-0.1-0.1-0.2-0.2-0.3
				c-0.7-2.6-2.8-5.2-5.1-6.5c-3.5-2-8.9-1-12.5,0.3c-4.1,1.5-7,4.8-10.8,6.7c-0.6,0-1.2,0.1-1.8,0.2c-0.9,0.1-3.6,0.7-4.4,0.1
				c-0.3-0.2-0.6,0.2-0.4,0.5c0.5,0.5,1.3,0.7,2,0.7c-3.7,0.6-7.6-0.2-8.7-4.5c-0.1-0.2-0.4-0.2-0.4,0c-0.2,0.7-0.2,1.5-0.1,2.1
				c-0.8,3.6,3,7.9,5.5,9.7c4.6,3.3,10.2,4.2,15.7,4.6c5.9,0.5,19.9-1.4,21.8-8.5c1.9,7.1,15.9,9,21.8,8.5
				c5.5-0.4,11.1-1.3,15.7-4.6C287.1,252,290.9,247.7,290.1,244.1z"/>
		</g>
		<g>
			<g id="XMLID_100_">
				<path class="st0" d="M236.9,182.7c-1.1-0.2-2.3-0.4-3.4-0.7c0.2,0.3,0.2,0.6,0.1,0.9c-1.6-0.8-3.4-1.1-5.2-1
					c0.2,0.2,0.3,0.4,0.4,0.7c-3.2-1.1-6.7-1.7-10.1-1.7c0.2,0.1,0.4,0.2,0.6,0.4c-4.5,0-8.9,2.6-10.9,6.5c2,0,3.7-1.2,5.7-1.7
					c4.3-1.1,8.6,1.4,12.9,2.5c3.8,1,7.8,0.7,11.8,0.5L236.9,182.7z"/>
			</g>
		</g>
		<g>
			<g id="XMLID_82_">
				<path class="st0" d="M258.9,183.1c1.1-0.2,2.2-0.4,3.3-0.6c-0.2,0.3-0.2,0.6-0.1,0.9c1.5-0.7,3.3-1.1,5-1
					c-0.2,0.2-0.3,0.4-0.4,0.7c3.1-1.1,6.3-1.6,9.6-1.6c-0.2,0.1-0.4,0.2-0.6,0.4c4.3,0,8.5,2.5,10.4,6.2c-1.9,0-3.6-1.2-5.4-1.6
					c-4.1-1.1-8.2,1.4-12.3,2.4c-3.6,0.9-7.5,0.7-11.2,0.5L258.9,183.1z"/>
			</g>
		</g>
	</g>
	<g>
		<path class="st0" d="M130.1,214.5v2.5h-6.2v9h7.6v2.6h-10.4v-25.2h10.4v2.6h-7.6v8.6H130.1z"/>
		<path class="st0" d="M145,209.4v0.7h-2.7v-0.8c0-2.3-0.9-3.6-2.9-3.6s-2.9,1.3-2.9,3.6c0,5.7,8.5,6.2,8.5,13.3
			c0,3.8-1.8,6.3-5.7,6.3s-5.7-2.5-5.7-6.3V221h2.6v1.6c0,2.3,0.9,3.6,3,3.6s3-1.3,3-3.6c0-5.6-8.4-6.2-8.4-13.2
			c0-3.9,1.8-6.3,5.6-6.3C143.2,203.1,145,205.6,145,209.4z"/>
		<path class="st0" d="M151.1,228.5v-22.6h-4.6v-2.6h12.1v2.6h-4.6v22.6H151.1z"/>
		<path class="st0" d="M161.1,225v3.5h-2.7V225H161.1z"/>
	</g>
	<g>
		<path class="st0" d="M338.8,209.4c0,7.6-8.5,10.3-8.6,16.1v0.4h8.3v2.6h-11v-2.2c0-8.1,8.5-9.7,8.5-16.8c0-2.6-0.9-4-3-4
			c-2.1,0-3,1.5-3,3.7v2.2h-2.6v-2.1c0-3.9,1.8-6.4,5.7-6.4C337,203.1,338.8,205.6,338.8,209.4z"/>
		<path class="st0" d="M341.2,209.4c0-3.9,1.9-6.3,5.8-6.3c3.9,0,5.8,2.5,5.8,6.3v13c0,3.9-1.9,6.4-5.8,6.4c-3.9,0-5.8-2.5-5.8-6.4
			V209.4z M343.9,222.6c0,2.3,1,3.6,3,3.6c2.1,0,3-1.4,3-3.6v-13.3c0-2.3-0.9-3.7-3-3.7c-2,0-3,1.4-3,3.7V222.6z"/>
		<path class="st0" d="M360.5,207.9c-0.9,0.6-2.2,1-3.5,1.1v-2.3c2.7-0.1,3.7-1.6,4.3-3.3h1.9v25.2h-2.8V207.9z"/>
		<path class="st0" d="M378.9,209.4v0.5h-2.6v-0.6c0-2.3-0.9-3.6-3-3.6c-2.1,0-3.1,1.4-3.1,4.1v5.7c0.7-1.7,2.1-2.7,4.1-2.7
			c3.2,0,4.7,2.3,4.7,6v3.8c0,3.9-1.9,6.4-5.8,6.4c-3.9,0-5.8-2.5-5.8-6.4v-12.9c0-4,1.8-6.5,5.8-6.5
			C377.1,203.1,378.9,205.5,378.9,209.4z M370.2,218.8v3.8c0,2.3,0.9,3.6,3,3.6c2,0,3-1.4,3-3.6v-3.8c0-2.3-1-3.6-3-3.6
			C371.1,215.2,370.2,216.5,370.2,218.8z"/>
	</g>
	<rect x="327" y="195.2" class="st0" width="52.7" height="1"/>
	<rect x="327" y="235.2" class="st0" width="52.7" height="1"/>
	<rect x="114" y="195.4" class="st0" width="52.7" height="1"/>
	<rect x="114" y="235.4" class="st0" width="52.7" height="1"/>
	<g>
		<path class="st0" d="M498.1,233.9l0.3-0.7c-16.2-4.4-26.4-33.8-26.4-33.8c-6.8-29-34-73.5-42.8-85.6c-8.9-12.2-18.1,5.3-18.1,5.3
			l22.9,35.5c14.5,0.6,32.8,45.8,32.8,45.8C484.5,233.8,498.1,233.9,498.1,233.9z"/>
		<path class="st1" d="M413.1,115.9L413.1,115.9c-1.2,1.7-2,3.1-2,3.1l22.9,35.5c1.5,0.1,3,0.6,4.6,1.5L413.1,115.9z"/>
	</g>
	<g>
		<g>
			<path class="st0" d="M463.1,266.8c0,0,32.5-55.4,23.1-61c-9.5-5.6-17.7,29.8-43.2,66c-25.5,36.3-38.8,48.8-33.4,56.1
				C415,335.2,447.2,296.9,463.1,266.8z"/>
			<g>
				<path class="st1" d="M481.5,219.5c-1.1,0.8-2.7,0.6-3.5-0.5c-0.8-1.1-0.6-2.7,0.5-3.5c1.1-0.8,2.7-0.6,3.5,0.5
					C482.9,217.1,482.6,218.7,481.5,219.5z"/>
				<path class="st1" d="M453.4,274c-1.1,0.8-2.7,0.6-3.5-0.5c-0.8-1.1-0.6-2.7,0.5-3.5c1.1-0.8,2.7-0.6,3.5,0.5
					C454.7,271.6,454.5,273.2,453.4,274z"/>
				<path class="st1" d="M436.8,297.5c-1.1,0.8-2.7,0.6-3.5-0.5c-0.8-1.1-0.6-2.7,0.5-3.5c1.1-0.8,2.7-0.6,3.5,0.5
					C438.2,295.1,437.9,296.7,436.8,297.5z"/>
				<path class="st1" d="M419.9,319.4c-1.1,0.8-2.7,0.6-3.5-0.5c-0.8-1.1-0.6-2.7,0.5-3.5c1.1-0.8,2.7-0.6,3.5,0.5
					C421.2,317,421,318.6,419.9,319.4z"/>
			</g>
		</g>
	</g>
	<g>
		<path class="st0" d="M0.3,234.8L0,234.1c16.2-4.4,26.4-33.8,26.4-33.8c6.8-29,34-73.5,42.8-85.6c8.9-12.2,18.1,5.3,18.1,5.3
			l-22.9,35.5c-14.5,0.6-32.8,45.8-32.8,45.8C13.9,234.7,0.3,234.8,0.3,234.8z"/>
		<path class="st1" d="M85.3,116.9L85.3,116.9c1.2,1.7,2,3.1,2,3.1l-22.9,35.5c-1.5,0.1-3,0.6-4.6,1.5L85.3,116.9z"/>
	</g>
	<g>
		<g>
			<path class="st0" d="M35.2,267.7c0,0-32.5-55.4-23.1-61c9.5-5.6,17.7,29.8,43.2,66c25.5,36.3,38.8,48.8,33.4,56.1
				C83.4,336.1,51.1,297.9,35.2,267.7z"/>
			<g>
				<path class="st1" d="M16.9,220.5c1.1,0.8,2.7,0.6,3.5-0.5c0.8-1.1,0.6-2.7-0.5-3.5c-1.1-0.8-2.7-0.6-3.5,0.5
					C15.5,218.1,15.8,219.6,16.9,220.5z"/>
				<path class="st1" d="M45,274.9c1.1,0.8,2.7,0.6,3.5-0.5c0.8-1.1,0.6-2.7-0.5-3.5c-1.1-0.8-2.7-0.6-3.5,0.5
					C43.7,272.5,43.9,274.1,45,274.9z"/>
				<path class="st1" d="M61.6,298.4c1.1,0.8,2.7,0.6,3.5-0.5c0.8-1.1,0.6-2.7-0.5-3.5c-1.1-0.8-2.7-0.6-3.5,0.5
					C60.2,296,60.5,297.6,61.6,298.4z"/>
				<path class="st1" d="M78.5,320.3c1.1,0.8,2.7,0.6,3.5-0.5c0.8-1.1,0.6-2.7-0.5-3.5c-1.1-0.8-2.7-0.6-3.5,0.5
					C77.2,317.9,77.4,319.5,78.5,320.3z"/>
			</g>
		</g>
	</g>
	<path class="st0" d="M345.5,10l0,2.3l0,2.2l0,21.9c0,0.9-0.7,1.6-1.6,1.6c-0.9,0-1.6-0.7-1.6-1.6l0-21.9l-4,0l0,21.9
		c0,0.9-0.7,1.6-1.6,1.6c-0.9,0-1.6-0.7-1.6-1.6l0-21.9l-4,0l0,21.9c0,0.9-0.7,1.6-1.6,1.6c-0.9,0-1.6-0.7-1.6-1.6l0-21.9l-4,0
		l0,21.9c0,0.9-0.7,1.6-1.6,1.6c-0.9,0-1.6-0.7-1.6-1.6l0-21.9l-4,0l0,21.9c0,0.9-0.7,1.6-1.6,1.6c-0.9,0-1.6-0.7-1.6-1.6l0-21.9
		l-4,0l0,21.9c0,0.9-0.7,1.6-1.6,1.6c-0.9,0-1.6-0.7-1.6-1.6l0-21.9l-4,0l0,21.9c0,0.9-0.7,1.6-1.6,1.6c-0.9,0-1.6-0.7-1.6-1.6
		l0-21.9l-4,0l0,21.9c0,0.9-0.7,1.6-1.6,1.6c-0.9,0-1.6-0.7-1.6-1.6l0-21.9h-4l0,21.9c0,0.9-0.7,1.6-1.6,1.6c-0.9,0-1.6-0.7-1.6-1.6
		l0-21.9l-4,0l0,21.9c0,0.9-0.7,1.6-1.6,1.6c-0.9,0-1.6-0.7-1.6-1.6l0-21.9h-4l0,21.9c0,0.9-0.7,1.6-1.6,1.6c-0.9,0-1.6-0.7-1.6-1.6
		l0-21.9h-4l0,21.9c0,0.9-0.7,1.6-1.6,1.6c-0.9,0-1.6-0.7-1.6-1.6l0-21.9l-4,0l0,21.9c0,0.9-0.7,1.6-1.6,1.6c-0.9,0-1.6-0.7-1.6-1.6
		l0-21.9l-4,0l0,21.9c0,0.9-0.7,1.6-1.6,1.6c-0.9,0-1.6-0.7-1.6-1.6l0-21.9l-4,0l0,21.9c0,0.9-0.7,1.6-1.6,1.6
		c-0.9,0-1.6-0.7-1.6-1.6l0-21.9l-4,0l0,21.9c0,0.9-0.7,1.6-1.6,1.6c-0.9,0-1.6-0.7-1.6-1.6l0-21.9l-4,0l0,21.9
		c0,0.9-0.7,1.6-1.6,1.6c-0.9,0-1.6-0.7-1.6-1.6l0-21.9h-4l0,21.9c0,0.9-0.7,1.6-1.6,1.6c-0.9,0-1.6-0.7-1.6-1.6l0-21.9h-4l0,21.9
		c0,0.9-0.7,1.6-1.6,1.6c-0.9,0-1.6-0.7-1.6-1.6l0-21.9l-4,0l0,21.9c0,0.9-0.7,1.6-1.6,1.6c-0.9,0-1.6-0.7-1.6-1.6l0-21.9l-4,0
		l0,21.9c0,0.9-0.7,1.6-1.6,1.6c-0.9,0-1.6-0.7-1.6-1.6l0-21.9l-4,0l0,21.9c0,0.9-0.7,1.6-1.6,1.6c-0.9,0-1.6-0.7-1.6-1.6l0-21.9
		l-4,0l0,21.9c0,0.9-0.7,1.6-1.6,1.6c-0.9,0-1.6-0.7-1.6-1.6l0-21.9l-4,0l0,21.9c0,0.9-0.7,1.6-1.6,1.6c-0.9,0-1.6-0.7-1.6-1.6
		l0-21.9h-4l0,21.9c0,0.9-0.7,1.6-1.6,1.6c-0.9,0-1.6-0.7-1.6-1.6l0-21.9h-4l0,21.9c0,0.9-0.7,1.6-1.6,1.6c-0.9,0-1.6-0.7-1.6-1.6
		l0-21.9l-4,0l0,21.9c0,0.9-0.7,1.6-1.6,1.6c-0.9,0-1.6-0.7-1.6-1.6l0-21.9l-4,0l0,21.9c0,0.9-0.7,1.6-1.6,1.6
		c-0.9,0-1.6-0.7-1.6-1.6l0-24.2c0,0,0,0,0-0.1l0-2.2c0-5.5,4.5-10,10-10L335.5,0C341,0,345.5,4.5,345.5,10z"/>
	<path class="st0" d="M235,376.4c-0.4,0.2-0.9,0.4-1.3,0.6C234.2,376.8,234.6,376.6,235,376.4z"/>
	<path class="st0" d="M280.7,377.2h4.2c0.6-0.1,1.2-0.2,1.9-0.3v-7.2h-4.6c-3,1.6-5.9,3.3-8.8,4.8
		C275.8,375.8,278,376.8,280.7,377.2z"/>
	<g>
		<path class="st0" d="M250.9,372.6c-0.5-1.7-2.3-2.7-4-2.2c-1.7,0.5-2.7,2.3-2.2,4c0.5,1.7,2.3,2.7,4,2.2
			C250.5,376,251.5,374.2,250.9,372.6z"/>
	</g>
	<g>
		<path class="st0" d="M233,377.4c-6.8,3.5-13.8,8.4-24.4,5.7c-4.9-1.2-10.9-0.4-16.4,2.9c-7.9,4.7-11.9,12.9-10.3,19.6
			c0,0.2,0.1,0.4,0.1,0.7c-4.3,1.3-9.2,0.5-12.1-3c-1.6-1.9-4.7,0.4-3.1,2.4c4.2,4.9,11,6.2,17,4.2c0.3,0.4,0.7,0.8,1,1.2
			c5,5.2,14.6,5.6,22.8,0.7c5-3,8.5-7.4,9.9-12c0,0,5.6-8.2,20.7-14.5c1.4-0.6,3.1-1.3,5-2.2C240.2,381.3,236.7,379.5,233,377.4z
			 M206.1,409c-7.3,4.4-15.9,3.4-19.3-2.2c-3.4-5.6-0.2-13.7,7.1-18.1c7.3-4.4,15.9-3.4,19.3,2.2C216.5,396.5,213.3,404.6,206.1,409
			z"/>
	</g>
	<path class="st0" d="M219.2,369.7h-7.1v7.5h7.4c2.5-0.7,4.9-1.9,7.3-3.2C224.3,372.6,221.7,371.1,219.2,369.7z"/>
	<g>
		<path class="st0" d="M266.7,370.8c0.2,0.1,0.3,0.2,0.5,0.2c23.8-12.7,51.9-29.4,51.4-34.5c0,0-36.6,17.5-61.5,29.4
			C261.9,368.4,265.4,370.1,266.7,370.8z"/>
	</g>
	<path class="st0" d="M243.1,365.6c-25-12.6-62.8-31.7-62.8-31.7c-0.6,5.7,33.9,26.5,58.4,39.8C238.6,370.4,240.3,367.3,243.1,365.6
		z"/>
	<path class="st0" d="M305.2,385.8c-5.4-3.4-11.4-4.4-16.3-3.3c-11.7,2.8-17.5-2.7-24.9-6.4c-1.1-0.5-3.5-1.8-6.9-3.5
		c0.2,1.8-0.2,3.6-1.1,5.2c-0.7,1.4-1.8,2.5-3.1,3.3c2.5,1.2,4.6,2.2,6.2,2.9c15,6.6,20.4,14.9,20.4,14.9c1.3,4.6,4.7,9,9.7,12.2
		c9.1,5.7,20.1,4.7,24.5-2.3C318.1,401.9,314.3,391.5,305.2,385.8z M310.2,406.7c-3.5,5.5-12.1,6.3-19.3,1.8
		c-7.2-4.5-10.2-12.7-6.7-18.2c3.5-5.5,12.1-6.3,19.3-1.8C310.7,393,313.7,401.2,310.2,406.7z"/>
</g>
</svg>
