<?xml version="1.0" encoding="utf-8"?>
<!-- Generator: Adobe Illustrator 21.0.0, SVG Export Plug-In . SVG Version: 6.00 Build 0)  -->
<svg version="1.1" id="Layer_1" xmlns="http://www.w3.org/2000/svg" xmlns:xlink="http://www.w3.org/1999/xlink" x="0px" y="0px"
	 viewBox="0 0 763.4 700.8" style="enable-background:new 0 0 763.4 700.8;" xml:space="preserve">
<style type="text/css">
	.st0{fill:#FFFFFF;}
	.st1{opacity:0.3;fill:#FFFFFF;enable-background:new    ;}
</style>
<g>
	<g>
		<rect x="208.2" y="133.5" transform="matrix(0.5 -0.866 0.866 0.5 3.9002 281.2519)" class="st0" width="74.6" height="7.5"/>
	</g>
	<rect x="210.1" y="182" transform="matrix(0.5 -0.866 0.866 0.5 -52.1127 281.2544)" class="st0" width="14.9" height="7.5"/>
	<rect x="266" y="85.1" transform="matrix(0.5 -0.866 0.866 0.5 59.7542 281.2979)" class="st0" width="14.9" height="7.5"/>
	<g>
		<rect x="344.6" y="54.7" class="st0" width="74.6" height="7.5"/>
	</g>
	<rect x="318.4" y="54.8" class="st0" width="14.9" height="7.5"/>
	<rect x="430.3" y="54.8" class="st0" width="14.9" height="7.5"/>
	<g>
		<rect x="514.5" y="99.9" transform="matrix(0.866 -0.5 0.5 0.866 0.833 277.5172)" class="st0" width="7.5" height="74.6"/>
	</g>
	<rect x="486.5" y="81.2" transform="matrix(0.866 -0.5 0.5 0.866 21.3638 256.9917)" class="st0" width="7.5" height="14.9"/>
	<rect x="542.4" y="178.1" transform="matrix(0.866 -0.5 0.5 0.866 -19.6173 297.9236)" class="st0" width="7.5" height="14.9"/>
	<g>
		<rect x="481" y="290.9" transform="matrix(0.5 -0.866 0.866 0.5 3.955 596.1871)" class="st0" width="74.6" height="7.5"/>
	</g>
	<rect x="538.8" y="242.4" transform="matrix(0.5 -0.866 0.866 0.5 59.9678 596.085)" class="st0" width="14.9" height="7.5"/>
	<rect x="482.8" y="339.4" transform="matrix(0.5 -0.866 0.866 0.5 -51.9986 596.1406)" class="st0" width="14.9" height="7.5"/>
	<rect x="430.5" y="369.6" class="st0" width="14.9" height="7.5"/>
	<rect x="318.6" y="369.6" class="st0" width="14.9" height="7.5"/>
	<g>
		<rect x="241.8" y="257.4" transform="matrix(0.866 -0.5 0.5 0.866 -114.4495 162.2555)" class="st0" width="7.5" height="74.6"/>
	</g>
	<rect x="269.9" y="335.7" transform="matrix(0.866 -0.5 0.5 0.866 -134.9072 182.7813)" class="st0" width="7.5" height="14.9"/>
	<rect x="213.9" y="238.8" transform="matrix(0.866 -0.5 0.5 0.866 -93.9623 141.8124)" class="st0" width="7.5" height="14.9"/>
	<g>
		<path class="st0" d="M310.3,62.1v-7.5h-21.5l-10.9,18.8l6.5,3.8c0,0,2.2-3.8,4.3-7.5c1.1-1.9,2.2-3.8,3-5.2c0.4-0.7,0.7-1.3,1-1.7
			c0.1-0.2,0.2-0.4,0.3-0.5c0-0.1,0.1-0.1,0.1-0.1l0,0l0,0l0,0l0,0l0,0l0,0l0,0h17.2V62.1z"/>
	</g>
	<g>
		<path class="st0" d="M479.3,77l6.5-3.8L475,54.7h-21.7v7.5c0,0,4.3,0,8.7,0c2.2,0,4.3,0,6,0c0.8,0,1.5,0,2,0c0.2,0,0.4,0,0.6,0
			c0.1,0,0.1,0,0.1,0l0,0l0,0l0,0l0,0l0,0l0,0l0,0L479.3,77z"/>
	</g>
	<g>
		<path class="st0" d="M550.9,230.8l6.5,3.8l10.8-18.6l-10.9-18.8l-6.5,3.8c0,0,2.2,3.8,4.3,7.5c1.1,1.9,2.2,3.8,3,5.2
			c0.4,0.7,0.7,1.3,1,1.7c0.1,0.2,0.2,0.4,0.3,0.5c0,0.1,0.1,0.1,0.1,0.1l0,0l0,0l0,0l0,0l0,0l0,0l0,0L550.9,230.8z"/>
	</g>
	<g>
		<path class="st0" d="M453.5,369.7v7.5H475l10.9-18.8l-6.5-3.8c0,0-2.2,3.8-4.3,7.5c-1.1,1.9-2.2,3.8-3,5.2c-0.4,0.7-0.7,1.3-1,1.7
			c-0.1,0.2-0.2,0.4-0.3,0.5c0,0.1-0.1,0.1-0.1,0.1l0,0l0,0l0,0l0,0l0,0l0,0l0,0L453.5,369.7L453.5,369.7z"/>
	</g>
	<g>
		<path class="st0" d="M284.5,354.8l-6.5,3.8l10.8,18.6h21.7v-7.5c0,0-4.3,0-8.7,0c-2.2,0-4.3,0-6,0c-0.8,0-1.5,0-2,0
			c-0.2,0-0.4,0-0.6,0c-0.1,0-0.1,0-0.1,0l0,0l0,0l0,0l0,0l0,0l0,0l0,0L284.5,354.8z"/>
	</g>
	<g>
		<path class="st0" d="M212.9,201l-6.5-3.8l-10.8,18.6l10.9,18.8l6.5-3.8c0,0-2.2-3.8-4.3-7.5c-1.1-1.9-2.2-3.8-3-5.2
			c-0.4-0.7-0.7-1.3-1-1.7c-0.1-0.2-0.2-0.4-0.3-0.5c0-0.1-0.1-0.1-0.1-0.1l0,0l0,0l0,0l0,0l0,0l0,0l0,0L212.9,201z"/>
	</g>
	<g>
		<g>
			<path class="st0" d="M462.8,124.3c0-0.4-0.5-0.6-0.8-0.3c-2.5,2.8-5.6,4.8-9.3,5.5c0.5-2.2,1.2-4.3,2.1-6.4
				c0.1-0.4-0.3-0.7-0.7-0.5c-2.8,2-5.7,3.3-9.2,3.2c-3.3,0-6.4-1.5-9.3-3c-5.5-2.9-10.7-6.5-16-9.7c-5.2-3.1-10.6-6-16.3-8
				c-2.9-1.1-5.9-1.6-8.9-2.4c-11.8-3.3-25-1.6-35.7,4c-6.9,3.6-12.7,9-17.4,15.1c-5.2,2.3-9.6,5.8-12.7,10.8
				c-3.4,5.5-4.7,12-5.3,18.3c-0.6,6.8-0.3,13.6-0.1,20.4c0.2,5.4,0.6,11.2-0.9,16.5c-0.1,0.4,0.5,0.8,0.7,0.4
				c6.6-8.1,12.1-17.5,15.8-27.5c0.1,0,0.2-0.1,0.3-0.2c3.7-8.2,10.5-13.7,19.6-14.6c4.3-0.4,8.9,0.1,13,1.5c1.9,0.6,4.6,2.1,6.6,3
				c5.8,2.4,11.7,4.4,17.9,5.9c7.6,1.9,15.6,3.4,23.4,3.2c3.7,10.4,9.4,20.2,16.2,28.6c0.3,0.4,0.9,0,0.7-0.4
				c-1.4-5.3-1-11.1-0.9-16.5c0.2-5,0.4-10,0.2-15c6-2.6,11.7-6.7,16.3-11.2C458.2,139.4,461.8,132.2,462.8,124.3z"/>
		</g>
		<g>
			<path class="st0" d="M436.6,204.8c2.5,24.8-7.4,40.6-7.4,40.6l0.1-14.8c0,0-6.2,20-18.1,20c-16.2,0-31.8-6.2-31.8-6.2
				s-14.9,6.2-31.1,6.2c-11.9,0-18.2-20.1-18.2-20.1l0.1,14.9c0,0-9.9-15.8-7.4-40.6c0,0-13.9,43.2,2.8,83.2l2.5-6.8
				c0,0-2.5,11.6,17.9,23.2l0.3-7.1c0,0-2.1,12.6,33.4,29c35.6-16.4,31.8-29,31.8-29l1.1,7.1c20.4-11.6,18.7-23.2,18.7-23.2l2.5,6.8
				C450.5,248,436.6,204.8,436.6,204.8z M400.1,252.8c-2.4,9.6-20.4,11.6-20.4,11.6s-18-2-20.4-11.6c-1.9-7.6-2.2,5.5-2.2,5.5
				l22.6-8.4l22.6,8.4C402.3,258.3,402,245.2,400.1,252.8z"/>
		</g>
		<g>
			<path class="st0" d="M422.6,244.1c0.1-0.7,0.1-1.4-0.1-2.1c-0.1-0.2-0.4-0.2-0.4,0c-1.2,4.3-5,5.1-8.7,4.5c0.8,0,1.5-0.2,2-0.7
				c0.2-0.2-0.1-0.7-0.4-0.5c-0.8,0.6-3.5,0-4.4-0.1c-0.6-0.1-1.2-0.1-1.8-0.2c-3.8-1.9-6.8-5.1-10.8-6.7c-3.6-1.4-9-2.3-12.5-0.3
				c-2.3,1.3-4.3,3.9-5.1,6.5c-0.1,0.1-0.2,0.2-0.2,0.3c-0.3,0.6-0.5,1.2-0.6,1.8c-0.1-0.6-0.3-1.2-0.6-1.8c0-0.1-0.1-0.2-0.2-0.3
				c-0.7-2.6-2.8-5.2-5.1-6.5c-3.5-2-8.9-1-12.5,0.3c-4.1,1.5-7,4.8-10.8,6.7c-0.6,0-1.2,0.1-1.8,0.2c-0.9,0.1-3.6,0.7-4.4,0.1
				c-0.3-0.2-0.6,0.2-0.4,0.5c0.5,0.5,1.3,0.7,2,0.7c-3.7,0.6-7.6-0.2-8.7-4.5c-0.1-0.2-0.4-0.2-0.4,0c-0.2,0.7-0.2,1.5-0.1,2.1
				c-0.8,3.6,3,7.9,5.5,9.7c4.6,3.3,10.2,4.2,15.7,4.6c5.9,0.5,19.9-1.4,21.8-8.5c1.9,7.1,15.9,9,21.8,8.5
				c5.5-0.4,11.1-1.3,15.7-4.6C419.6,252,423.4,247.7,422.6,244.1z"/>
		</g>
		<g>
			<g id="XMLID_100_">
				<path class="st0" d="M369.4,182.7c-1.1-0.2-2.3-0.4-3.4-0.7c0.2,0.3,0.2,0.6,0.1,0.9c-1.6-0.8-3.4-1.1-5.2-1
					c0.2,0.2,0.3,0.4,0.4,0.7c-3.2-1.1-6.7-1.7-10.1-1.7c0.2,0.1,0.4,0.2,0.6,0.4c-4.5,0-8.9,2.6-10.9,6.5c2,0,3.7-1.2,5.7-1.7
					c4.3-1.1,8.6,1.4,12.9,2.5c3.8,1,7.8,0.7,11.8,0.5L369.4,182.7z"/>
			</g>
		</g>
		<g>
			<g id="XMLID_82_">
				<path class="st0" d="M391.4,183.1c1.1-0.2,2.2-0.4,3.3-0.6c-0.2,0.3-0.2,0.6-0.1,0.9c1.5-0.7,3.3-1.1,5-1
					c-0.2,0.2-0.3,0.4-0.4,0.7c3.1-1.1,6.3-1.6,9.6-1.6c-0.2,0.1-0.4,0.2-0.6,0.4c4.3,0,8.5,2.5,10.4,6.2c-1.9,0-3.6-1.2-5.4-1.6
					c-4.1-1.1-8.2,1.4-12.3,2.4c-3.6,0.9-7.5,0.7-11.2,0.5L391.4,183.1z"/>
			</g>
		</g>
	</g>
	<g>
		<path class="st0" d="M262.6,214.5v2.5h-6.2v9h7.6v2.6h-10.4v-25.2H264v2.6h-7.6v8.6h6.2V214.5z"/>
		<path class="st0" d="M277.5,209.4v0.7h-2.7v-0.8c0-2.3-0.9-3.6-2.9-3.6s-2.9,1.3-2.9,3.6c0,5.7,8.5,6.2,8.5,13.3
			c0,3.8-1.8,6.3-5.7,6.3s-5.7-2.5-5.7-6.3V221h2.6v1.6c0,2.3,0.9,3.6,3,3.6s3-1.3,3-3.6c0-5.6-8.4-6.2-8.4-13.2
			c0-3.9,1.8-6.3,5.6-6.3S277.5,205.6,277.5,209.4z"/>
		<path class="st0" d="M283.6,228.5v-22.6H279v-2.6h12.1v2.6h-4.6v22.6H283.6z"/>
		<path class="st0" d="M293.6,225v3.5h-2.7V225H293.6z"/>
	</g>
	<g>
		<path class="st0" d="M471.3,209.4c0,7.6-8.5,10.3-8.6,16.1v0.4h8.3v2.6h-11v-2.2c0-8.1,8.5-9.7,8.5-16.8c0-2.6-0.9-4-3-4
			s-3,1.5-3,3.7v2.2H460v-2.1c0-3.9,1.8-6.4,5.7-6.4C469.5,203.1,471.3,205.6,471.3,209.4z"/>
		<path class="st0" d="M473.7,209.4c0-3.9,1.9-6.3,5.8-6.3s5.8,2.5,5.8,6.3v13c0,3.9-1.9,6.4-5.8,6.4s-5.8-2.5-5.8-6.4V209.4z
			 M476.4,222.6c0,2.3,1,3.6,3,3.6c2.1,0,3-1.4,3-3.6v-13.3c0-2.3-0.9-3.7-3-3.7c-2,0-3,1.4-3,3.7V222.6z"/>
		<path class="st0" d="M493,207.9c-0.9,0.6-2.2,1-3.5,1.1v-2.3c2.7-0.1,3.7-1.6,4.3-3.3h1.9v25.2H493V207.9z"/>
		<path class="st0" d="M511.4,209.4v0.5h-2.6v-0.6c0-2.3-0.9-3.6-3-3.6s-3.1,1.4-3.1,4.1v5.7c0.7-1.7,2.1-2.7,4.1-2.7
			c3.2,0,4.7,2.3,4.7,6v3.8c0,3.9-1.9,6.4-5.8,6.4s-5.8-2.5-5.8-6.4v-12.9c0-4,1.8-6.5,5.8-6.5C509.6,203.1,511.4,205.5,511.4,209.4
			z M502.7,218.8v3.8c0,2.3,0.9,3.6,3,3.6c2,0,3-1.4,3-3.6v-3.8c0-2.3-1-3.6-3-3.6C503.6,215.2,502.7,216.5,502.7,218.8z"/>
	</g>
	<rect x="459.5" y="195.2" class="st0" width="52.7" height="1"/>
	<rect x="459.5" y="235.2" class="st0" width="52.7" height="1"/>
	<rect x="246.5" y="195.4" class="st0" width="52.7" height="1"/>
	<rect x="246.5" y="235.4" class="st0" width="52.7" height="1"/>
	<g>
		<path class="st0" d="M630.6,233.9l0.3-0.7c-16.2-4.4-26.4-33.8-26.4-33.8c-6.8-29-34-73.5-42.8-85.6c-8.9-12.2-18.1,5.3-18.1,5.3
			l22.9,35.5c14.5,0.6,32.8,45.8,32.8,45.8C617,233.8,630.6,233.9,630.6,233.9z"/>
		<path class="st1" d="M545.6,115.9L545.6,115.9c-1.2,1.7-2,3.1-2,3.1l22.9,35.5c1.5,0.1,3,0.6,4.6,1.5L545.6,115.9z"/>
	</g>
	<g>
		<g>
			<path class="st0" d="M595.6,266.8c0,0,32.5-55.4,23.1-61c-9.5-5.6-17.7,29.8-43.2,66c-25.5,36.3-38.8,48.8-33.4,56.1
				C547.5,335.2,579.7,296.9,595.6,266.8z"/>
			<g>
				<path class="st1" d="M614,219.5c-1.1,0.8-2.7,0.6-3.5-0.5s-0.6-2.7,0.5-3.5s2.7-0.6,3.5,0.5C615.4,217.1,615.1,218.7,614,219.5z
					"/>
				<path class="st1" d="M585.9,274c-1.1,0.8-2.7,0.6-3.5-0.5s-0.6-2.7,0.5-3.5s2.7-0.6,3.5,0.5S587,273.2,585.9,274z"/>
				<path class="st1" d="M569.3,297.5c-1.1,0.8-2.7,0.6-3.5-0.5s-0.6-2.7,0.5-3.5s2.7-0.6,3.5,0.5
					C570.7,295.1,570.4,296.7,569.3,297.5z"/>
				<path class="st1" d="M552.4,319.4c-1.1,0.8-2.7,0.6-3.5-0.5s-0.6-2.7,0.5-3.5s2.7-0.6,3.5,0.5S553.5,318.6,552.4,319.4z"/>
			</g>
		</g>
	</g>
	<g>
		<path class="st0" d="M132.8,234.8l-0.3-0.7c16.2-4.4,26.4-33.8,26.4-33.8c6.8-29,34-73.5,42.8-85.6c8.9-12.2,18.1,5.3,18.1,5.3
			l-22.9,35.5c-14.5,0.6-32.8,45.8-32.8,45.8C146.4,234.7,132.8,234.8,132.8,234.8z"/>
		<path class="st1" d="M217.8,116.9L217.8,116.9c1.2,1.7,2,3.1,2,3.1l-22.9,35.5c-1.5,0.1-3,0.6-4.6,1.5L217.8,116.9z"/>
	</g>
	<g>
		<g>
			<path class="st0" d="M167.7,267.7c0,0-32.5-55.4-23.1-61c9.5-5.6,17.7,29.8,43.2,66c25.5,36.3,38.8,48.8,33.4,56.1
				C215.9,336.1,183.6,297.9,167.7,267.7z"/>
			<g>
				<path class="st1" d="M149.4,220.5c1.1,0.8,2.7,0.6,3.5-0.5s0.6-2.7-0.5-3.5s-2.7-0.6-3.5,0.5C148,218.1,148.3,219.6,149.4,220.5
					z"/>
				<path class="st1" d="M177.5,274.9c1.1,0.8,2.7,0.6,3.5-0.5s0.6-2.7-0.5-3.5s-2.7-0.6-3.5,0.5S176.4,274.1,177.5,274.9z"/>
				<path class="st1" d="M194.1,298.4c1.1,0.8,2.7,0.6,3.5-0.5s0.6-2.7-0.5-3.5s-2.7-0.6-3.5,0.5C192.7,296,193,297.6,194.1,298.4z"
					/>
				<path class="st1" d="M211,320.3c1.1,0.8,2.7,0.6,3.5-0.5s0.6-2.7-0.5-3.5s-2.7-0.6-3.5,0.5S209.9,319.5,211,320.3z"/>
			</g>
		</g>
	</g>
	<path class="st0" d="M478,10v2.3v2.2v21.9c0,0.9-0.7,1.6-1.6,1.6s-1.6-0.7-1.6-1.6V14.5h-4v21.9c0,0.9-0.7,1.6-1.6,1.6
		s-1.6-0.7-1.6-1.6V14.5h-4v21.9c0,0.9-0.7,1.6-1.6,1.6s-1.6-0.7-1.6-1.6V14.5h-4v21.9c0,0.9-0.7,1.6-1.6,1.6s-1.6-0.7-1.6-1.6V14.5
		h-4v21.9c0,0.9-0.7,1.6-1.6,1.6s-1.6-0.7-1.6-1.6V14.5h-4v21.9c0,0.9-0.7,1.6-1.6,1.6s-1.6-0.7-1.6-1.6V14.5h-4v21.9
		c0,0.9-0.7,1.6-1.6,1.6s-1.6-0.7-1.6-1.6V14.5h-4v21.9c0,0.9-0.7,1.6-1.6,1.6s-1.6-0.7-1.6-1.6V14.5h-4v21.9c0,0.9-0.7,1.6-1.6,1.6
		s-1.6-0.7-1.6-1.6V14.5h-4v21.9c0,0.9-0.7,1.6-1.6,1.6s-1.6-0.7-1.6-1.6V14.5h-4v21.9c0,0.9-0.7,1.6-1.6,1.6s-1.6-0.7-1.6-1.6V14.5
		h-4v21.9c0,0.9-0.7,1.6-1.6,1.6s-1.6-0.7-1.6-1.6V14.5h-4v21.9c0,0.9-0.7,1.6-1.6,1.6s-1.6-0.7-1.6-1.6V14.5h-4v21.9
		c0,0.9-0.7,1.6-1.6,1.6s-1.6-0.7-1.6-1.6V14.5h-4v21.9c0,0.9-0.7,1.6-1.6,1.6s-1.6-0.7-1.6-1.6V14.5h-4v21.9c0,0.9-0.7,1.6-1.6,1.6
		s-1.6-0.7-1.6-1.6V14.5h-4v21.9c0,0.9-0.7,1.6-1.6,1.6s-1.6-0.7-1.6-1.6V14.5h-4v21.9c0,0.9-0.7,1.6-1.6,1.6s-1.6-0.7-1.6-1.6V14.5
		h-4v21.9c0,0.9-0.7,1.6-1.6,1.6s-1.6-0.7-1.6-1.6V14.5h-4v21.9c0,0.9-0.7,1.6-1.6,1.6s-1.6-0.7-1.6-1.6V14.5h-4v21.9
		c0,0.9-0.7,1.6-1.6,1.6s-1.6-0.7-1.6-1.6V14.5h-4v21.9c0,0.9-0.7,1.6-1.6,1.6s-1.6-0.7-1.6-1.6V14.5h-4v21.9c0,0.9-0.7,1.6-1.6,1.6
		s-1.6-0.7-1.6-1.6V14.5h-4v21.9c0,0.9-0.7,1.6-1.6,1.6s-1.6-0.7-1.6-1.6V14.5h-4v21.9c0,0.9-0.7,1.6-1.6,1.6s-1.6-0.7-1.6-1.6V14.5
		h-4v21.9c0,0.9-0.7,1.6-1.6,1.6s-1.6-0.7-1.6-1.6V14.5h-4v21.9c0,0.9-0.7,1.6-1.6,1.6s-1.6-0.7-1.6-1.6V14.5h-4v21.9
		c0,0.9-0.7,1.6-1.6,1.6s-1.6-0.7-1.6-1.6V12.2c0,0,0,0,0-0.1V9.9c0-5.5,4.5-10,10-10L468,0C473.5,0,478,4.5,478,10z"/>
	<path class="st0" d="M367.5,376.4c-0.4,0.2-0.9,0.4-1.3,0.6C366.7,376.8,367.1,376.6,367.5,376.4z"/>
	<path class="st0" d="M413.2,377.2h4.2c0.6-0.1,1.2-0.2,1.9-0.3v-7.2h-4.6c-3,1.6-5.9,3.3-8.8,4.8
		C408.3,375.8,410.5,376.8,413.2,377.2z"/>
	<g>
		<path class="st0" d="M383.4,372.6c-0.5-1.7-2.3-2.7-4-2.2s-2.7,2.3-2.2,4s2.3,2.7,4,2.2C383,376,384,374.2,383.4,372.6z"/>
	</g>
	<g>
		<path class="st0" d="M365.5,377.4c-6.8,3.5-13.8,8.4-24.4,5.7c-4.9-1.2-10.9-0.4-16.4,2.9c-7.9,4.7-11.9,12.9-10.3,19.6
			c0,0.2,0.1,0.4,0.1,0.7c-4.3,1.3-9.2,0.5-12.1-3c-1.6-1.9-4.7,0.4-3.1,2.4c4.2,4.9,11,6.2,17,4.2c0.3,0.4,0.7,0.8,1,1.2
			c5,5.2,14.6,5.6,22.8,0.7c5-3,8.5-7.4,9.9-12c0,0,5.6-8.2,20.7-14.5c1.4-0.6,3.1-1.3,5-2.2C372.7,381.3,369.2,379.5,365.5,377.4z
			 M338.6,409c-7.3,4.4-15.9,3.4-19.3-2.2s-0.2-13.7,7.1-18.1c7.3-4.4,15.9-3.4,19.3,2.2C349,396.5,345.8,404.6,338.6,409z"/>
	</g>
	<path class="st0" d="M351.7,369.7h-7.1v7.5h7.4c2.5-0.7,4.9-1.9,7.3-3.2C356.8,372.6,354.2,371.1,351.7,369.7z"/>
	<g>
		<path class="st0" d="M399.2,370.8c0.2,0.1,0.3,0.2,0.5,0.2c23.8-12.7,51.9-29.4,51.4-34.5c0,0-36.6,17.5-61.5,29.4
			C394.4,368.4,397.9,370.1,399.2,370.8z"/>
	</g>
	<path class="st0" d="M380.2,416.7c0.1,0,0.1,0,0.2,0s0.1,0,0.2,0C380.4,416.7,380.3,416.7,380.2,416.7z"/>
	<path class="st0" d="M377.5,414.9c-0.1-0.2-0.2-0.4-0.2-0.6C377.4,414.6,377.4,414.8,377.5,414.9z"/>
	<path class="st0" d="M380,416.6c-0.1,0-0.3-0.1-0.4-0.1C379.7,416.6,379.8,416.6,380,416.6z"/>
	<path class="st0" d="M377.6,415.1c0.1,0.1,0.1,0.2,0.2,0.3C377.8,415.3,377.7,415.2,377.6,415.1z"/>
	<path class="st0" d="M378.9,416.3c0.2,0.1,0.3,0.2,0.5,0.2C379.2,416.5,379,416.4,378.9,416.3z"/>
	<path class="st0" d="M378.4,416c0.1,0.1,0.2,0.2,0.4,0.2C378.6,416.2,378.5,416.1,378.4,416z"/>
	<path class="st0" d="M378.3,415.9c-0.1-0.1-0.2-0.2-0.3-0.3C378.1,415.7,378.2,415.8,378.3,415.9z"/>
	<path class="st0" d="M380,410.3c-0.2,0-0.4,0.1-0.6,0.1C379.6,410.3,379.8,410.3,380,410.3z"/>
	<path class="st0" d="M375.6,365.6c-25-12.6-62.8-31.7-62.8-31.7c-0.6,5.7,33.9,26.5,58.4,39.8C371.1,370.4,372.8,367.3,375.6,365.6
		z"/>
	<path class="st0" d="M383.1,411.8c-0.1-0.1-0.1-0.2-0.2-0.3C383,411.6,383.1,411.7,383.1,411.8z"/>
	<path class="st0" d="M380.2,410.3c0.1,0,0.3,0,0.4,0c-0.1,0-0.1,0-0.2,0S380.3,410.3,380.2,410.3z"/>
	<path class="st0" d="M437.7,385.8c-5.4-3.4-11.4-4.4-16.3-3.3c-11.7,2.8-17.5-2.7-24.9-6.4c-1.1-0.5-3.5-1.8-6.9-3.5
		c0.2,1.8-0.2,3.6-1.1,5.2c-0.7,1.4-1.8,2.5-3.1,3.3c2.5,1.2,4.6,2.2,6.2,2.9c15,6.6,20.4,14.9,20.4,14.9c1.3,4.6,4.7,9,9.7,12.2
		c9.1,5.7,20.1,4.7,24.5-2.3C450.6,401.9,446.8,391.5,437.7,385.8z M442.7,406.7c-3.5,5.5-12.1,6.3-19.3,1.8
		c-7.2-4.5-10.2-12.7-6.7-18.2s12.1-6.3,19.3-1.8C443.2,393,446.2,401.2,442.7,406.7z"/>
	<path class="st0" d="M382.5,411.1c0.1,0.1,0.2,0.2,0.3,0.3C382.7,411.3,382.6,411.2,382.5,411.1z"/>
	<path class="st0" d="M382.3,410.9c-0.1-0.1-0.2-0.2-0.4-0.2C382.1,410.8,382.2,410.9,382.3,410.9z"/>
	<path class="st0" d="M381.2,410.4c-0.1,0-0.3-0.1-0.4-0.1C380.9,410.3,381.1,410.3,381.2,410.4z"/>
	<path class="st0" d="M381.9,410.6c-0.2-0.1-0.3-0.2-0.5-0.2C381.5,410.5,381.7,410.6,381.9,410.6z"/>
	<g>
		<path class="st0" d="M213,640.3c-2.3,4.8-8.6,8.4-12,6.4c-1.7-1-2.3-3.8-2.7-6.7C203.4,649.6,208.2,640.9,213,640.3z"/>
		<path class="st0" d="M636.9,639.2c4.2,10.3,8.9,1.8,13.6,0.9c-1.6,4.8-8.3,8.4-12,6.6C635.6,645.2,634.9,642.9,636.9,639.2z"/>
		<path class="st0" d="M261.7,647.7c0.1-6.4,1.5-8.1,6.5-7.9C266.1,642.3,264.2,644.6,261.7,647.7z"/>
		<path class="st0" d="M340.8,648.1c1.3-7.4,2.6-8.7,7.2-7.9C345.8,642.6,343.8,644.8,340.8,648.1z"/>
		<path class="st0" d="M498.9,573.4c-5.7,1.5-9.8,5.2-13.8,9.7c5.7,5.7,11.2,11.1,17.3,17.3c-5.4,1-10.2,0.1-16,0.6
			c1.6-1.8,2.4-2.7,3.3-3.6c-3.2-3-5.5-6.5-9.7-9.2c0,2.7,0.3,4.8-0.1,6.7c-0.6,3,2.9,2.7,3.6,4.6c-2.9,1.6-9,1.8-14,0.7
			c0.3-0.4,0.6-1.1,0.9-1.1c2.7-0.6,3.1-2.4,3.1-4.8c-0.1-4.9-0.2-9.8,0.1-14.7c0.1-2.8-0.5-4.9-3.5-6.1c4.3-1.5,8.4-1.4,13.4-0.5
			c-5.3,3.1-3,7.2-3.5,12c3.5-3.6,6.2-6.4,9-9.2c-1.1-0.9-1.7-1.4-2.5-2.1c3.8-1.8,9-1.8,12.4-0.2c4.4-2.2,9.1-1,13.6-0.8
			c0,0,0.1,0.3,0.2,0.7c-0.7,0.6-1.5,1.2-2.4,1.9c2.1,3.1,4,6,6.2,9.3c2.3-3.4,4.2-6.3,6.3-9.4c-1.5-0.7-2.3-1.1-3.6-1.7
			c4.3-1.5,6.7-1.5,10-0.4c-3.2,3.7-6.2,7.6-9.7,11.2c-3.3,3.4-1.4,7.3-1.8,11c-0.3,3.1,3.3,1.7,4.1,3.9c-0.7,0.5-1.3,1.4-1.9,1.5
			c-4.2,0.1-8.4,0.1-13.8,0.1c2.1-1.8,4.2-2.7,4.3-3.9c0.3-2.9,0.8-6.6-0.6-8.8C506.7,582.9,504,577.1,498.9,573.4z"/>
		<path class="st0" d="M467.7,507.5c0.9,2.5,2,4.8,2.7,7.1c3.2,12.1,20.1,19.9,29.9,17.9c5.2-1.1,8-3.8,9.2-8.6
			c1.9-7.8,0.1-14.4-6.1-18.9c-2.8-2-5.9-3.8-9-5.5c-5.5-3.1-11.2-5.9-16.7-9.1c-2.7-1.6-5.3-3.6-7.5-5.7c-9.8-9.5-11.8-24.6-4.2-35
			c5.3-7.3,12.8-11.7,21.4-14c7.2-1.9,14.5-1.4,21.8-0.5c2.3,0.3,4.5,1,6.8,1.7c2.6,0.8,4.2,2.6,4.3,5.6c0.1,3.7,0.3,7.4,0.6,11.1
			c0.4,4.3-2,6.5-5.3,8.2c-1.8,0.9-3.2,0.7-4.1-1.3c-1.1-2.3-2-4.6-3.3-6.8c-6.1-9.9-13.5-11.2-23.1-9.8c-1.2,0.2-2.5,1-3.4,1.9
			c-5.3,5.5-5.1,16.3,2.4,20.6c3.5,2,7,3.8,10.6,5.6c8,3.8,16,7.4,22.9,13.2c10.7,9.1,12.7,23.2,7.8,35.4c-3.3,8-10,12.4-17,16.3
			c-6.7,3.8-14.2,4.8-21.7,4.6c-6.3-0.2-12.7-0.6-18.8-2.1c-8.4-2.2-9.4-4.8-9.3-12.6c0-2.7,0.6-5.4,0.5-8.1
			C458.5,513,461.2,509.4,467.7,507.5z"/>
		<path class="st0" d="M532.5,471.2c3.8-4.2,5.4-5.1,8.7-5.1c7.3,0,14.6,0,21.9,0c1,0,2-0.1,3,0.2c0.7,0.2,1.4,0.8,1.7,1.5
			c0.2,0.4-0.3,1.4-0.7,1.7c-1.6,1.1-3.2,2.5-5.1,3.1c-2.4,0.8-3,2.2-2.9,4.5c0.1,5.6,0,11.1,0.1,16.7c0.1,3.8,0.7,4.5,4.4,4.5
			c6.7,0,13.3-0.1,20-0.2c1.5,0,2.9-0.4,4.9-0.7c0-6.5,0.1-12.9,0-19.2c0-2.3-1.3-3.5-3.6-4.2c-1.7-0.5-4.1,0.1-5.2-2.6
			c3-3.1,6.2-5.2,10.8-5c6,0.2,12-0.2,17.9-0.3c1.5,0,3-0.2,4.5,0c0.8,0.1,1.6,0.8,3.1,1.6c-2.9,1.8-4.9,3.6-7.3,4.4
			c-2.3,0.8-2.8,1.8-2.7,4c0.1,4.9,0,9.8,0,14.7c0,11.3,0,22.6,0.1,33.9c0,5.3,0.3,5.7,5.1,7.1c0.8,0.2,1.7,0.3,2.4,0.7
			c1.5,0.7,1.8,2.3,0.6,3.3c-2.2,1.7-4.4,3.5-7.5,3.4c-8.5-0.2-17-0.1-25.5-0.1c-0.8,0-1.7,0-2.5-0.2c-1.6-0.5-2.1-2.1-0.8-3
			c2.1-1.5,4.4-3.1,6.8-3.9c3.5-1.2,3.7-0.9,3.7-4.6c0.1-5.7,0.1-11.5,0-17.2c0-3.9-0.4-4.2-4.5-4.3c-4.5-0.1-9,0-13.5,0
			c-3.5,0-6.9,0-10.9,0c0,6.7,0,12.9,0,19.1c0,5.2,0.6,5.9,5.8,7c0.5,0.1,1,0.1,1.5,0.3c2.1,0.7,2.6,2.5,0.9,3.7
			c-2.2,1.7-4.5,3.3-7.6,3.2c-8.7-0.2-17.3,0-26-0.1c-1,0-2.1-0.4-3.3-0.7c0.6-2.9,2.9-3.7,4.6-4.7c1.8-1.1,3.9-1.6,5.8-2.3
			c0.1-0.8,0.3-1.3,0.3-1.8c0-17,0-34.1,0.1-51.1c0-2.9-1.4-4.3-3.8-5.1C536.3,472.7,534.5,472,532.5,471.2z"/>
		<path class="st0" d="M347.9,504.2c0,7.9-0.1,14.6,0,21.4c0.1,3.5,1.2,4.8,4.8,5.3c2.7,0.4,5.6,0.1,8.4,0c2.9-0.1,5-1.3,6.3-4.1
			c1.4-2.9,3.5-5.3,6.5-6.8c1.1-0.5,2.4-0.7,3.5-1c0.2,1.3,0.6,2.6,0.5,3.8c-0.4,2.7-1.6,5.3-1.6,7.9c0,4.1-2.5,6.1-5.6,7.5
			c-1.6,0.7-3.5,0.8-5.3,0.8c-14.3,0-28.6,0-43,0c-0.5,0-1.1,0.2-1.5,0c-1-0.5-2.1-0.9-2.7-1.7c-0.2-0.3,0.6-1.8,1.2-2.4
			c2-1.7,4.1-3.5,7-3.4c2.4,0.1,3.2-1.2,3.1-3.4c-0.1-2.4,0-4.7,0-7.1c0-13.5,0-27,0-40.5c0-6.7-0.2-7-6.6-8.4
			c-0.6-0.1-1.4-0.2-1.9-0.5c-1.2-0.7-1.7-1.8-0.3-2.8c2.3-1.6,4.5-3.4,7.6-3.3c13.6,0.3,27.3,0.5,40.9,0.7c1.3,0,2.7,0.1,4,0.2
			c1.7,0.2,2.7,1.1,2.7,3c0,3-0.1,6.1,0.1,9.1c0.2,2.7-0.7,4.5-3.1,5.7c-1,0.5-1.9,1.1-3.2,1.9c-1-1.5-2.1-2.6-2.5-3.9
			c-1.2-4.3-4.3-6.3-8.2-7.2c-3.5-0.8-7.1-1.1-11.1-1.7c0,7.4,0,14.1,0,20.8c0,2.4,1.3,3.3,3.5,3.3c1,0,2-0.1,3,0
			c3.2,0.2,5.8-0.5,7-4.1c1-3,4.1-3.8,6.4-5.3c0.3-0.2,1.7,0.6,2.1,1.3c0.4,0.6,0.2,1.6,0.2,2.5c-0.1,5.7-0.3,11.5-0.2,17.2
			c0,2.6-1.1,4-3.1,5.3c-3.7,2.4-4.7,2.2-5.8-2.1c-0.7-2.5-1.4-5-4.2-5.8C354.1,505.6,351.4,505,347.9,504.2z"/>
		<path class="st0" d="M225.9,570.4c0,8.1,0,15.1,0,22.2c0,2.6,1.4,4,3.7,4.8c1,0.3,2,0.8,3.8,1.6c-1.7,1-2.6,2-3.6,2
			c-4.8,0-9.7,0.9-15.2-0.9c1.2-1,1.8-1.8,2.4-1.9c4-0.4,4-3.2,4-6.2c0-6.7,0.1-13.5,0.2-20.2c0.1-5.9,0.1-5.9-5-8.5
			c-0.1-0.1-0.1-0.3-0.2-0.5c0.5-1.9,2.2-1.7,3.6-1.8c2-0.2,4-0.1,6-0.3c3.2-0.3,5.7,0.7,7.8,3.3c4.9,6.1,10.1,12.1,15.2,18.1
			c0.9,1.1,2,2.1,3.8,3.9c0-5.9,0.1-10.6,0-15.3c-0.1-6.7,0.3-5.5-5.2-7.1c-0.2-0.1-0.4-0.5-0.8-1.1c3.2-2.9,7.3-1,10.8-1.9
			c1.6-0.4,3.6-0.9,5,1c-0.4,0.5-0.7,1.1-1,1.2c-4.1,0.9-4.2,4-4.1,7.4c0,8.9-0.1,17.9-0.3,26.8c0,1.5-0.1,3.1-0.6,4.5
			c-0.5,1.5-2.1,1.8-3.2,0.7c-0.5-0.5-0.8-1.1-1.2-1.6C243.3,590.7,234.9,580.9,225.9,570.4z"/>
		<path class="st0" d="M308.8,602.5c-1.1-2-1.6-2.9-2-3.8c-2.7-6-5.3-12-7.9-18c-1.2-2.8-2.3-5.6-6.3-7.2c5.6-1.8,10.2-0.7,15.8-1.3
			c-1.3,1.3-1.7,1.7-2.2,2.1c-0.6,0.5-1.2,0.9-1.9,1.3c2.4,5,4.6,9.8,7.2,15.2c1.9-4.8,3.4-8.7,5-12.6c0.8-2,0.4-3.2-1.8-3.7
			c-0.4-0.1-0.7-0.5-1.5-1.2c1.5-0.4,2.6-1,3.6-1c8.3-0.1,16.6-0.1,25-0.1c3.9,0,5,1.5,4,5.4c-0.1,0.6-0.7,1.4-1.1,1.5
			c-0.7,0.1-1.8-0.2-2.1-0.7c-1.8-3.2-4.5-3.4-7.4-3.2c0,3.3,0,6.2,0,8.7c4,2.8,4.7-2.8,7.6-2.3c1.1,6.5,0.9,7.7-1.9,10
			c-1.3-2-2.1-4.9-5.9-3.6c-0.1,1.8-0.2,3.7-0.2,5.7c0.1,4,1,4.8,4.8,4c1.1-0.2,2.2-1.2,3.1-2c1.1-0.8,1.6-2.7,3.5-1.9
			c0.3,6.7-1.7,7.3-7.2,7.2c-4.3-0.1-8.7,0-13-0.1c-0.9,0-1.7-0.3-3.5-0.6c1.5-1.1,2.2-1.9,3-2.1c1.5-0.4,2.2-1.3,2.2-2.9
			c0-5.9,0.1-11.8,0-17.7c0-2.5-1.1-3.2-3.5-3.2c-2.2,0-3.1,1.4-3.9,3.3c-2.8,6.7-5.6,13.3-8.5,19.9
			C311.2,599,310.2,600.2,308.8,602.5z"/>
		<path class="st0" d="M417.1,570.6c-0.3-0.4-0.6-0.8-1-1.2c2.6-2,5.2-4,7.9-5.8c1.2-0.8,2.2-0.2,2.7,1.7
			C423.5,567.1,420.3,568.8,417.1,570.6z"/>
		<path class="st0" d="M333.7,570.6c-0.3-0.4-0.6-0.8-0.9-1.2c2.6-2,5.2-4,7.9-5.8c0.4-0.3,1.4,0.3,2.1,0.5
			c-0.2,0.6-0.2,1.4-0.6,1.7C339.4,567.4,336.5,569,333.7,570.6z"/>
		<path class="st0" d="M201,505.5c3-0.2,4.5,2,5.8,4c2.2,3.5,4.1,7.3,6,11c2.5,4.8,4.9,9.6,7.2,14.4c1.4,3,3.5,4.2,6.7,4.1
			c4.5-0.2,9,0.1,13.5-0.1c2.1-0.1,4.5-2,6-1.3c1.9,0.9,3.6,1.4,5.6,1.3c3.2-0.2,6.3-0.7,9.5-0.7c5.5,0,11,0.4,16.5,0.6
			c3.8,0.1,7.7,0.4,11.5,0.1c11-1,19.8-5.9,24.6-16.3c3.7-8,1.9-18.7-7.8-23.8c-1.3-0.7-2.5-1.5-4.2-2.4c1.7-1.3,3-2.5,4.5-3.6
			c6.8-4.9,7.6-19-2.3-23.8c-3.5-1.7-7-3-10.9-3.3c-11.8-0.8-23.6-0.6-35.4,0.2c-4.6,0.3-8,2.6-11.3,5.7c1.5,2.2,3.6,2.2,5.5,2.2
			c3.6,0,4.4,0.5,4.3,5c-0.1,13.8-0.2,27.7-0.3,41.5c0,3.5,0,7,0,10.5c-2.3,1-4.2,1.9-5.9,2.7c-1.5-0.6-2.8-1.6-4.2-1.7
			c-4.2-0.5-7.1-2.9-9.1-6.3c-2.9-4.7-5.6-9.6-8.3-14.4c-2.1-3.8-4-7.6-6.2-11.8c2.2-1.6,4.2-3,6.2-4.5c5.2-3.6,7.3-8.7,6.5-14.9
			c-0.8-6.2-4.5-10.4-10.2-12.6c-2.4-0.9-5.2-1.5-7.8-1.5c-12.2-0.2-24.3,0-36.5-0.1c-3.5,0-5.5,2.6-8.3,4.2
			c1.4,2.8,3.7,2.8,5.8,3.1c5.1,0.8,5.1,0.8,5.1,6c-0.1,14.8-0.2,29.7-0.3,44.5c0,1.3,0,2.7-0.3,4c-0.3,1.2-0.6,3-1.5,3.4
			c-2,1-4.6,2.5-6.4,1.9c-3.9-1.3-7.7-3.3-9.2-7.8c-0.6-1.8-1.3-3.4-2-5.2c-5.7-16.2-11.4-32.3-17.1-48.5c-1.1-3.1-2.2-6.3-3.3-9.6
			c-3.4,1.4-6.1,2.9-7.4,6c-5.2,11.9-10.4,23.7-15.7,35.5c-3.5,8-7.2,15.9-10.7,24c-1.3,2.9-2.8,5.2-5.9,6.4c-2,0.8-4.1,2-5.4,4.7
			c1.7,0.2,2.7,0.5,3.8,0.5c5.7,0,11.3-0.1,17,0.1c2.9,0.1,5.2-1.2,7.2-2.9c0.8-0.6,1.3-2,1.3-3c0-0.6-1.4-1.2-2.2-1.6
			c-0.6-0.3-1.3-0.3-1.9-0.5c-3.1-1-3.7-1.7-2.8-4.7c1.3-4.3,2.9-8.6,4.7-12.8c0.3-0.8,1.7-1.6,2.6-1.7c3.8-0.2,7.7-0.1,11.5-0.1
			c2,0,3.1,1,3.7,2.8c1.5,4.8,2.9,9.7,4.3,14.5c0.4,1.5-0.1,2.5-1.5,3.3c-1.5,0.8-2.9,1.7-4.1,2.8c-0.6,0.6-1,1.7-0.9,2.5
			c0,0.4,1.2,1,1.9,1c9.5,0,19-0.2,28.4-0.3c6.4,0,12.9,0.1,19.3,0.2c4,0.1,8-0.1,12,0.3c3.4,0.3,5.8-1.3,8.1-3.3
			c1.5-1.3,1.3-2.8-0.5-3.5c-1.9-0.7-3.8-1-5.8-1.5c-1.9-0.5-2.8-1.6-2.8-3.6C201,520.1,201,512.9,201,505.5z M273.9,502.7
			c5.8-0.3,10.5,0.6,15.1,2.2c3.6,1.3,6.6,3.8,7.5,7.5c1.2,4.9,1.1,10-1.3,14.8c-1.1,2.2-2.7,3.9-5.2,4.2c-4.4,0.6-8.6,0.3-12.7-1.6
			c-1.9-0.9-3.4-2.2-3.4-4.5C273.8,517.9,273.9,510.6,273.9,502.7z M273.8,472.6c4.9-0.8,8.9-0.3,12.9,1c5.1,1.7,7.3,4.6,7.3,10.1
			c0,2.4-0.6,5-1.2,7.3c-0.7,2.7-2.8,4.1-5.6,4.2c-3.5,0.1-6.9,0.1-10.4,0.1c-2.1,0-3-1.2-3-3.2
			C273.8,485.8,273.8,479.4,273.8,472.6z M201.6,473.4c11.8-1.8,17.9,8.3,15.7,17.3c-1.3,5.2-2.4,6.2-7.8,6.7
			c-1.3,0.1-2.6,0.3-4,0.4c-3.8,0.2-4.5-0.3-4.6-4c-0.1-6.4,0.1-12.8,0.2-19.2C201,474.2,201.4,473.8,201.6,473.4z M133.8,490.4
			c1.5,4.4,2.8,8.4,4.3,12.7c-3.2,0-6.1,0-8.9,0C129.4,499.2,130.5,496.2,133.8,490.4z"/>
		<path class="st0" d="M76.5,479.8c2.3-1.8,4-3.1,5.8-4.3c8.7-6.2,10.1-17.4,6.5-25.8c-1.1-2.5-3.1-4.9-5.3-6.5
			c-5.8-4.5-12.5-7.2-19.8-7.3c-15-0.2-30-0.3-44.9,0.1c-5.6,0.1-11.4,0.4-16.1,4.4c-0.5,0.4-1.2,0.7-1.6,1.1
			c-1.6,1.5-1.4,3.1,0.7,3.8c1.7,0.6,3.6,0.7,5.4,0.9c6.7,0.7,6.8,0.7,6.8,7.7c-0.2,24.1-0.6,48.2-0.9,72.3c0,1-0.2,2-0.2,2.2
			c-4,2.1-7.6,3.7-11,5.7c-0.8,0.5-1.8,2.2-1.5,2.7c0.5,1,1.9,2.2,2.9,2.2c4.8,0.1,9.6-0.3,14.5-0.4c6-0.1,12-0.1,17.9-0.1
			c9,0.1,18,1,26.9,0.4c13.6-1,24.4-7.6,30.8-20.1c7.4-14.3,2.2-29.5-12.1-36.6C80,481.5,78.6,480.8,76.5,479.8z M36.9,487.4
			c8.8-0.3,16.6,0.7,24,3.2c5.3,1.8,9,5.5,10.4,11.3c1.6,6.4,1,12.7-1,18.9c-1.6,4.7-4.7,8.2-9.9,8.8c-6.1,0.7-12.3,0.6-18.2-1.8
			c-3.4-1.4-5.4-3.9-5.4-7.7c-0.1-2.9,0.1-5.7,0.1-8.6C36.9,503.6,36.9,495.8,36.9,487.4z M37,444.2c8.1-0.8,15.3-0.4,22.3,2.4
			c3.6,1.5,6.3,4.1,7.5,7.7c2.3,6.7,1.7,13.2-2.3,19.3c-1.6,2.4-3.7,4-6.5,4.2c-5.8,0.3-11.6,0.5-17.5,0.3c-3-0.1-4.2-1.7-4.1-4.6
			c0.2-7.1,0.4-14.1,0.5-21.2C37.1,449.8,37,447.3,37,444.2z"/>
		<path class="st0" d="M467.7,507.5c-6.5,1.9-9.2,5.4-9,11.4c0.1,2.7-0.5,5.4-0.5,8.1c0,7.7,1,10.4,9.3,12.6
			c6,1.6,12.5,1.9,18.8,2.1c7.5,0.2,15-0.8,21.7-4.6c7-4,13.7-8.3,17-16.3c5-12.2,2.9-26.3-7.8-35.4c-6.9-5.9-14.9-9.5-22.9-13.2
			c-3.6-1.7-7.2-3.6-10.6-5.6c-7.5-4.3-7.7-15.1-2.4-20.6c0.9-0.9,2.2-1.7,3.4-1.9c9.7-1.4,17,0,23.1,9.8c1.3,2.1,2.3,4.5,3.3,6.8
			c0.9,1.9,2.3,2.2,4.1,1.3c3.3-1.7,5.7-3.9,5.3-8.2c-0.4-3.7-0.5-7.4-0.6-11.1c-0.1-2.9-1.7-4.7-4.3-5.6c-2.2-0.7-4.5-1.4-6.8-1.7
			c-7.3-1-14.6-1.5-21.8,0.5c-8.5,2.3-16.1,6.8-21.4,14c-7.5,10.3-5.6,25.4,4.2,35c2.3,2.2,4.8,4.2,7.5,5.7c5.5,3.2,11.2,6,16.7,9.1
			c3.1,1.7,6.1,3.4,9,5.5c6.2,4.5,8,11,6.1,18.9c-1.1,4.8-4,7.5-9.2,8.6c-9.7,2-26.7-5.8-29.9-17.9
			C469.7,512.3,468.6,510,467.7,507.5z"/>
		<path class="st0" d="M532.5,471.2c2,0.8,3.8,1.5,5.6,2.1c2.5,0.8,3.9,2.2,3.8,5.1c-0.1,17-0.1,34.1-0.1,51.1c0,0.5-0.2,1-0.3,1.8
			c-1.8,0.7-4,1.2-5.8,2.3c-1.7,1-4,1.8-4.6,4.7c1.2,0.3,2.2,0.7,3.3,0.7c8.7,0.1,17.3-0.1,26,0.1c3.1,0.1,5.4-1.5,7.6-3.2
			c1.7-1.3,1.2-3-0.9-3.7c-0.5-0.2-1-0.2-1.5-0.3c-5.2-1.2-5.8-1.8-5.8-7c-0.1-6.2,0-12.4,0-19.1c4,0,7.4,0,10.9,0
			c4.5,0,9-0.1,13.5,0c4.1,0.1,4.4,0.4,4.5,4.3c0.1,5.7,0.1,11.5,0,17.2c-0.1,3.7-0.3,3.4-3.7,4.6c-2.4,0.8-4.7,2.4-6.8,3.9
			c-1.3,0.9-0.8,2.6,0.8,3c0.8,0.2,1.6,0.2,2.5,0.2c8.5,0,17-0.1,25.5,0.1c3.2,0.1,5.3-1.7,7.5-3.4c1.2-1,0.9-2.5-0.6-3.3
			c-0.7-0.4-1.6-0.5-2.4-0.7c-4.8-1.5-5.1-1.8-5.1-7.1c0-11.3-0.1-22.6-0.1-33.9c0-4.9,0.1-9.8,0-14.7c0-2.1,0.5-3.2,2.7-4
			c2.4-0.8,4.5-2.6,7.3-4.4c-1.6-0.8-2.3-1.5-3.1-1.6c-1.5-0.2-3-0.1-4.5,0c-6,0.1-12,0.5-17.9,0.3c-4.7-0.2-7.8,2-10.8,5
			c1,2.7,3.5,2.1,5.2,2.6c2.3,0.7,3.6,1.9,3.6,4.2c0.1,6.4,0,12.7,0,19.2c-2,0.3-3.4,0.7-4.9,0.7c-6.7,0.1-13.3,0.3-20,0.2
			c-3.7,0-4.3-0.8-4.4-4.5c-0.1-5.6,0-11.1-0.1-16.7c0-2.3,0.5-3.7,2.9-4.5c1.8-0.6,3.5-1.9,5.1-3.1c0.4-0.3,0.9-1.3,0.7-1.7
			c-0.3-0.6-1-1.3-1.7-1.5c-0.9-0.3-2-0.2-3-0.2c-7.3,0-14.6,0-21.9,0C537.9,466.2,536.2,467.1,532.5,471.2z"/>
		<path class="st0" d="M408.1,505.6c3-0.1,4.4,1.6,5.5,3.5c2.6,4.5,5,9.1,7.5,13.7c2.2,4.2,4.4,8.3,6.4,12.6c1.2,2.6,3,3.8,5.9,3.7
			c4.7-0.1,9.3-0.1,14,0c3.3,0.1,5.6-1.9,8-3.7c1.2-1,0.8-2.5-0.7-3.2c-0.3-0.1-0.6-0.3-0.9-0.3c-5.4-0.2-8.4-3.7-10.8-7.9
			c-4.2-7.3-8.1-14.7-12.2-22c-1-1.8-0.8-3.1,0.9-4.3c1.4-0.9,2.8-1.9,4.2-2.8c9.1-6,8.7-21.7-2.2-26.7c-2.8-1.3-6-2.1-9.1-2.3
			c-6.8-0.3-13.6,0.1-20.5,0.1c-5,0-10,0.1-15-0.3c-3.4-0.3-5.8,1.3-8.1,3.1c-1.5,1.2-1.2,2.6,0.8,3.3c1.7,0.6,3.6,0.8,5.4,1.1
			c2.2,0.3,3.2,1.5,3.1,3.7c-0.1,5.1-0.1,10.1-0.1,15.2c0,10.1-0.1,20.2-0.1,30.3c0,1.9-0.1,3.7-0.3,5.5c-0.1,1.8-1,2.9-2.9,3.6
			c-2.3,0.9-4.4,2.3-6.5,3.7c-0.6,0.4-1.2,1.7-1,2c0.5,0.7,1.4,1.2,2.2,1.5c0.8,0.3,1.6,0.1,2.5,0.1c8.3,0,16.6-0.2,25,0.1
			c3.5,0.1,6-1.5,8.6-3.3c1.3-0.9,1.1-2.6-0.4-3.2c-1.4-0.6-2.9-0.7-4.3-1.1c-3.9-1.1-4.6-1.8-4.7-5.9
			C408,519,408.1,512.4,408.1,505.6z M408.1,473.1c5.9-0.2,10.8,0.7,14.1,5.4c3.4,5,3.3,10.4,0.7,15.8c-0.6,1.2-2,2.4-3.2,2.7
			c-2.7,0.6-5.6,0.8-8.4,0.9c-1.8,0.1-3.2-0.9-3.2-3C408.1,487.7,408.1,480.6,408.1,473.1z"/>
		<path class="st0" d="M695.9,500.9c0.9-19.9-15.9-36.2-35.2-36c-15.9,0.1-28.6,6.9-36.9,20.3c-8.2,13.3-8.2,27.5,0.9,40.4
			c9,12.7,21.8,17.7,37.3,14.6c9.3-1.9,17.1-6.7,23.8-13.1C693,520.1,696.1,511,695.9,500.9z M637.9,501c0-2.4-0.1-4.7,0-7.1
			c0.4-6.4,2.5-12.1,6.1-17.3c1.4-2,3.1-3.6,5.5-4.1c7.4-1.5,14.2-0.6,19.5,5.7c3.6,4.3,6.4,9.1,7.5,14.6
			c2.4,11.8,0.7,23.1-4.7,33.8c-1.9,3.7-4.7,6.6-9.1,7.1c-8,0.9-14.3-1.9-18.9-8.6C639,517.7,637.6,509.6,637.9,501z"/>
		<path class="st0" d="M347.9,504.2c3.4,0.8,6.1,1.4,8.8,2.1c2.8,0.8,3.5,3.3,4.2,5.8c1.1,4.3,2.1,4.6,5.8,2.1
			c2-1.3,3.1-2.7,3.1-5.3c-0.1-5.7,0.2-11.5,0.2-17.2c0-0.8,0.2-1.9-0.2-2.5c-0.4-0.7-1.8-1.5-2.1-1.3c-2.3,1.5-5.4,2.3-6.4,5.3
			c-1.2,3.6-3.8,4.3-7,4.1c-1-0.1-2,0-3,0c-2.2,0-3.5-0.9-3.5-3.3c0-6.7,0-13.4,0-20.8c4.1,0.6,7.6,1,11.1,1.7
			c3.9,0.9,7,2.9,8.2,7.2c0.4,1.3,1.6,2.5,2.5,3.9c1.3-0.8,2.2-1.4,3.2-1.9c2.4-1.2,3.3-3,3.1-5.7c-0.2-3-0.1-6.1-0.1-9.1
			c0-1.9-0.9-2.8-2.7-3c-1.3-0.1-2.7-0.2-4-0.2c-13.6-0.2-27.3-0.4-40.9-0.7c-3.1-0.1-5.3,1.7-7.6,3.3c-1.3,1-0.8,2.1,0.3,2.8
			c0.5,0.3,1.3,0.4,1.9,0.5c6.4,1.5,6.6,1.7,6.6,8.4c0,13.5,0,27,0,40.5c0,2.4-0.1,4.7,0,7.1c0.1,2.3-0.7,3.6-3.1,3.4
			c-2.9-0.1-5,1.7-7,3.4c-0.7,0.6-1.5,2-1.2,2.4c0.6,0.8,1.7,1.3,2.7,1.7c0.4,0.2,1,0,1.5,0c14.3,0,28.6,0.1,43,0
			c1.8,0,3.7-0.1,5.3-0.8c3.1-1.4,5.6-3.4,5.6-7.5c0-2.6,1.2-5.2,1.6-7.9c0.2-1.2-0.3-2.5-0.5-3.8c-1.2,0.3-2.5,0.5-3.5,1
			c-3,1.4-5.1,3.9-6.5,6.8c-1.3,2.8-3.5,4-6.3,4.1s-5.6,0.4-8.4,0c-3.6-0.5-4.7-1.9-4.8-5.3C347.8,518.8,347.9,512.1,347.9,504.2z"
			/>
		<path class="st0" d="M726.8,509.3c2.3,0.5,4,0.8,5.6,1.2c11.9,2.7,23.3-5.3,28.1-13.3c6.5-10.9,1.8-23.8-10-28.1
			c-3.4-1.2-7.1-2-10.7-2.2c-10.5-0.5-21-0.6-31.4-1c-3.6-0.2-5.8,2.2-8.4,3.9c-1.3,0.8-1,2.2,0.4,2.8c1,0.5,2.2,0.6,3.4,0.7
			c4.4,0.5,4.9,1,5,5.7c0,4,0,8.1,0,12.1c-0.1,11-0.1,21.9-0.2,32.9c0,1,0,2-0.1,3c-0.2,2.6-0.6,4.9-3.7,5.8
			c-1.7,0.5-3.1,1.9-4.5,3.1c-1.3,1.1-0.8,2.6,0.8,3c0.5,0.1,1,0.1,1.5,0.1c8.7,0,17.3,0,26,0.1c3.1,0.1,5.3-1.7,7.5-3.5
			c1.4-1.1,1.1-2.5-0.6-3.1c-1.4-0.5-2.9-0.6-4.4-0.8c-3.2-0.6-4.1-1.5-4.2-4.6C726.7,521.5,726.8,515.8,726.8,509.3z M727.2,473.6
			c8.1-0.3,13.3,2.5,15.9,8.7c2.3,5.4,2.2,11.1-0.9,16c-2.6,4-7.4,3-11.5,3.2c-0.2,0-0.3,0-0.5,0c-2.9-0.4-3.4-0.9-3.5-3.8
			c-0.1-7.1,0-14.2,0-21.2C726.8,475.5,727,474.7,727.2,473.6z"/>
		<path class="st0" d="M403,599.6c3.2,1.8,7,1.8,10.9-0.2c-0.4-0.5-0.7-1-1.1-1.4c-0.5-0.4-1-0.7-1.8-1.2c1.6-2.1,0.5-5.9,4.1-6.4
			c1.8-0.2,4.3-1.1,5.5,1.1c1.4,2.8,2.5,5.9-1.4,9.1c9-0.1,17.1,0.8,26.2-0.6c-2.2-1.6-3.9-2.2-4.4-3.3c-0.6-1.4-0.3-3.3-0.3-5
			c0-2.2,0-4.3,0.8-6.7c2.2,4.9,4.4,9.8,6.9,15.4c5.3-4.6,5.2-11.5,9.3-17.4c0,5,0.1,8.9-0.1,12.8c0,0.9-1,1.8-1.7,2.7
			c-0.5,0.6-1.1,1.1-2.6,2.5c5.6-0.5,10.1,0.6,14.8-1.2c-4.3-2.2-4-5.9-3.9-9.6c0.1-3.4,0.2-6.8-0.1-10.1c-0.2-3.1,0.1-5.7,4.1-6.2
			c-5.2-3.2-10-2-12.2,2.8c-0.9,2-1.6,4.1-2.4,6.1c-0.7,1.8-1.5,3.6-2.7,6.3c-1.5-3.2-2.6-5.8-3.7-8.3c-0.8-1.8-1.6-3.7-2.4-5.6
			c-0.8-2.1-2.3-3.3-4.6-2.9c-2.3,0.4-5-1-7.3,1.5c0.8,0.5,1.4,1.1,2,1.3c1.6,0.5,2.1,1.5,2,3c-0.4,6.1-0.7,12.1-1.1,18.1
			c-0.1,1.9-2.1,3-3.6,1.9s-2.9-2.8-3.6-4.5c-2.4-6.1-4.5-12.3-6.7-18.5c-0.5-1.5-1.2-2.9-2.1-5.1c-1.1,1.5-1.8,2.1-2.2,2.9
			c-3.3,7.2-6.6,14.3-9.8,21.6c-1.1,2.4-2.4,4.4-5.1,5L403,599.6z M414.7,586.4c0.8-1.6,1.4-2.8,2.4-4.7c0.6,2.1,1,3.4,1.5,5
			C417.1,586.6,416.2,586.5,414.7,586.4z"/>
		<path class="st0" d="M225.9,570.4c9,10.5,17.4,20.3,25.8,30c0.4,0.5,0.7,1.2,1.2,1.6c1.1,1.1,2.7,0.8,3.2-0.7
			c0.4-1.4,0.5-3,0.6-4.5c0.1-8.9,0.3-17.9,0.3-26.8c0-3.4,0-6.4,4.1-7.4c0.4-0.1,0.6-0.7,1-1.2c-1.4-1.9-3.4-1.4-5-1
			c-3.5,0.9-7.6-0.9-10.8,1.9c0.4,0.6,0.5,1.1,0.8,1.1c5.5,1.6,5.1,0.4,5.2,7.1c0.1,4.7,0,9.4,0,15.3c-1.8-1.9-2.8-2.9-3.8-3.9
			c-5.1-6-10.2-12-15.2-18.1c-2.1-2.6-4.6-3.6-7.8-3.3c-2,0.2-4,0.1-6,0.3c-1.4,0.1-3.1,0-3.6,1.8c0.1,0.2,0.1,0.5,0.2,0.5
			c5.1,2.6,5.1,2.6,5,8.5c-0.1,6.7-0.2,13.5-0.2,20.2c0,3,0,5.8-4,6.2c-0.6,0.1-1.2,0.9-2.4,1.9c5.5,1.8,10.4,0.9,15.2,0.9
			c0.9,0,1.9-1,3.6-2c-1.8-0.8-2.8-1.2-3.8-1.6c-2.3-0.8-3.7-2.2-3.7-4.8C225.9,585.5,225.9,578.5,225.9,570.4z"/>
		<path class="st0" d="M308.8,602.5c1.4-2.2,2.4-3.5,3-5c2.9-6.6,5.8-13.3,8.5-19.9c0.8-1.9,1.6-3.3,3.9-3.3c2.4,0,3.4,0.8,3.5,3.2
			c0.1,5.9,0,11.8,0,17.7c0,1.6-0.6,2.4-2.2,2.9c-0.8,0.2-1.5,1-3,2.1c1.7,0.3,2.6,0.6,3.5,0.6c4.3,0.1,8.7,0,13,0.1
			c5.5,0.1,7.5-0.4,7.2-7.2c-1.9-0.8-2.4,1-3.5,1.9c-1,0.8-2,1.8-3.1,2c-3.8,0.7-4.7-0.1-4.8-4c0-2,0.1-3.9,0.2-5.7
			c3.8-1.3,4.6,1.6,5.9,3.6c2.8-2.3,3-3.5,1.9-10c-2.9-0.5-3.5,5.2-7.6,2.3c0-2.5,0-5.4,0-8.7c2.9-0.2,5.7,0,7.4,3.2
			c0.3,0.5,1.4,0.8,2.1,0.7c0.4,0,1-0.9,1.1-1.5c1-3.8-0.1-5.3-4-5.4c-8.3,0-16.6,0-25,0.1c-1,0-2.1,0.6-3.6,1
			c0.8,0.7,1.1,1.1,1.5,1.2c2.2,0.4,2.6,1.7,1.8,3.7c-1.6,3.9-3.1,7.8-5,12.6c-2.6-5.4-4.8-10.2-7.2-15.2c0.7-0.5,1.3-0.9,1.9-1.3
			c0.5-0.4,0.9-0.8,2.2-2.1c-5.6,0.6-10.2-0.5-15.8,1.3c4,1.5,5.1,4.4,6.3,7.2c2.6,6,5.2,12,7.9,18
			C307.2,599.6,307.7,600.4,308.8,602.5z"/>
		<path class="st0" d="M402.9,599.8c0-3.5,0-7,0-10.5c-1.9-0.6-2.8,0.3-3.1,1.7c-0.8,4.5-3.8,6-7.8,6.1c-3.8,0.1-7.7,0.2-11.5,0.1
			c-2.6-0.1-3.3-1.4-2-3.6c0.9-1.6,2-3.1,3.1-4.5c6.4-8.4,12.8-16.8,19.2-25.2c0.5-0.6,0.7-1.4,1.3-2.6c-1.7-0.2-3-0.4-4.2-0.4
			c-6.7,0-13.3,0.1-20-0.1c-2-0.1-4.5-0.4-6-1.6c-1.7-1.3-2.4-0.5-3.3,0.4c-1.4,1.5-2.7,7.2-2.6,10.5c1.9,0.5,2.8-0.8,3.5-2.1
			c1.3-2.4,3.3-3,5.8-3.1c3.7-0.1,7.3-0.5,11-0.6c1.1,0,2.2,0.2,4.2,0.5c-9.1,12.1-17.8,23.6-26.9,35.6c1.8,0.2,2.7,0.4,3.7,0.4
			c9.3,0.1,18.6,0.2,27.9,0c2.6,0,5.1-0.9,7.7-1.3L402.9,599.8z"/>
		<path class="st0" d="M498.8,573.5c-3.3-1.7-8.6-1.7-12.4,0.2c0.8,0.6,1.4,1.2,2.5,2.1c-2.8,2.8-5.5,5.6-9,9.2
			c0.6-4.8-1.7-8.9,3.5-12c-5-0.9-9.1-1-13.4,0.5c3,1.2,3.7,3.3,3.5,6.1c-0.2,4.9-0.2,9.8-0.1,14.7c0.1,2.4-0.4,4.3-3.1,4.8
			c-0.4,0.1-0.6,0.7-0.9,1.1c5,1.1,11.1,0.9,14-0.7c-0.7-1.9-4.2-1.6-3.6-4.6c0.4-1.9,0.1-3.9,0.1-6.7c4.2,2.7,6.5,6.2,9.7,9.2
			c-0.9,1-1.7,1.9-3.3,3.6c5.8-0.6,10.6,0.4,16-0.6c-6.2-6.2-11.7-11.6-17.3-17.3c4-4.5,8.2-8.2,13.8-9.7L498.8,573.5z"/>
		<path class="st0" d="M279.9,572c-8-0.4-16.2,5.9-15.9,15.6c0.2,8.1,6.5,14.2,14.5,14c8.9-0.2,15.7-7.3,15.7-16.2
			C294,576.7,286.4,571.3,279.9,572z M287.4,586.7c-0.5,2.3-0.7,4.6-1.5,6.8c-0.9,2.5-2,5-5.3,5.3c-3.2,0.3-6-1.2-7.6-4.4
			c-2.5-5.1-2.5-10.4-0.6-15.6c2-5.3,7.8-6.2,11.5-1.9C286.3,579.7,287.4,583,287.4,586.7z"/>
		<path class="st0" d="M498.9,573.4c5.1,3.8,7.8,9.5,11,14.7c1.4,2.2,0.9,5.9,0.6,8.8c-0.1,1.2-2.2,2.1-4.3,3.9
			c5.3,0,9.5,0.1,13.8-0.1c0.6,0,1.2-0.9,1.9-1.5c-0.8-2.1-4.3-0.8-4.1-3.9c0.3-3.7-1.5-7.6,1.8-11c3.5-3.6,6.5-7.5,9.7-11.2
			c-3.3-1.1-5.7-1.1-10,0.4c1.3,0.6,2.2,1,3.6,1.7c-2,3.1-4,6-6.3,9.4c-2.2-3.3-4.1-6.1-6.2-9.3c0.9-0.7,1.7-1.4,2.4-1.9
			c-0.1-0.5-0.2-0.7-0.2-0.7c-4.6-0.3-9.2-1.4-13.6,0.8L498.9,573.4z"/>
		<path class="st0" d="M417.1,570.6c3.2-1.8,6.5-3.6,9.6-5.3c-0.5-1.9-1.5-2.5-2.7-1.7c-2.7,1.8-5.2,3.9-7.9,5.8
			C416.5,569.8,416.8,570.2,417.1,570.6z"/>
		<path class="st0" d="M333.7,570.6c2.8-1.6,5.6-3.2,8.4-4.8c0.4-0.2,0.4-1.1,0.6-1.7c-0.7-0.2-1.7-0.8-2.1-0.5
			c-2.7,1.8-5.3,3.9-7.9,5.8C333.1,569.8,333.4,570.2,333.7,570.6z"/>
		<path class="st0" d="M87.7,614.7c0,3.1-2.5,5.5-7.6,7.3c-2.2,0.8-4.6,1.2-7.2,1.2c-0.9,0-2.1-0.1-3.7-0.2c-3.3,5.2-6.1,9.9-8.3,14
			c-1.3,2.6-3.3,6.4-5.9,11.6c-0.1,0.2-0.6,1.2-1.6,3.1c-2.8,5.6-4.8,9.5-6.1,11.7c-7.1,12-15.5,18-25.4,18c-3.4,0-6.7-0.8-9.7-2.5
			c-2.5-1.4-3.7-2.5-3.7-3.3c0-0.4,0.7-1.4,2.2-3c3.7,3.9,8.2,5.8,13.4,5.8c4.8,0,9.4-1.8,14.1-5.4c2-1.5,3.6-3.3,5-5.3
			c2-2.9,4-6.1,5.8-9.6c0.8-1.6,2-3.9,3.5-7l2.4-4.6c5.4-10.7,9.6-18.3,12.7-22.8l0.5-0.8c-2.7-0.5-5.4-1.3-8.3-2.6l-5.6-2.5
			c-3.5-1.5-6.8-2.3-10.2-2.3s-6.8,1.1-10.1,3.3c-3.1,2.1-5.6,4.6-7.5,7.7c-2,3.2-3,6.5-3,10c0,3.2,0.8,5.9,2.3,8.2
			c1.8,2.6,4.2,4,7.2,4c2.8,0,5.3-1.1,7.3-3.4c2-2.1,2.9-4.7,2.9-7.5v-0.6c0.6-0.5,0.9-0.7,1.1-0.7c0.3,0,0.4,0.2,0.4,0.7
			c0,0.6-0.2,1.7-0.7,3.1c-0.9,2.8-2.4,5.2-4.6,7.1c-2.4,2-5,3-7.8,3c-3.1,0-5.6-1.2-7.5-3.5c-1.8-2.2-2.6-4.8-2.6-8
			c0-6.5,2.7-12.4,8-17.6c5.3-5.2,11.4-7.8,18.2-7.8c3.5,0,7.4,0.8,11.6,2.5l6.5,2.6c1.6,0.6,3,1.1,4.3,1.5
			c4.7-5.5,9.3-8.2,13.8-8.2C86.5,611.9,87.7,612.8,87.7,614.7z M86.5,615.1c0-1.4-0.9-2.1-2.7-2.1c-3.9,0-8,2.5-12.4,7.5
			c1.7,0.4,3.2,0.6,4.7,0.6c2.2,0,4.3-0.5,6.4-1.4C85.1,618.5,86.5,617,86.5,615.1z"/>
		<path class="st0" d="M94.6,656.9c0,0.2-0.3,0.6-1,1.4c-9.3,10.6-16.3,15.9-21,15.9c-1.7,0-3-0.5-4.1-1.6c-1-1-1.6-2.4-1.6-4.1
			c0-3.2,1.8-7.2,5.5-11.8c0.3-0.4,0.5-0.7,0.5-0.8c0-0.2-0.1-0.3-0.4-0.3c-0.2,0-0.6,0.1-1.3,0.3c-1.1,0.4-2,0.5-2.7,0.5
			s-1.4-0.1-2.2-0.4v0.1l0,0l-0.8,1c-0.7,0.7-1.1,1.1-1.3,1.1c-0.3,0-0.4-0.1-0.4-0.3c0-0.1,0.1-0.3,0.2-0.4l0.3-0.3
			c0.1-0.1,0.1-0.1,0.1-0.2l0.7-0.9l0.6-0.7c-0.4-0.6-0.5-1.2-0.5-1.8c0-1,0.4-2.1,1.1-3.2c0.7-1.2,1.6-1.7,2.5-1.7
			c0.8,0,1.2,0.4,1.2,1.3c0,0.9-0.8,2.4-2.4,4.5c-0.1,0.1-0.3,0.4-0.6,0.7c0.5,0.1,0.9,0.2,1.2,0.2c1.6,0,3.3-0.5,5.3-1.5
			c1.4-0.7,2.3-1.1,2.6-1.1c0.8,0,1.2,0.4,1.2,1.1c0,0.4-0.1,0.7-0.4,1l-1.7,2.1c-3.4,4.2-5,7.7-5,10.5c0,1.2,0.4,2.2,1.2,3.1
			c0.8,0.9,1.8,1.3,3,1.3c2.7,0,6.5-2.4,11.5-7.2c2.4-2.3,4.4-4.3,6-6.2l1.4-1.6l0.4-0.4c0.1-0.2,0.3-0.2,0.4-0.2
			C94.4,656.5,94.6,656.7,94.6,656.9z"/>
		<path class="st0" d="M128,657.2c0,0.3-0.9,1.4-2.7,3.3c-5.6,6.1-10.1,10.1-13.5,12.2c-1.8,1.1-3.3,1.6-4.4,1.6c-2.6,0-4-1.6-4-4.9
			c0-1,0.2-2.4,0.5-4.3l-0.7,0.7c-5.2,5.7-9.7,8.5-13.3,8.5c-2.8,0-4.2-1.5-4.2-4.5s1.7-6.5,5.1-10.3c2.4-2.8,5.5-5.2,9.1-7.3
			c4.1-2.3,7.8-3.4,11.1-3.4c4.4,0,6.5,1.4,6.5,4.2c0,2.7-1.9,4.8-5.8,6.3l-0.2-0.6c2.4-1.4,3.7-3,3.7-4.9c0-2.5-1.8-3.7-5.5-3.7
			c-2.7,0-5.6,0.9-8.8,2.6c-2.9,1.6-5.3,3.5-7.2,5.7c-3.2,3.7-4.8,6.8-4.8,9.3s1.2,3.7,3.7,3.7c2.4,0,5.3-1.7,8.4-5
			c2.3-2.5,4.4-5.2,6.2-8.2c0.5-0.3,0.9-0.4,1.3-0.4s0.7,0.2,1.2,0.7c-2.4,4-3.6,7.4-3.6,10.2c0,2.1,0.9,3.2,2.6,3.2
			c1.8,0,4.6-1.7,8.5-5.1c3.2-2.8,5.6-5.2,7.3-7.2l1.2-1.4c0.8-1,1.4-1.5,1.6-1.5C127.8,656.8,128,656.9,128,657.2z"/>
		<path class="st0" d="M165.5,656.9c0,0.2-0.3,0.6-1,1.4c-2.6,3-5.7,6.2-9.4,9.4c-4.5,4-7.9,6-10.4,6c-3.3,0-4.9-2.6-4.9-7.9
			c0-0.7,0-1.7,0.1-3c0,0,0-0.4,0.1-1.1l-0.8,0.9c-3.3,3.7-6.1,6.4-8.6,8.1c-2.3,1.6-4.4,2.4-6.3,2.4c-2.6,0-3.9-1.4-3.9-4.2
			c0-2.3,0.9-4.9,2.8-7.6c1.6-2.4,3.5-4.3,5.7-5.9c3.1-2.2,5.7-3.3,7.9-3.3c1.1,0,2.1,0.3,3.1,0.9l-1.4,1.3
			c-0.9-0.6-1.7-0.9-2.3-0.9c-2.1,0-4.3,1-6.8,3.1c-1.2,1-2.3,2.1-3.2,3.3c-2,2.7-3,5-3,7.1c0,2.3,1,3.5,3,3.5
			c1.9,0,4.5-1.4,7.7-4.3c2.1-1.9,4.3-4.1,6.4-6.6l0.2-0.7l0.7-2.9c1.8-7.6,5.1-15.5,10.1-24c1.3-2.3,2.9-4.5,4.6-6.6
			c2.6-3.2,4.6-4.7,6-4.7c0.7,0,1.1,0.5,1.1,1.5c0,3.4-2.4,9.1-7.2,17.2c-2.8,4.8-6.1,9.8-9.8,14.8l-2.6,3.6c-0.5,2.9-0.7,5-0.7,6.5
			c0,4.8,1.2,7.1,3.7,7.1c3.4,0,8.7-4,16.1-12.1c0.5-0.5,1-1.1,1.8-2c0.4-0.4,0.6-0.6,0.8-0.6C165.4,656.5,165.5,656.6,165.5,656.9z
			 M161.8,623.4c0-0.7-0.3-1.1-0.8-1.1c-1.4,0-3.8,2.6-7,7.7c-2.9,4.6-5.5,10.2-7.7,16.8c-1.1,3.2-1.8,5.8-2.2,7.9
			c2.5-3.2,5.5-7.5,9-13.1C158.9,632.5,161.8,626.4,161.8,623.4z"/>
		<path class="st0" d="M184.6,657.3c-0.3,0.4-1.1,1.4-2.5,2.9c-5.6,5.9-10.4,9.9-14.4,12.1c-2,1.1-3.7,1.7-4.9,1.7
			c-2.4,0-3.6-1.3-3.6-3.9c0-2.9,1.4-6.7,4.1-11.4c1-1.8,2-3.3,2.7-4.3c1.3-0.4,2.4-0.6,3.4-0.7l-0.5,0.7c-2.1,3.2-3.8,6.1-4.9,8.8
			c-1,2.2-1.5,4.2-1.5,5.9s0.7,2.6,2.1,2.6c2.5,0,6.2-2.2,11.2-6.6c2.6-2.2,4.8-4.5,6.8-6.7c0.8-0.9,1.4-1.4,1.6-1.4
			C184.4,656.9,184.6,657,184.6,657.3z"/>
		<path class="st0" d="M177.5,642.1c-0.2,0.1-0.3,0.2-0.4,0.3l-1.6,1.2c-1.4,1.1-3,2.5-4.7,4.2l-0.2,0.2c-0.6-0.2-0.8-0.5-0.8-0.8
			c0-0.6,0.7-1.6,2.1-3.1c1.6-1.7,3-2.5,4.2-2.5C176.4,641.6,177,641.8,177.5,642.1z"/>
		<path class="st0" d="M208.7,657.2c0,0.2-0.2,0.6-0.6,1l-1.9,2.1c-7.6,8.3-13.6,13.1-18.2,14.2c-0.9,0.2-1.7,0.3-2.5,0.3
			c-3.9,0-5.9-2.2-5.9-6.7c0-4.4,2.1-8.8,6.3-13.2c4.1-4.2,8.1-6.3,12.1-6.3c2.7,0,4.1,1,4.1,3.1c0,1.8-0.8,3.4-2.5,5
			s-3.4,2.3-5.2,2.3c-0.4,0-0.6-0.1-0.6-0.4c0-0.3,0.5-0.8,1.5-1.5h0.4c1.2,0,2.4-0.4,3.4-1.3c1-0.9,1.6-2,1.6-3.2
			c0-1.7-1.2-2.6-3.6-2.6c-2.3,0-4.8,1.1-7.5,3.2c-2.8,2.1-4.8,4.8-6.2,8.1c-0.7,1.7-1.1,3.2-1.1,4.6c0,1.7,0.5,3.1,1.5,4.3
			c1,1.3,2.4,1.9,4.1,1.9c2.8,0,6.5-2,11-5.9c3-2.6,5.8-5.4,8.3-8.4l0.5-0.6c0.3-0.4,0.6-0.6,0.8-0.6
			C208.6,656.8,208.7,656.9,208.7,657.2z"/>
		<path class="st0" d="M248.5,657.1c0,0.2-0.5,0.8-1.5,1.9l-3,3.3c-6.5,7-11.6,10.5-15.3,10.5c-2.3,0-3.5-1.4-3.5-4.1
			c0-1.3,0.5-4,1.4-8.1c0.2-0.7,0.2-1.3,0.2-1.7c0-0.9-0.4-1.4-1.2-1.4c-0.9,0-2.7,0.8-5.3,2.4c-6.7,4.2-11.6,7.9-14.8,11.3
			c-1.1,1.2-1.9,1.8-2.2,1.8c-0.5,0-0.8-0.5-0.8-1.5c0-1.9,1-4.9,2.9-9.1c1.7-3.5,3.3-6.3,4.8-8.5c0.8-0.4,2-0.8,3.6-1.2
			c-2.4,3.9-4.4,7.5-6,10.8c-1,2.1-1.6,3.5-1.6,3.9c0,0.3,0.1,0.5,0.4,0.5c0.2,0,0.9-0.4,2.1-1.3c3.5-2.6,5.9-4.4,7.2-5.3
			c3.8-2.5,6.9-4.3,9.4-5.4c1.2-0.5,2.1-0.7,2.8-0.7c1.2,0,1.8,0.7,1.8,2.1c0,0.7-0.2,2.1-0.7,4.2c-0.7,3.2-1,5.3-1,6.3
			c0,2,0.8,2.9,2.4,2.9c2.4,0,6.4-2.9,12.2-8.7c1.4-1.4,2.9-3,4.4-4.7c0.5-0.5,0.8-0.8,0.9-0.8C248.4,656.6,248.5,656.8,248.5,657.1
			z"/>
		<path class="st0" d="M272.3,656.9c0,0.2-0.6,0.9-1.7,2.2c-9.8,10.9-17.1,16.4-22.1,16.4c-1.9,0-3.4-0.6-4.5-1.9s-1.8-2.8-1.8-4.7
			c0-2.6,1-5.5,2.9-8.5c1.7-2.6,3.7-4.9,6.1-6.8c2.6-2.1,5-3.2,7-3.2c2.1,0,3.2,0.9,3.2,2.7c0,3.3-2.4,6.2-7.3,8.5
			c-2.1,1-4.2,1.6-6.2,1.6c-0.3,0-1,0-2-0.1c-0.4,1.5-0.6,2.8-0.6,3.8c0,1.6,0.5,3,1.5,4.1s2.3,1.6,3.9,1.6c3.1,0,6.8-2,11.3-6
			c2.4-2.1,4.9-4.6,7.5-7.6l1.2-1.3c0.3-0.3,0.5-0.6,0.7-0.8c0.3-0.3,0.5-0.5,0.7-0.5C272.1,656.5,272.3,656.6,272.3,656.9z
			 M259.1,654.1c0-1.3-0.7-2-2.2-2c-2.2,0-4.7,1.6-7.5,4.7c-1.2,1.3-2.3,3.1-3.3,5.3c0.6,0.1,1.2,0.2,1.9,0.2c3.6,0,6.7-1.5,9.4-4.4
			C258.5,656.6,259.1,655.3,259.1,654.1z"/>
		<path class="st0" d="M323.2,656.9c-0.1,0.2-0.3,0.5-0.6,0.9l-1,1.2c-0.8,0.9-2.1,2.1-3.9,3.5c-3.5,2.7-7.5,4.9-11.9,6.4
			c-3.8,3.7-7.1,5.6-9.7,5.6c-2.4,0-3.7-1.1-3.7-3.4c0-2.1,0.6-3.1,1.7-3.1h0.2h0.1l1.1,0.3c1.2,0.3,2.7,0.5,4.2,0.5
			c2.1,0,3.9-0.2,5.1-0.7c2.9-3.3,4.4-6.3,4.4-9.2c0-2.4-1.2-3.6-3.5-3.6c-3.4,0-7.7,2.8-12.7,8.4c-3.9,4.3-7.3,10.6-10.1,18.8
			c-2.3,6.9-3.7,12.8-4.1,17.5l-2.8,0.7l0.1-0.9c2.8-17.6,9.8-34.2,21.1-49.8c0.6-0.8,1.1-1.6,1.6-2.3c0.7-0.7,1.4-1.1,2.4-1.1l0,0
			h1.2l-0.6,0.7c-0.9,1.1-2.1,2.7-3.8,4.9c-3.4,4.9-6.2,9.4-8.3,13.7c0.2-0.2,0.4-0.4,0.6-0.6l2.3-2.7c1.6-1.9,3.8-3.9,6.5-6.1
			c3-2.4,5.7-3.7,8.2-3.7s3.8,1.4,3.8,4.2c0,3-1.4,6.5-4.3,10.4c3.2-1.1,6.3-2.8,9.4-5.2c2.7-2.1,4.5-3.8,5.6-5.2
			c0.3-0.4,0.5-0.6,0.6-0.6C323.1,656.5,323.2,656.6,323.2,656.9z M303.6,669.5c-1.9,0.1-3.3,0.2-4.2,0.2c-1.5,0-2.9-0.1-4.4-0.4
			c-0.2,0.6-0.3,1-0.3,1.3c0,1.4,0.8,2.1,2.5,2.1C299.4,672.7,301.5,671.6,303.6,669.5z"/>
		<path class="st0" d="M356.6,657.2c0,0.3-0.9,1.4-2.7,3.3c-5.6,6.1-10.1,10.1-13.5,12.2c-1.8,1.1-3.3,1.6-4.4,1.6
			c-2.6,0-4-1.6-4-4.9c0-1,0.2-2.4,0.5-4.3l-0.7,0.7c-5.2,5.7-9.7,8.5-13.3,8.5c-2.8,0-4.2-1.5-4.2-4.5s1.7-6.5,5.1-10.3
			c2.4-2.8,5.5-5.2,9.1-7.3c4.1-2.3,7.8-3.4,11.1-3.4c4.4,0,6.5,1.4,6.5,4.2c0,2.7-1.9,4.8-5.8,6.3l-0.2-0.6c2.4-1.4,3.7-3,3.7-4.9
			c0-2.5-1.8-3.7-5.5-3.7c-2.7,0-5.6,0.9-8.8,2.6c-2.9,1.6-5.3,3.5-7.2,5.7c-3.2,3.7-4.8,6.8-4.8,9.3s1.2,3.7,3.7,3.7
			c2.4,0,5.3-1.7,8.4-5c2.3-2.5,4.4-5.2,6.2-8.2c0.5-0.3,0.9-0.4,1.3-0.4s0.7,0.2,1.2,0.7c-2.4,4-3.6,7.4-3.6,10.2
			c0,2.1,0.9,3.2,2.6,3.2c1.8,0,4.6-1.7,8.5-5.1c3.2-2.8,5.6-5.2,7.3-7.2l1.2-1.4c0.8-1,1.4-1.5,1.6-1.5
			C356.4,656.8,356.6,656.9,356.6,657.2z"/>
		<path class="st0" d="M396.4,657.1c0,0.2-0.5,0.8-1.5,1.9l-3,3.3c-6.5,7-11.6,10.5-15.3,10.5c-2.3,0-3.5-1.4-3.5-4.1
			c0-1.3,0.5-4,1.4-8.1c0.2-0.7,0.2-1.3,0.2-1.7c0-0.9-0.4-1.4-1.2-1.4c-0.9,0-2.7,0.8-5.3,2.4c-6.7,4.2-11.6,7.9-14.8,11.3
			c-1.1,1.2-1.9,1.8-2.2,1.8c-0.5,0-0.8-0.5-0.8-1.5c0-1.9,1-4.9,2.9-9.1c1.7-3.5,3.3-6.3,4.8-8.5c0.8-0.4,2-0.8,3.6-1.2
			c-2.4,3.9-4.4,7.5-6,10.8c-1,2.1-1.6,3.5-1.6,3.9c0,0.3,0.1,0.5,0.4,0.5c0.2,0,0.9-0.4,2.1-1.3c3.5-2.6,5.9-4.4,7.2-5.3
			c3.8-2.5,6.9-4.3,9.4-5.4c1.2-0.5,2.1-0.7,2.8-0.7c1.2,0,1.8,0.7,1.8,2.1c0,0.7-0.2,2.1-0.7,4.2c-0.7,3.2-1,5.3-1,6.3
			c0,2,0.8,2.9,2.4,2.9c2.4,0,6.4-2.9,12.2-8.7c1.4-1.4,2.9-3,4.4-4.7c0.5-0.5,0.8-0.8,0.9-0.8C396.2,656.6,396.4,656.8,396.4,657.1
			z"/>
		<path class="st0" d="M421.6,656.8c0,0.2-0.4,0.7-1.2,1.6c-0.3,0.4-0.7,0.8-1.1,1.3c-4.6,5.1-8.4,8.6-11.7,10.6
			c-3.4,2.1-6.8,3.2-10.3,3.4l-1,0.2c-1.6,0.3-2.8,0.5-3.6,0.5c-3.4,0-5-0.7-5-2.2c0-0.7,0.4-1.1,1.3-1.1c0.4,0,1.1,0.2,2.1,0.5
			c2.1,0.7,3.7,1.1,4.9,1.3c1.9-0.5,3.4-1.6,4.5-3.4c1.1-1.6,1.6-3.5,1.6-5.5c0-2.5-1-5.1-2.9-8l-0.7-1.1c-0.3,0.3-0.7,0.7-1.2,1.3
			l-1.3,1.6c-0.3,0.4-0.6,0.6-0.9,0.6s-0.4-0.1-0.4-0.4c0-0.2,0.3-0.6,0.8-1.2c0.5-0.6,1.3-1.4,2.2-2.5l0.3-0.3
			c-0.4-0.9-0.5-1.7-0.5-2.4c0-0.8,0.2-1.6,0.7-2.4c0.6-0.9,1.3-1.4,2-1.4c0.8,0,1.2,0.5,1.2,1.5c0,1.1-0.5,2.3-1.5,3.5l-0.4,0.5
			c-0.1,0.1-0.1,0.2-0.1,0.3c0,0.2,0.1,0.3,0.2,0.4l0.2,0.3c0.2,0.2,0.5,0.6,1,1.2c2.9,3.2,4.3,6,4.3,8.6c0,3.2-1.8,6-5.4,8.4
			c3.9-0.7,8.3-3.2,13.1-7.7c2.4-2.2,4.9-4.8,7.5-7.9c0.4-0.5,0.7-0.7,0.8-0.7C421.5,656.4,421.6,656.6,421.6,656.8z"/>
		<path class="st0" d="M463.3,657.1c0,0.2-0.4,0.7-1.2,1.6l-1.7,1.9c-8.9,9.6-16,14.4-21.3,14.4c-2.3,0-4.2-0.7-5.8-2.1
			c-1.7-1.5-2.5-3.3-2.5-5.6c0-2.7,0.7-4.1,2.2-4.1c0.1,0,0.2,0,0.3,0l4.2,0.3c0.3,0,0.9-0.3,2-0.9c1.7-1,2.5-2.2,2.5-3.7
			c0-2.2-1.3-3.4-4-3.4c-4.7,0-9.1,2.7-13.4,8.1c-1.9,2.4-3.3,5-4.1,7.7c-1.1,1-2,1.6-2.4,1.6c-0.6,0-0.9-0.4-0.9-1.3
			c0-1.4,0.5-4.4,1.5-9c1.3-5.9,3.3-11.9,6-18.1c1.3-2.9,2.8-6,4.5-9.2c5.3-9.9,9.2-14.8,11.7-14.8c0.6,0,0.9,0.4,0.9,1.2
			c0,1.4-0.7,3.9-2.2,7.4c-2,4.8-4.6,9.7-7.9,14.6c-1.5,2.3-2.9,4.2-4.3,5.9l-3.3,4.1c-0.2,0.3-0.6,0.7-1,1.3
			c-1.5,4.4-2.2,8.5-2.3,12.5c3.4-5.8,7.5-9.9,12.4-12.2c2.3-1.1,4.5-1.7,6.8-1.7c1.2,0,2.3,0.4,3.2,1.1s1.4,1.7,1.4,2.9
			c0,2.4-1.4,4.4-4.3,5.9c-1.3,0.7-2.6,1-3.9,1H435c-1,0-1.5,0.7-1.5,2.1c0,1.7,0.6,3.2,1.8,4.5s2.7,1.9,4.4,1.9c3.1,0,6.7-1.7,11-5
			c3.3-2.6,6.3-5.4,9-8.4l1.4-1.6c0.2-0.2,0.5-0.5,0.8-0.9s0.6-0.6,0.9-0.6C463.1,656.6,463.3,656.8,463.3,657.1z M440.1,623.7
			c0-0.6-0.2-0.8-0.7-0.8s-1.2,0.6-2.2,1.8s-2.1,2.8-3.3,4.8c-2.8,4.8-5.4,10.1-7.6,15.9c-1,2.7-1.9,5.2-2.5,7.4
			c4-4.2,8-10.1,11.8-17.7c1.9-3.8,3.1-6.3,3.5-7.5l0.7-2.1C440,624.8,440.1,624.2,440.1,623.7z"/>
		<path class="st0" d="M487,656.9c0,0.2-0.6,0.9-1.7,2.2c-9.8,10.9-17.1,16.4-22.1,16.4c-1.9,0-3.4-0.6-4.5-1.9s-1.8-2.8-1.8-4.7
			c0-2.6,1-5.5,2.9-8.5c1.7-2.6,3.7-4.9,6.1-6.8c2.6-2.1,5-3.2,7-3.2c2.1,0,3.2,0.9,3.2,2.7c0,3.3-2.4,6.2-7.3,8.5
			c-2.1,1-4.2,1.6-6.2,1.6c-0.3,0-1,0-2-0.1c-0.4,1.5-0.6,2.8-0.6,3.8c0,1.6,0.5,3,1.5,4.1s2.3,1.6,3.9,1.6c3.1,0,6.8-2,11.3-6
			c2.4-2.1,4.9-4.6,7.5-7.6l1.2-1.3c0.3-0.3,0.5-0.6,0.7-0.8c0.3-0.3,0.5-0.5,0.7-0.5C486.9,656.5,487,656.6,487,656.9z
			 M473.9,654.1c0-1.3-0.7-2-2.2-2c-2.2,0-4.7,1.6-7.5,4.7c-1.2,1.3-2.3,3.1-3.3,5.3c0.6,0.1,1.2,0.2,1.9,0.2c3.6,0,6.7-1.5,9.4-4.4
			C473.3,656.6,473.9,655.3,473.9,654.1z"/>
		<path class="st0" d="M551.7,657.4c0,0.2-0.2,0.5-0.6,1l-2.1,2.2c-0.7,0.7-1.7,1.8-3.3,3.3c-6.1,6-10.8,9-14.1,9
			c-1,0-1.9-0.4-2.6-1.2c-0.7-0.8-1.1-1.7-1.1-2.7c0-0.7,0.2-1.8,0.5-3.3l0.8-3.2c0.5-1.9,0.7-3.1,0.7-3.6c0-0.9-0.4-1.4-1.3-1.4
			c-1.6,0-4.7,1.6-9.2,4.9c-4,2.9-7.1,5.8-9.4,8.8c-0.9,1.1-1.4,1.7-1.7,1.7c-0.7,0-1-0.7-1-2.1c0-7.7,3.1-18.1,9.4-31
			c2.9-6,5.7-10.9,8.4-14.6c2.2-3,3.9-4.5,5.2-4.5c0.7,0,1,0.4,1,1.2c0,3.3-2.4,9.1-7.2,17.5c-2.5,4.3-5.7,8.9-9.7,13.6l-1.8,2.1
			l-0.2,0.8c-0.6,2.2-1.1,4.9-1.7,8c-0.3,1.7-0.4,2.9-0.4,3.7c0,0.5,0.1,0.8,0.4,0.8c0.2,0,0.5-0.2,0.8-0.5c2.5-2.5,5.4-4.9,8.7-7.2
			c5.1-3.5,8.7-5.3,10.8-5.3c1.3,0,2,0.7,2,2.1c0,0.6-0.1,1.4-0.4,2.4c-1,4.1-1.6,6.8-1.6,8.1c0,2,0.8,3,2.3,3
			c2.9,0,7.6-3.4,14-10.3l1.7-1.8c0.5-0.5,0.9-1,1.3-1.4c0.4-0.4,0.6-0.6,0.8-0.6C551.5,656.9,551.7,657.1,551.7,657.4z
			 M529.7,623.9c0-0.8-0.2-1.2-0.6-1.1c-1,0-3,2.5-6,7.4c-4.3,7.2-7.6,14.7-9.8,22.6c1-1,2.4-2.8,4.2-5.3
			c4.5-6.4,7.9-12.2,10.3-17.4C529,627.1,529.7,625,529.7,623.9z"/>
		<path class="st0" d="M576.6,656.9c0,0.3-0.4,0.9-1.3,1.6c-2.2,1.9-4.8,2.9-7.7,2.9c-1,0-2.2-0.2-3.7-0.5c0.1,1.2,0.1,2,0.1,2.3
			c0,4.2-2,7.8-6,10.6c-1.8,1.2-3.5,1.9-5.3,1.9c-2.1,0-3.7-0.7-5-2.2s-1.9-3.3-1.9-5.4c0-5.4,2.7-10,8-13.6
			c2.3-1.6,4.7-2.4,6.9-2.4c2.3,0,3.5,0.4,3.5,1.1c0,0.3-0.2,0.6-0.6,1c-0.4,0.4-0.7,0.6-1,0.6l-0.5-0.2c-1.1-0.6-2-0.9-2.8-0.9
			c-3,0-5.5,1.3-7.7,3.9c-2.1,2.5-3.1,5.2-3.1,8.2c0,1.9,0.5,3.5,1.6,4.8c1.1,1.4,2.6,2.1,4.4,2.1c2.4,0,4.4-1,6.1-3
			c1.6-1.9,2.3-4.1,2.3-6.5c0-0.8-0.1-1.7-0.3-2.6c-0.5-0.2-0.7-0.3-0.8-0.3c-1.6-0.7-2.4-1.3-2.4-2.1c0-0.5,0.3-0.8,1-0.8
			c1,0,2,0.8,2.9,2.4c1.5,0.5,2.8,0.8,4.2,0.8c3.1,0,5.7-1.2,7.9-3.6c0.3-0.3,0.5-0.5,0.7-0.5C576.4,656.4,576.6,656.6,576.6,656.9z
			"/>
		<path class="st0" d="M603.4,657.1c0,0.2-0.6,0.9-1.8,2.2c-9.1,10.2-16,15.3-20.6,15.3c-4.7,0-7.1-3.9-7.1-11.8
			c0-6,1.4-12.5,4.2-19.6c3.6-9.2,7.2-16,10.8-20.4c1.7-2,3.2-3,4.5-3c1.4,0,2.1,0.9,2.1,2.8c0,3.6-2.8,10-8.5,19
			c-1.4,2.2-2.9,4.5-4.6,6.8L580,652l-2,2.5c-0.1,0.2-0.4,0.5-0.8,1.1c-0.2,1.3-0.3,2.8-0.3,4.4c0,8.2,2,12.4,5.9,12.4
			c3.3,0,7.9-3,13.8-9c2.6-2.7,4.4-4.6,5.4-5.8c0.5-0.6,0.8-0.8,1-0.8C603.2,656.6,603.4,656.8,603.4,657.1z M594.1,623.6
			c0-1.2-0.5-1.9-1.5-1.9c-1.5,0-3.5,2.2-6,6.5c-1.6,2.8-3,5.6-4.2,8.5c-1.6,3.8-2.8,7.6-3.9,11.4c-0.4,1.6-0.8,3.4-1.2,5.3
			c2.3-2.6,5.1-6.4,8.3-11.4C591.3,633.5,594.1,627.3,594.1,623.6z"/>
		<path class="st0" d="M622.7,657.3c-0.3,0.4-1.1,1.4-2.5,2.9c-5.6,5.9-10.4,9.9-14.4,12.1c-2,1.1-3.7,1.7-4.9,1.7
			c-2.4,0-3.6-1.3-3.6-3.9c0-2.9,1.4-6.7,4.1-11.4c1-1.8,2-3.3,2.7-4.3c1.3-0.4,2.4-0.6,3.4-0.7l-0.5,0.7c-2.1,3.2-3.8,6.1-4.9,8.8
			c-1,2.2-1.5,4.2-1.5,5.9s0.7,2.6,2.1,2.6c2.5,0,6.2-2.2,11.2-6.6c2.6-2.2,4.8-4.5,6.8-6.7c0.8-0.9,1.4-1.4,1.6-1.4
			C622.5,656.9,622.7,657,622.7,657.3z M615.6,642.1c-0.2,0.1-0.3,0.2-0.4,0.3l-1.6,1.2c-1.4,1.1-3,2.5-4.7,4.2l-0.2,0.2
			c-0.6-0.2-0.8-0.5-0.8-0.8c0-0.6,0.7-1.6,2.1-3.1c1.6-1.7,3-2.5,4.2-2.5C614.6,641.6,615.1,641.8,615.6,642.1z"/>
		<path class="st0" d="M646.8,657.2c0,0.2-0.2,0.6-0.6,1l-1.9,2.1c-7.6,8.3-13.6,13.1-18.2,14.2c-0.9,0.2-1.7,0.3-2.5,0.3
			c-3.9,0-5.9-2.2-5.9-6.7c0-4.4,2.1-8.8,6.3-13.2c4.1-4.2,8.1-6.3,12.1-6.3c2.7,0,4.1,1,4.1,3.1c0,1.8-0.8,3.4-2.5,5
			s-3.4,2.3-5.2,2.3c-0.4,0-0.6-0.1-0.6-0.4c0-0.3,0.5-0.8,1.5-1.5h0.4c1.2,0,2.4-0.4,3.4-1.3c1-0.9,1.6-2,1.6-3.2
			c0-1.7-1.2-2.6-3.6-2.6c-2.3,0-4.8,1.1-7.5,3.2c-2.8,2.1-4.8,4.8-6.2,8.1c-0.7,1.7-1.1,3.2-1.1,4.6c0,1.7,0.5,3.1,1.5,4.3
			c1,1.3,2.4,1.9,4.1,1.9c2.8,0,6.5-2,11-5.9c3-2.6,5.8-5.4,8.3-8.4l0.5-0.6c0.3-0.4,0.6-0.6,0.8-0.6
			C646.7,656.8,646.8,656.9,646.8,657.2z"/>
		<path class="st0" d="M672.4,656.8c0,0.2-0.4,0.7-1.2,1.6c-0.3,0.4-0.7,0.8-1.1,1.3c-4.6,5.1-8.4,8.6-11.7,10.6
			c-3.4,2.1-6.8,3.2-10.3,3.4l-1,0.2c-1.6,0.3-2.8,0.5-3.6,0.5c-3.4,0-5-0.7-5-2.2c0-0.7,0.4-1.1,1.3-1.1c0.4,0,1.1,0.2,2.1,0.5
			c2.1,0.7,3.7,1.1,4.9,1.3c1.9-0.5,3.4-1.6,4.5-3.4c1.1-1.6,1.6-3.5,1.6-5.5c0-2.5-1-5.1-2.9-8l-0.7-1.1c-0.3,0.3-0.7,0.7-1.2,1.3
			l-1.3,1.6c-0.3,0.4-0.6,0.6-0.9,0.6c-0.3,0-0.4-0.1-0.4-0.4c0-0.2,0.3-0.6,0.8-1.2c0.5-0.6,1.3-1.4,2.2-2.5l0.3-0.3
			c-0.4-0.9-0.5-1.7-0.5-2.4c0-0.8,0.2-1.6,0.7-2.4c0.6-0.9,1.3-1.4,2-1.4c0.8,0,1.2,0.5,1.2,1.5c0,1.1-0.5,2.3-1.5,3.5l-0.4,0.5
			c-0.1,0.1-0.1,0.2-0.1,0.3c0,0.2,0.1,0.3,0.2,0.4l0.2,0.3c0.2,0.2,0.5,0.6,1,1.2c2.9,3.2,4.3,6,4.3,8.6c0,3.2-1.8,6-5.4,8.4
			c3.9-0.7,8.3-3.2,13.1-7.7c2.4-2.2,4.9-4.8,7.5-7.9c0.4-0.5,0.7-0.7,0.8-0.7C672.2,656.4,672.4,656.6,672.4,656.8z"/>
		<path class="st0" d="M694.7,656.9c0,0.2-0.5,0.8-1.4,1.9c-9,10.1-15.8,15.2-20.4,15.2c-1.6,0-2.9-0.5-3.9-1.6s-1.5-2.5-1.5-4.1
			c0-1.5,0.3-3.2,0.8-4.9c0.7-2.2,1.7-4.6,3.1-7.1l0.4-0.8l-6.2,0.3l1.1-1.2h5.6l0.4-0.8c0.7-1.4,1.9-3.4,3.3-5.8l3-4.9l3.5-0.6
			l-1.3,1.9c-1.8,2.9-3.5,5.7-5,8.5l-0.9,1.7l12.4-0.6l-0.8,1.2h-1.2c-0.8,0-2.3,0-4.5,0c-2.3,0-4.1,0-5.3,0.1H675
			c-3,5.6-4.5,9.8-4.5,12.5s1.2,4.1,3.6,4.1c2.4,0,5.3-1.5,8.9-4.5c3-2.5,6.1-5.6,9.4-9.3l0.9-1c0.4-0.4,0.7-0.6,0.8-0.6
			C694.6,656.5,694.7,656.7,694.7,656.9z"/>
		<path class="st0" d="M721.3,656.7c0,0.2-0.3,0.7-0.8,1.3c-1.9,2-3.8,3-5.8,3c-1.6,0-3.1-0.7-4.5-2.1c-4.8,9.7-9.8,14.5-15.2,14.5
			c-1.6,0-2.8-0.6-3.8-1.8c-0.9-1.1-1.3-2.4-1.3-4.1c0-3.7,1.9-7.9,5.7-12.6c1.1-0.6,2.3-0.9,3.7-1c-4.4,5.3-6.6,9.8-6.6,13.4
			c0,1.1,0.4,2.1,1.1,2.9c0.7,0.8,1.6,1.2,2.7,1.2c2.6,0,5.4-1.9,8.5-5.8c1.4-1.8,2.6-3.7,3.6-5.7l0.6-1.3c0.2-0.4,0.3-0.7,0.3-0.9
			c0-0.1-0.2-0.7-0.5-1.9c-0.3-1.1-0.5-2.1-0.5-2.9c0-2.7,0.5-4.1,1.6-4.1c0.9,0,1.4,1.2,1.4,3.5c0,1.7-0.3,3.5-0.9,5.4
			c1.1,1.4,2.5,2.1,4.2,2.1c1.9,0,3.7-1,5.4-3.1c0.4-0.4,0.6-0.6,0.8-0.6C721.2,656.3,721.3,656.4,721.3,656.7z"/>
		<path class="st0" d="M745.6,656.9c0,0.3-0.4,0.9-1.3,1.6c-2.2,1.9-4.8,2.9-7.7,2.9c-1,0-2.2-0.2-3.7-0.5c0.1,1.2,0.1,2,0.1,2.3
			c0,4.2-2,7.8-6,10.6c-1.8,1.2-3.5,1.9-5.3,1.9c-2.1,0-3.7-0.7-5-2.2s-1.9-3.3-1.9-5.4c0-5.4,2.7-10,8-13.6
			c2.3-1.6,4.7-2.4,6.9-2.4c2.3,0,3.5,0.4,3.5,1.1c0,0.3-0.2,0.6-0.6,1c-0.4,0.4-0.7,0.6-1,0.6l-0.5-0.2c-1.1-0.6-2-0.9-2.8-0.9
			c-3,0-5.5,1.3-7.7,3.9c-2.1,2.5-3.1,5.2-3.1,8.2c0,1.9,0.5,3.5,1.6,4.8c1.1,1.4,2.6,2.1,4.4,2.1c2.4,0,4.4-1,6.1-3
			c1.6-1.9,2.3-4.1,2.3-6.5c0-0.8-0.1-1.7-0.3-2.6c-0.5-0.2-0.7-0.3-0.8-0.3c-1.6-0.7-2.4-1.3-2.4-2.1c0-0.5,0.3-0.8,1-0.8
			c1,0,2,0.8,2.9,2.4c1.5,0.5,2.8,0.8,4.2,0.8c3.1,0,5.7-1.2,7.9-3.6c0.3-0.3,0.5-0.5,0.7-0.5C745.5,656.4,745.6,656.6,745.6,656.9z
			"/>
	</g>
</g>
</svg>
