<svg xmlns="http://www.w3.org/2000/svg" viewBox="0 0 291.27 267.38"><defs><style>.cls-1,.cls-2{fill:#231f20;}.cls-2{opacity:0.3;}</style></defs><title>Asset 5</title><g id="Layer_2" data-name="Layer 2"><g id="Layer_1-2" data-name="Layer 1"><rect class="cls-1" x="79.44" y="50.93" width="28.47" height="2.86" transform="translate(1.49 107.3) rotate(-60)"/><rect class="cls-1" x="80.16" y="69.45" width="5.69" height="2.86" transform="translate(-19.88 107.32) rotate(-60)"/><rect class="cls-1" x="101.51" y="32.46" width="5.69" height="2.86" transform="translate(22.83 107.32) rotate(-60)"/><rect class="cls-1" x="131.47" y="20.87" width="28.47" height="2.86"/><rect class="cls-1" x="121.48" y="20.89" width="5.69" height="2.86"/><rect class="cls-1" x="164.19" y="20.89" width="5.69" height="2.86"/><rect class="cls-1" x="196.32" y="38.1" width="2.86" height="28.47" transform="translate(0.33 105.89) rotate(-30)"/><rect class="cls-1" x="185.61" y="30.98" width="2.86" height="5.69" transform="translate(8.14 98.05) rotate(-30)"/><rect class="cls-1" x="206.96" y="67.97" width="2.86" height="5.69" transform="translate(-7.49 113.68) rotate(-30)"/><rect class="cls-1" x="183.52" y="110.99" width="28.47" height="2.86" transform="translate(1.52 227.48) rotate(-60)"/><rect class="cls-1" x="205.58" y="92.47" width="5.69" height="2.86" transform="translate(22.9 227.46) rotate(-60)"/><rect class="cls-1" x="184.23" y="129.45" width="5.69" height="2.86" transform="translate(-19.81 227.45) rotate(-60)"/><rect class="cls-1" x="164.26" y="141.02" width="5.69" height="2.86"/><rect class="cls-1" x="121.55" y="141.02" width="5.69" height="2.86"/><rect class="cls-1" x="92.25" y="98.21" width="2.86" height="28.47" transform="translate(-43.67 61.91) rotate(-30)"/><rect class="cls-1" x="102.96" y="128.1" width="2.86" height="5.69" transform="translate(-51.49 69.74) rotate(-30)"/><rect class="cls-1" x="81.61" y="91.11" width="2.86" height="5.69" transform="translate(-35.86 54.11) rotate(-30)"/><path class="cls-1" d="M118.41,23.71V20.85h-8.21L106.05,28l2.49,1.44,1.66-2.87,1.14-2,.38-.65.11-.18,0,0h6.56Z"/><path class="cls-1" d="M182.88,29.4,185.36,28l-4.11-7.11H173v2.87h6.64Z"/><path class="cls-1" d="M210.19,88.08l2.48,1.43,4.11-7.11-4.15-7.17-2.49,1.44,1.66,2.87,1.14,2,.38.65.11.18,0,0h0Z"/><path class="cls-1" d="M173,141.07v2.86h8.21l4.14-7.18-2.49-1.44-1.66,2.87-1.14,2-.38.65-.11.18,0,0H173Z"/><path class="cls-1" d="M108.56,135.38l-2.48,1.43,4.11,7.11h8.29V141h-6.64Z"/><path class="cls-1" d="M81.24,76.7l-2.48-1.43-4.11,7.11,4.15,7.17,2.49-1.44-1.66-2.87-1.14-2-.38-.65L78,82.44l0,0h0Z"/><path class="cls-1" d="M176.59,47.41c0-.15-.2-.22-.29-.12a6.26,6.26,0,0,1-3.56,2.11,18.25,18.25,0,0,1,.79-2.46.17.17,0,0,0-.25-.19,5.73,5.73,0,0,1-3.5,1.24,7.86,7.86,0,0,1-3.54-1.15c-2.09-1.12-4.07-2.48-6.12-3.68a37.53,37.53,0,0,0-6.22-3.06c-1.11-.4-2.26-.6-3.4-.92a18.92,18.92,0,0,0-13.62,1.54,20.77,20.77,0,0,0-6.65,5.77,10.5,10.5,0,0,0-4.84,4.1,16,16,0,0,0-2,7,62.94,62.94,0,0,0,0,7.78,21.82,21.82,0,0,1-.33,6.31c0,.15.17.3.28.17a37.84,37.84,0,0,0,6-10.48.13.13,0,0,0,.12-.09A9,9,0,0,1,137,55.7a12,12,0,0,1,4.95.58c.71.24,1.74.82,2.54,1.15a45.35,45.35,0,0,0,6.81,2.26,34.76,34.76,0,0,0,8.93,1.22,37.63,37.63,0,0,0,6.2,10.92c.11.14.33,0,.28-.17a21.87,21.87,0,0,1-.33-6.31c.06-1.9.13-3.81.08-5.71a20.27,20.27,0,0,0,6.21-4.29A13.53,13.53,0,0,0,176.59,47.41Z"/><path class="cls-1" d="M166.58,78.15c.94,9.47-2.83,15.5-2.83,15.5l0-5.66s-2.37,7.62-6.9,7.62a37.37,37.37,0,0,1-12.12-2.37,34.9,34.9,0,0,1-11.86,2.37c-4.53,0-6.94-7.67-6.94-7.67l0,5.7s-3.77-6-2.83-15.5c0,0-5.29,16.48,1.08,31.73l.94-2.58s-1,4.43,6.83,8.85l.1-2.71s-.82,4.8,12.75,11.07c13.56-6.27,12.13-11.07,12.13-11.07l.41,2.71c7.79-4.43,7.14-8.85,7.14-8.85l.94,2.58C171.87,94.63,166.58,78.15,166.58,78.15Zm-13.92,18.3c-.93,3.65-7.79,4.43-7.79,4.43s-6.86-.78-7.79-4.43c-.74-2.91-.83,2.12-.83,2.12l8.61-3.2,8.61,3.2S153.4,93.54,152.66,96.45Z"/><path class="cls-1" d="M161.25,93.14a1.82,1.82,0,0,0,0-.82.08.08,0,0,0-.16,0c-.46,1.62-1.92,1.95-3.34,1.71a1.11,1.11,0,0,0,.78-.28c.09-.09,0-.26-.14-.18-.3.22-1.32,0-1.67,0l-.67-.06c-1.45-.73-2.58-2-4.13-2.55-1.36-.52-3.42-.88-4.76-.12a4.47,4.47,0,0,0-1.93,2.47.44.44,0,0,0-.08.11,3.88,3.88,0,0,0-.23.68,3.88,3.88,0,0,0-.23-.68.44.44,0,0,0-.08-.11,4.47,4.47,0,0,0-1.93-2.47c-1.34-.76-3.4-.4-4.76.12-1.55.59-2.68,1.82-4.13,2.55l-.67.06c-.35,0-1.37.26-1.67,0-.11-.08-.23.09-.14.18A1.11,1.11,0,0,0,132,94c-1.41.24-2.88-.09-3.34-1.71a.08.08,0,0,0-.16,0,1.82,1.82,0,0,0,0,.82c-.31,1.36,1.14,3,2.08,3.68a11.43,11.43,0,0,0,6,1.75c2.26.18,7.61-.54,8.32-3.24.71,2.7,6.06,3.42,8.32,3.24a11.43,11.43,0,0,0,6-1.75C160.11,96.14,161.56,94.49,161.25,93.14Z"/><path id="_Path_" data-name="&lt;Path&gt;" class="cls-1" d="M140.95,69.71l-1.3-.25a.39.39,0,0,1,0,.35,4.25,4.25,0,0,0-2-.4.74.74,0,0,1,.16.27A11.59,11.59,0,0,0,134,69l.23.14a4.75,4.75,0,0,0-4.15,2.49,9.22,9.22,0,0,0,2.16-.66c1.64-.42,3.27.55,4.91,1a15.06,15.06,0,0,0,4.5.2Z"/><path id="_Path_2" data-name="&lt;Path&gt;" class="cls-1" d="M149.32,69.87l1.24-.24a.37.37,0,0,0,0,.34,4,4,0,0,1,1.9-.38.7.7,0,0,0-.16.25,11,11,0,0,1,3.66-.63l-.22.13a4.52,4.52,0,0,1,4,2.37,8.78,8.78,0,0,1-2.06-.62c-1.56-.4-3.12.52-4.68.92a14.35,14.35,0,0,1-4.28.19Z"/><path class="cls-1" d="M100.18,81.84v1H97.83v3.42h2.88v1h-4V77.58h4v1H97.83v3.28Z"/><path class="cls-1" d="M105.87,79.89v.26h-1v-.32c0-.87-.33-1.37-1.1-1.37s-1.1.51-1.1,1.36c0,2.16,3.23,2.36,3.23,5.07,0,1.46-.7,2.4-2.17,2.4s-2.16-.95-2.16-2.4v-.55h1v.6c0,.87.36,1.37,1.13,1.37s1.13-.51,1.13-1.37c0-2.14-3.21-2.35-3.21-5.05,0-1.48.69-2.4,2.13-2.4S105.87,78.43,105.87,79.89Z"/><path class="cls-1" d="M108.21,87.19V78.56h-1.77v-1h4.61v1h-1.77v8.64Z"/><path class="cls-1" d="M112,85.86v1.33h-1V85.86Z"/><path class="cls-1" d="M179.82,79.91c0,2.9-3.26,3.94-3.27,6.15v.15h3.16v1H175.5v-.82c0-3.1,3.25-3.71,3.25-6.41,0-1-.33-1.51-1.13-1.51s-1.13.56-1.13,1.41v.85h-1v-.78c0-1.47.67-2.44,2.16-2.44S179.82,78.45,179.82,79.91Z"/><path class="cls-1" d="M180.73,79.9c0-1.47.73-2.42,2.2-2.42s2.21.95,2.21,2.42v5c0,1.47-.73,2.43-2.21,2.43s-2.2-1-2.2-2.43Zm1.06,5c0,.87.37,1.39,1.14,1.39s1.14-.52,1.14-1.39V79.85c0-.88-.36-1.4-1.14-1.4s-1.14.52-1.14,1.4Z"/><path class="cls-1" d="M188.12,79.32a2.88,2.88,0,0,1-1.33.41v-.88a1.64,1.64,0,0,0,1.65-1.28h.74v9.61h-1.06Z"/><path class="cls-1" d="M195.11,79.89v.18h-1v-.25c0-.87-.36-1.37-1.14-1.37S191.8,79,191.8,80v2.16a1.55,1.55,0,0,1,1.55-1c1.24,0,1.79.89,1.79,2.28v1.46c0,1.47-.73,2.43-2.2,2.43s-2.21-1-2.21-2.43V80c0-1.52.69-2.47,2.21-2.47S195.11,78.42,195.11,79.89Zm-3.31,3.6v1.44c0,.87.36,1.39,1.14,1.39s1.14-.52,1.14-1.39V83.49c0-.87-.37-1.39-1.14-1.39S191.8,82.62,191.8,83.49Z"/><rect class="cls-1" x="175.33" y="74.49" width="20.1" height="0.38"/><rect class="cls-1" x="175.33" y="89.75" width="20.1" height="0.38"/><rect class="cls-1" x="94.06" y="74.56" width="20.1" height="0.38"/><rect class="cls-1" x="94.06" y="89.83" width="20.1" height="0.38"/><path class="cls-1" d="M240.6,89.23l.12-.26c-6.16-1.68-10.05-12.9-10.05-12.9-2.6-11.06-13-28.06-16.35-32.67s-6.91,2-6.91,2L216.13,59c5.55.25,12.52,17.48,12.52,17.48C235.42,89.21,240.6,89.23,240.6,89.23Z"/><path class="cls-2" d="M208.16,44.24h0a10.92,10.92,0,0,0-.75,1.18L216.13,59a3.79,3.79,0,0,1,1.74.58Z"/><path class="cls-1" d="M227.27,101.79s12.41-21.15,8.8-23.28-6.76,11.36-16.5,25.2-14.8,18.62-12.74,21.39S221.2,113.3,227.27,101.79Z"/><circle class="cls-2" cx="233.7" cy="82.99" r="0.96" transform="translate(-3.41 155.66) rotate(-36.59)"/><circle class="cls-2" cx="222.97" cy="103.78" r="0.96" transform="translate(-17.86 153.63) rotate(-36.65)"/><circle class="cls-2" cx="216.65" cy="112.74" r="0.96" transform="translate(-24.48 151.51) rotate(-36.63)"/><circle class="cls-2" cx="210.19" cy="121.09" r="0.96" transform="translate(-30.74 149.31) rotate(-36.63)"/><path class="cls-1" d="M50.67,89.58l-.12-.26c6.16-1.68,10.05-12.9,10.05-12.9,2.6-11.06,13-28.06,16.35-32.67s6.91,2,6.91,2L75.14,59.31c-5.55.25-12.52,17.48-12.52,17.48C55.85,89.57,50.67,89.58,50.67,89.58Z"/><path class="cls-2" d="M83.11,44.59h0a10.92,10.92,0,0,1,.75,1.18L75.14,59.31a3.79,3.79,0,0,0-1.74.58Z"/><path class="cls-1" d="M64,102.15S51.59,81,55.21,78.87,62,90.24,71.7,104.07s14.8,18.62,12.74,21.39S70.07,113.65,64,102.15Z"/><circle class="cls-2" cx="57.57" cy="83.35" r="0.96" transform="translate(-43.67 79.89) rotate(-53.41)"/><circle class="cls-2" cx="68.3" cy="104.13" r="0.96" transform="translate(-56.01 96.77) rotate(-53.35)"/><circle class="cls-2" cx="74.63" cy="113.09" r="0.96" transform="translate(-60.66 105.51) rotate(-53.37)"/><circle class="cls-2" cx="81.09" cy="121.45" r="0.96" transform="translate(-64.76 114.06) rotate(-53.37)"/><path class="cls-1" d="M182.36,3.81V13.89a.6.6,0,1,1-1.19,0V5.53h-1.52v8.36a.6.6,0,1,1-1.19,0V5.53h-1.52v8.36a.59.59,0,1,1-1.19,0V5.53h-1.52v8.36a.6.6,0,0,1-1.19,0V5.54h-1.52V13.9a.59.59,0,1,1-1.19,0V5.54h-1.52V13.9a.6.6,0,1,1-1.19,0V5.54h-1.52V13.9a.6.6,0,1,1-1.19,0V5.54h-1.52V13.9a.6.6,0,1,1-1.19,0V5.54h-1.52V13.9a.59.59,0,1,1-1.19,0V5.54h-1.52V13.9a.59.59,0,0,1-1.19,0V5.54h-1.52V13.9a.6.6,0,0,1-1.19,0V5.55h-1.52v8.36a.6.6,0,0,1-1.19,0V5.55H149.8v8.36a.6.6,0,0,1-1.19,0V5.55h-1.52v8.36a.6.6,0,1,1-1.19,0V5.55h-1.52v8.36a.6.6,0,1,1-1.19,0V5.55h-1.52v8.36a.59.59,0,0,1-1.19,0V5.55h-1.52v8.36a.6.6,0,0,1-1.19,0V5.55h-1.52v8.36a.59.59,0,0,1-1.19,0V5.56h-1.52v8.36a.6.6,0,0,1-1.19,0V5.56H130.8v8.36a.6.6,0,1,1-1.19,0V5.56h-1.52v8.36a.6.6,0,0,1-1.19,0V5.56h-1.52v8.36a.6.6,0,0,1-1.19,0V5.56h-1.52v8.36a.6.6,0,0,1-1.19,0V5.56h-1.52v8.36a.6.6,0,0,1-1.19,0V5.56h-1.52v8.36a.6.6,0,0,1-1.19,0V5.56h-1.52v8.36a.6.6,0,0,1-1.19,0V5.56H111.8v8.36a.6.6,0,0,1-1.19,0V5.57h-1.52v8.36a.6.6,0,1,1-1.19,0V3.85A3.82,3.82,0,0,1,111.71,0l66.83,0A3.82,3.82,0,0,1,182.36,3.81Z"/><path class="cls-1" d="M157.65,143.91h1.6c.23,0,.47-.07.71-.12V141H158.2c-1.13.63-2.25,1.25-3.37,1.85A8,8,0,0,0,157.65,143.91Z"/><circle class="cls-1" cx="145.13" cy="142.5" r="1.22" transform="translate(-34.74 47.54) rotate(-16.65)"/><path class="cls-1" d="M139.45,144c-2.59,1.35-5.27,3.2-9.31,2.16a8.34,8.34,0,0,0-6.24,1.11c-3,1.81-4.56,4.93-3.93,7.49,0,.08,0,.17.06.25a4.39,4.39,0,0,1-4.62-1.15c-.62-.73-1.8.17-1.19.9a6,6,0,0,0,6.48,1.59,5.4,5.4,0,0,0,.4.46c1.92,2,5.56,2.15,8.7.26a8.49,8.49,0,0,0,3.79-4.56s2.13-3.12,7.91-5.53c.52-.21,1.17-.51,1.92-.86C142.2,145.5,140.86,144.78,139.45,144Zm-10.28,12c-2.78,1.67-6.07,1.29-7.36-.84s-.07-5.22,2.7-6.9,6.07-1.29,7.36.84S132,154.38,129.18,156.05Z"/><path class="cls-1" d="M134.19,141h-2.7v2.86h2.81a14.59,14.59,0,0,0,2.77-1.22Z"/><path class="cls-1" d="M152.3,141.47l.17.09c9.07-4.83,19.79-11.2,19.63-13.16l-23.48,11.22Z"/><path class="cls-1" d="M143.3,139.51l-24-12.1c-.23,2.19,12.92,10.11,22.29,15.19A3.52,3.52,0,0,1,143.3,139.51Z"/><path class="cls-1" d="M167,147.21a8.34,8.34,0,0,0-6.22-1.24c-4.47,1.05-6.68-1-9.5-2.44l-2.65-1.33a3.52,3.52,0,0,1-1.57,3.24c.94.47,1.74.85,2.35,1.12,5.74,2.53,7.8,5.69,7.8,5.69a8.5,8.5,0,0,0,3.69,4.64c3.48,2.19,7.66,1.8,9.35-.88S170.48,149.4,167,147.21Zm1.91,8c-1.33,2.11-4.63,2.42-7.37.69s-3.88-4.84-2.56-6.94,4.63-2.42,7.37-.69S170.24,153.07,168.91,155.18Z"/><path class="cls-1" d="M81.28,244.29c-.86,1.84-3.28,3.2-4.56,2.43-.64-.38-.87-1.43-1-2.57C77.59,247.87,79.45,244.52,81.28,244.29Z"/><path class="cls-1" d="M243,243.88c1.59,3.91,3.41.7,5.17.35-.63,1.84-3.16,3.21-4.57,2.5C242.5,246.18,242.23,245.29,243,243.88Z"/><path class="cls-1" d="M99.85,247.12c0-2.44.59-3.1,2.49-3Z"/><path class="cls-1" d="M130,247.28c.5-2.83,1-3.32,2.74-3Z"/><path class="cls-1" d="M190.35,218.76a11.08,11.08,0,0,0-5.28,3.69l6.62,6.59c-2.06.39-3.9,0-6.1.25l1.27-1.38a25.62,25.62,0,0,0-3.69-3.51,14.93,14.93,0,0,1,0,2.54c-.22,1.15,1.11,1,1.37,1.77a9,9,0,0,1-5.35.27c.12-.16.21-.4.35-.43,1-.22,1.2-.92,1.18-1.85,0-1.86-.06-3.73,0-5.59a2,2,0,0,0-1.35-2.33,9.8,9.8,0,0,1,5.12-.18c-2,1.17-1.14,2.76-1.35,4.57l3.42-3.51-1-.79a5.75,5.75,0,0,1,4.72-.06c1.69-.84,3.46-.4,5.2-.3,0,0,0,.11.08.28l-.9.73,2.38,3.54,2.4-3.58-1.38-.67a5.06,5.06,0,0,1,3.82-.15c-1.21,1.41-2.38,2.91-3.69,4.26s-.55,2.79-.69,4.2c-.11,1.17,1.25.67,1.55,1.48-.25.2-.48.55-.72.55-1.61,0-3.22,0-5.25,0,.79-.68,1.59-1,1.64-1.47.13-1.11.3-2.5-.22-3.35C193.32,222.39,192.29,220.21,190.35,218.76Z"/><path class="cls-1" d="M178.43,193.64c.36,1,.77,1.81,1,2.72,1.22,4.6,7.68,7.58,11.4,6.81a4.08,4.08,0,0,0,3.5-3.29c.72-3,0-5.48-2.34-7.19a33.23,33.23,0,0,0-3.42-2.08c-2.12-1.17-4.29-2.24-6.38-3.46a15.08,15.08,0,0,1-2.88-2.19c-3.75-3.64-4.49-9.4-1.62-13.34a14.44,14.44,0,0,1,8.15-5.35,20.93,20.93,0,0,1,8.32-.18,14.93,14.93,0,0,1,2.58.66,2.15,2.15,0,0,1,1.63,2.12c.05,1.41.1,2.83.23,4.23.16,1.63-.75,2.48-2,3.14a1,1,0,0,1-1.56-.49,25.3,25.3,0,0,0-1.27-2.58c-2.33-3.76-5.14-4.27-8.83-3.74a2.45,2.45,0,0,0-1.28.73c-2,2.09-1.93,6.23.92,7.86,1.32.76,2.68,1.46,4.05,2.12a38.06,38.06,0,0,1,8.73,5.05c4.07,3.47,4.86,8.84,3,13.51-1.25,3.07-3.81,4.72-6.49,6.23a15.55,15.55,0,0,1-8.29,1.75,32.74,32.74,0,0,1-7.16-.82c-3.2-.83-3.58-1.84-3.57-4.79,0-1,.22-2.06.19-3.08C174.94,195.72,176,194.35,178.43,193.64Z"/><path class="cls-1" d="M203.16,179.8c1.44-1.59,2.06-1.94,3.34-1.94h8.37a4.15,4.15,0,0,1,1.13.06,1.18,1.18,0,0,1,.66.56c.07.14-.1.52-.26.64a7.69,7.69,0,0,1-1.93,1.18,1.48,1.48,0,0,0-1.12,1.72c0,2.12,0,4.25,0,6.37,0,1.44.27,1.71,1.68,1.72,2.54,0,5.08,0,7.62-.09a16.58,16.58,0,0,0,1.87-.27c0-2.47,0-4.9,0-7.33a1.62,1.62,0,0,0-1.37-1.61c-.66-.2-1.58,0-2-1a5.26,5.26,0,0,1,4.14-1.92c2.28.09,4.56-.06,6.84-.1a11.75,11.75,0,0,1,1.71,0,5,5,0,0,1,1.2.62,15.55,15.55,0,0,1-2.8,1.68,1.29,1.29,0,0,0-1,1.52c0,1.87,0,3.73,0,5.6q0,6.47,0,12.94c0,2,.11,2.16,1.94,2.73a5.7,5.7,0,0,1,.91.27c.56.28.7.88.23,1.24a4.47,4.47,0,0,1-2.88,1.31c-3.24-.06-6.48,0-9.72,0a3.41,3.41,0,0,1-.94-.09c-.6-.18-.79-.81-.3-1.15a10.9,10.9,0,0,1,2.61-1.49c1.33-.46,1.41-.36,1.43-1.77q.06-3.28,0-6.56c0-1.47-.15-1.59-1.7-1.62-1.72,0-3.43,0-5.15,0h-4.15c0,2.56,0,4.92,0,7.29,0,2,.24,2.23,2.22,2.68a5.33,5.33,0,0,1,.56.11c.79.27,1,.94.35,1.42a4.59,4.59,0,0,1-2.91,1.23c-3.3-.06-6.61,0-9.91,0a6.51,6.51,0,0,1-1.25-.26c.24-1.12,1.1-1.4,1.77-1.8a13.42,13.42,0,0,1,2.2-.87,4.82,4.82,0,0,0,.12-.69c0-6.5,0-13,0-19.5a1.84,1.84,0,0,0-1.46-2C204.61,180.36,203.93,180.09,203.16,179.8Z"/><path class="cls-1" d="M132.75,192.38c0,3,0,5.58,0,8.15,0,1.33.45,1.83,1.82,2a17.82,17.82,0,0,0,3.2,0A2.57,2.57,0,0,0,140.2,201a5.36,5.36,0,0,1,2.48-2.58A8,8,0,0,1,144,198a5.5,5.5,0,0,1,.17,1.46,23.53,23.53,0,0,0-.61,3,3,3,0,0,1-2.14,2.86,5.09,5.09,0,0,1-2,.3c-5.46,0-10.93,0-16.39,0-.19,0-.41.07-.57,0a2.57,2.57,0,0,1-1-.66c-.09-.13.22-.69.47-.9a3.93,3.93,0,0,1,2.68-1.29c.93,0,1.22-.45,1.2-1.31s0-1.8,0-2.7q0-7.72,0-15.44c0-2.56-.08-2.65-2.52-3.21a2.35,2.35,0,0,1-.73-.2c-.45-.28-.64-.7-.13-1.07a4.8,4.8,0,0,1,2.9-1.28c5.21.11,10.41.18,15.62.27.51,0,1,0,1.52.09a1,1,0,0,1,1,1.15c0,1.16-.05,2.32,0,3.47a2,2,0,0,1-1.19,2.18c-.38.19-.73.44-1.23.74a6.33,6.33,0,0,1-1-1.49,3.77,3.77,0,0,0-3.14-2.74c-1.33-.29-2.7-.43-4.25-.66,0,2.84,0,5.4,0,8,0,.91.49,1.26,1.32,1.26.38,0,.76,0,1.14,0,1.23.08,2.22-.18,2.67-1.55.37-1.15,1.55-1.45,2.43-2,.13-.08.65.23.82.48a1.87,1.87,0,0,1,.07.94c0,2.19-.12,4.37-.09,6.56a2.17,2.17,0,0,1-1.18,2c-1.41.93-1.78.84-2.21-.81-.25-1-.53-1.9-1.59-2.21S134.06,192.69,132.75,192.38Z"/><path class="cls-1" d="M86.2,217.65c0,3.08,0,5.76,0,8.45a1.77,1.77,0,0,0,1.4,1.82c.38.13.75.31,1.44.6-.65.37-1,.74-1.36.75-1.84,0-3.72.36-5.82-.32.47-.37.68-.69.93-.71,1.52-.15,1.53-1.2,1.52-2.36,0-2.57,0-5.15.06-7.72,0-2.24,0-2.24-1.92-3.24,0,0,0-.12-.08-.21.21-.71.83-.65,1.38-.69.76-.06,1.52,0,2.28-.1a3.14,3.14,0,0,1,3,1.26c1.88,2.34,3.85,4.62,5.79,6.91.35.41.75.79,1.43,1.5,0-2.24,0-4,0-5.83,0-2.56.12-2.1-2-2.72-.09,0-.14-.2-.29-.43,1.23-1.09,2.8-.38,4.14-.73.6-.16,1.37-.35,1.9.38-.15.18-.25.43-.4.46-1.56.36-1.58,1.51-1.58,2.81,0,3.41-.05,6.82-.11,10.23a6.22,6.22,0,0,1-.21,1.71.7.7,0,0,1-1.21.27c-.18-.18-.29-.42-.45-.62Z"/><path class="cls-1" d="M117.83,229.88c-.42-.78-.62-1.1-.77-1.44-1-2.29-2-4.57-3-6.87a4.13,4.13,0,0,0-2.42-2.74c2.13-.7,3.88-.28,6-.5-.51.48-.66.65-.84.79s-.47.32-.74.51l2.75,5.8c.73-1.84,1.31-3.34,1.91-4.82.31-.76.16-1.24-.69-1.4-.14,0-.25-.2-.56-.45a6.22,6.22,0,0,1,1.38-.38q4.76,0,9.52,0c1.49,0,1.9.58,1.53,2-.06.22-.26.55-.42.56a1,1,0,0,1-.79-.28c-.67-1.21-1.72-1.29-2.84-1.23v3.33c1.54,1.08,1.78-1.07,2.89-.9.42,2.48.34,2.93-.72,3.8-.49-.75-.79-1.86-2.26-1.37,0,.68-.08,1.43-.07,2.18,0,1.51.36,1.83,1.83,1.54a3.25,3.25,0,0,0,1.2-.77c.41-.32.6-1,1.34-.72.12,2.57-.65,2.79-2.74,2.74-1.65,0-3.3,0-5,0a10.25,10.25,0,0,1-1.32-.23,5.28,5.28,0,0,1,1.15-.8,1,1,0,0,0,.83-1.1c0-2.25,0-4.5,0-6.76,0-.94-.43-1.23-1.33-1.23s-1.18.53-1.48,1.24q-1.58,3.82-3.25,7.6A19.26,19.26,0,0,1,117.83,229.88Z"/><path class="cls-1" d="M159.14,217.72l-.36-.47c1-.74,2-1.52,3-2.22.45-.3.83-.07,1,.66Z"/><path class="cls-1" d="M127.34,217.71l-.35-.47c1-.75,2-1.52,3-2.22.15-.1.52.13.79.2-.08.22-.09.55-.24.64C129.48,216.51,128.41,217.1,127.34,217.71Z"/><path class="cls-1" d="M76.68,192.89c1.14-.08,1.73.75,2.21,1.52.84,1.35,1.56,2.79,2.3,4.21.94,1.82,1.89,3.65,2.75,5.51a2.41,2.41,0,0,0,2.56,1.55c1.71-.07,3.43,0,5.14,0,.78,0,1.71-.75,2.29-.49a4.5,4.5,0,0,0,2.14.51c1.2-.07,2.41-.27,3.61-.26,2.09,0,4.18.16,6.28.22a37.56,37.56,0,0,0,4.38,0c4.2-.37,7.56-2.25,9.39-6.22a6.81,6.81,0,0,0-3-9.09c-.49-.26-1-.56-1.58-.93.64-.51,1.15-1,1.7-1.36,2.58-1.86,2.91-7.24-.9-9.07a11.17,11.17,0,0,0-4.17-1.25,99.58,99.58,0,0,0-13.52.08A6.79,6.79,0,0,0,94,180a2.15,2.15,0,0,0,2.09.85c1.36,0,1.66.18,1.64,1.89,0,5.28-.07,10.55-.1,15.83,0,1.34,0,2.69,0,4l-2.26,1a6.34,6.34,0,0,0-1.59-.65,4.57,4.57,0,0,1-3.49-2.4c-1.1-1.8-2.13-3.65-3.16-5.5-.8-1.44-1.54-2.91-2.37-4.49.83-.59,1.59-1.16,2.36-1.7a5.6,5.6,0,0,0,2.48-5.67,5.71,5.71,0,0,0-3.9-4.8,8.83,8.83,0,0,0-3-.59c-4.64-.06-9.27,0-13.91,0-1.35,0-2.1,1-3.16,1.59.55,1.07,1.41,1.07,2.19,1.19,1.94.3,1.95.3,1.94,2.31q-.05,8.5-.12,17a7.35,7.35,0,0,1-.11,1.53c-.11.47-.23,1.14-.56,1.31-.75.4-1.76.94-2.44.72a4.85,4.85,0,0,1-3.51-3c-.22-.67-.51-1.32-.75-2q-3.28-9.25-6.54-18.51c-.42-1.19-.82-2.39-1.26-3.68a4.51,4.51,0,0,0-2.84,2.3q-3,6.79-6,13.55c-1.35,3-2.74,6.08-4.08,9.14a4.14,4.14,0,0,1-2.25,2.45,3.63,3.63,0,0,0-2.07,1.8,14.26,14.26,0,0,0,1.46.18c2.16,0,4.32,0,6.48,0A4,4,0,0,0,48,204.6a1.58,1.58,0,0,0,.48-1.13c0-.22-.52-.44-.83-.61a4.67,4.67,0,0,0-.73-.21c-1.17-.39-1.41-.64-1.06-1.81A51.26,51.26,0,0,1,47.61,196a1.34,1.34,0,0,1,1-.64c1.46-.07,2.92,0,4.38,0a1.35,1.35,0,0,1,1.4,1.07q.83,2.77,1.64,5.54a1,1,0,0,1-.56,1.26,8,8,0,0,0-1.57,1.08,1.38,1.38,0,0,0-.35,1c0,.14.48.39.73.39,3.62,0,7.23-.09,10.85-.11,2.46,0,4.91,0,7.37.08,1.52,0,3.06,0,4.57.1a4.13,4.13,0,0,0,3.08-1.25c.57-.48.5-1.07-.2-1.32a19.83,19.83,0,0,0-2.21-.56,1.26,1.26,0,0,1-1.06-1.38C76.69,198.44,76.68,195.69,76.68,192.89Zm27.81-1.08a14.74,14.74,0,0,1,5.77.84,4.17,4.17,0,0,1,2.87,2.88,8,8,0,0,1-.49,5.64,2.61,2.61,0,0,1-2,1.61,8.56,8.56,0,0,1-4.84-.63,1.89,1.89,0,0,1-1.31-1.72C104.48,197.61,104.49,194.8,104.49,191.8Zm0-11.47a9.79,9.79,0,0,1,4.9.38,3.6,3.6,0,0,1,2.8,3.84,10.63,10.63,0,0,1-.47,2.8,2.09,2.09,0,0,1-2.13,1.59c-1.32,0-2.65,0-4,0-.81,0-1.13-.45-1.13-1.2C104.48,185.35,104.48,182.93,104.48,180.33Zm-27.58.28c4.5-.69,6.85,3.17,6,6.61-.49,2-.93,2.36-3,2.57-.5.05-1,.13-1.51.16-1.44.09-1.73-.1-1.76-1.53,0-2.43,0-4.87.06-7.31A1.5,1.5,0,0,1,76.9,180.62ZM51,187.12,52.68,192H49.27A11,11,0,0,1,51,187.12Z"/><path class="cls-1" d="M29.17,183.07c.89-.67,1.54-1.17,2.2-1.65a8.14,8.14,0,0,0,2.49-9.84,6.6,6.6,0,0,0-2-2.5,12.59,12.59,0,0,0-7.57-2.79c-5.71-.08-11.43-.1-17.14,0C5,166.36,2.8,166.46,1,168c-.19.17-.44.26-.63.43-.6.56-.52,1.19.28,1.46a9,9,0,0,0,2.05.34c2.55.25,2.61.28,2.58,2.93Q5.17,187,5,200.76a6.62,6.62,0,0,1-.09.85c-1.54.79-2.9,1.43-4.2,2.18-.31.18-.68.83-.58,1a1.57,1.57,0,0,0,1.09.83c1.84,0,3.68-.12,5.52-.15,2.28,0,4.56-.05,6.84,0,3.43,0,6.87.39,10.27.14a13.71,13.71,0,0,0,11.76-7.68c2.81-5.44.82-11.25-4.6-14C30.51,183.7,30,183.47,29.17,183.07ZM14.07,186a25.28,25.28,0,0,1,9.16,1.23,5.84,5.84,0,0,1,4,4.3,12.58,12.58,0,0,1-.39,7.2A4.49,4.49,0,0,1,23,202.07a13.53,13.53,0,0,1-6.93-.69A3,3,0,0,1,14,198.44c0-1.09,0-2.18,0-3.28C14.07,192.16,14.07,189.16,14.07,186Zm.06-16.48a17.46,17.46,0,0,1,8.49.93,4.87,4.87,0,0,1,2.87,2.93,8,8,0,0,1-.87,7.36,3.16,3.16,0,0,1-2.47,1.59c-2.22.12-4.44.18-6.66.13-1.14,0-1.59-.66-1.56-1.76.07-2.7.14-5.39.2-8.09C14.14,171.62,14.12,170.66,14.12,169.48Z"/><path class="cls-1" d="M178.43,193.64c-2.46.71-3.49,2.07-3.42,4.34,0,1-.18,2.05-.19,3.08,0,3,.37,4,3.57,4.79a32.74,32.74,0,0,0,7.16.82,15.55,15.55,0,0,0,8.29-1.75c2.68-1.51,5.25-3.16,6.49-6.23,1.9-4.67,1.11-10-3-13.51a38.06,38.06,0,0,0-8.73-5.05c-1.38-.65-2.73-1.36-4.05-2.12-2.86-1.63-3-5.77-.92-7.86a2.45,2.45,0,0,1,1.28-.73c3.69-.53,6.5,0,8.83,3.74a25.3,25.3,0,0,1,1.27,2.58,1,1,0,0,0,1.56.49c1.27-.66,2.18-1.5,2-3.14-.14-1.41-.18-2.82-.23-4.23a2.15,2.15,0,0,0-1.63-2.12,14.93,14.93,0,0,0-2.58-.66,20.93,20.93,0,0,0-8.32.18,14.44,14.44,0,0,0-8.15,5.35c-2.88,3.95-2.13,9.71,1.62,13.34a15.08,15.08,0,0,0,2.88,2.19c2.09,1.22,4.26,2.29,6.38,3.46A33.23,33.23,0,0,1,192,192.7c2.38,1.72,3.06,4.2,2.34,7.19a4.08,4.08,0,0,1-3.5,3.29c-3.72.76-10.17-2.21-11.4-6.81C179.21,195.46,178.79,194.6,178.43,193.64Z"/><path class="cls-1" d="M203.16,179.8c.77.29,1.45.56,2.13.79a1.84,1.84,0,0,1,1.46,2c0,6.5,0,13,0,19.5a4.82,4.82,0,0,1-.12.69,13.42,13.42,0,0,0-2.2.87c-.66.4-1.53.68-1.77,1.8a6.51,6.51,0,0,0,1.25.26c3.3,0,6.61,0,9.91,0a4.59,4.59,0,0,0,2.91-1.23c.64-.48.44-1.15-.35-1.42a5.33,5.33,0,0,0-.56-.11c-2-.45-2.2-.7-2.22-2.68,0-2.36,0-4.73,0-7.29h4.15c1.72,0,3.43,0,5.15,0,1.55,0,1.68.15,1.7,1.62q0,3.28,0,6.56c0,1.41-.1,1.31-1.43,1.77a10.9,10.9,0,0,0-2.61,1.49c-.49.35-.3,1,.3,1.15a3.41,3.41,0,0,0,.94.09c3.24,0,6.48,0,9.72,0a4.47,4.47,0,0,0,2.88-1.31c.47-.37.34-1-.23-1.24a5.7,5.7,0,0,0-.91-.27c-1.84-.57-1.94-.69-1.94-2.73q0-6.47,0-12.94c0-1.87,0-3.73,0-5.6a1.29,1.29,0,0,1,1-1.52,15.55,15.55,0,0,0,2.8-1.68,5,5,0,0,0-1.2-.62,11.75,11.75,0,0,0-1.71,0c-2.28,0-4.57.19-6.84.1a5.26,5.26,0,0,0-4.14,1.92c.4,1,1.32.79,2,1a1.62,1.62,0,0,1,1.37,1.61c0,2.43,0,4.86,0,7.33a16.58,16.58,0,0,1-1.87.27c-2.54.05-5.08.11-7.62.09-1.41,0-1.66-.29-1.68-1.72,0-2.12,0-4.25,0-6.37a1.48,1.48,0,0,1,1.12-1.72,7.69,7.69,0,0,0,1.93-1.18c.17-.12.33-.5.26-.64a1.18,1.18,0,0,0-.66-.56,4.15,4.15,0,0,0-1.13-.06H206.5C205.22,177.86,204.6,178.21,203.16,179.8Z"/><path class="cls-1" d="M155.71,192.9a2.18,2.18,0,0,1,2.11,1.34c1,1.72,1.92,3.47,2.85,5.22.84,1.59,1.66,3.18,2.43,4.8a2.19,2.19,0,0,0,2.24,1.42c1.78,0,3.55,0,5.33,0a4.76,4.76,0,0,0,3-1.41c.47-.37.3-1-.27-1.22a1,1,0,0,0-.36-.11c-2-.06-3.22-1.42-4.14-3-1.61-2.77-3.08-5.61-4.65-8.4a1.06,1.06,0,0,1,.34-1.63l1.59-1.06a6,6,0,0,0-.84-10.18,9.47,9.47,0,0,0-3.46-.87c-2.6-.1-5.21,0-7.81,0-1.9,0-3.82,0-5.71-.11a4.28,4.28,0,0,0-3.1,1.19c-.59.46-.47,1,.29,1.26a13.09,13.09,0,0,0,2,.41,1.24,1.24,0,0,1,1.2,1.43c0,1.93,0,3.86,0,5.79,0,3.86,0,7.72,0,11.58,0,.71-.05,1.41-.11,2.12a1.47,1.47,0,0,1-1.11,1.37,13.24,13.24,0,0,0-2.47,1.4c-.22.15-.48.64-.4.77a1.68,1.68,0,0,0,.86.57,3,3,0,0,0,.95.05c3.17,0,6.35-.08,9.52,0a5.23,5.23,0,0,0,3.28-1.28.68.68,0,0,0-.14-1.23,12.77,12.77,0,0,0-1.65-.41c-1.5-.4-1.76-.7-1.78-2.26C155.69,198,155.71,195.52,155.71,192.9Zm0-12.41c2.25-.07,4.13.25,5.39,2.07a5.7,5.7,0,0,1,.28,6,2.12,2.12,0,0,1-1.23,1,16.63,16.63,0,0,1-3.19.35,1.08,1.08,0,0,1-1.23-1.15C155.7,186.09,155.71,183.36,155.71,180.49Z"/><path class="cls-1" d="M265.52,191.12a13.4,13.4,0,0,0-13.43-13.75A15.84,15.84,0,0,0,238,185.1c-3.15,5.06-3.14,10.49.36,15.4s8.31,6.75,14.22,5.57a18.25,18.25,0,0,0,9.08-5A13,13,0,0,0,265.52,191.12Zm-22.12,0c0-.9,0-1.8,0-2.69a12.87,12.87,0,0,1,2.32-6.62,3.41,3.41,0,0,1,2.09-1.55c2.84-.58,5.43-.23,7.44,2.16a12.64,12.64,0,0,1,2.86,5.58,19.12,19.12,0,0,1-1.81,12.88,4.46,4.46,0,0,1-3.46,2.7,7.09,7.09,0,0,1-7.19-3.3A15,15,0,0,1,243.4,191.15Z"/><path class="cls-1" d="M132.75,192.38c1.31.31,2.34.52,3.35.82s1.34,1.25,1.59,2.21c.43,1.65.8,1.74,2.21.81a2.17,2.17,0,0,0,1.18-2c0-2.19.06-4.37.09-6.56a1.87,1.87,0,0,0-.07-.94c-.16-.25-.69-.56-.82-.48-.88.58-2.06.89-2.43,2-.45,1.38-1.43,1.64-2.67,1.55-.38,0-.76,0-1.14,0-.83,0-1.32-.35-1.32-1.26,0-2.56,0-5.12,0-8,1.55.23,2.92.37,4.25.66a3.77,3.77,0,0,1,3.14,2.74,6.33,6.33,0,0,0,1,1.49c.5-.3.85-.55,1.23-.74a2,2,0,0,0,1.19-2.18c-.08-1.15,0-2.31,0-3.47a1,1,0,0,0-1-1.15c-.5-.06-1-.08-1.52-.09-5.21-.09-10.41-.16-15.62-.27a4.8,4.8,0,0,0-2.9,1.28c-.51.37-.32.79.13,1.07a2.35,2.35,0,0,0,.73.2c2.44.55,2.52.64,2.52,3.21q0,7.72,0,15.44c0,.9,0,1.8,0,2.7s-.27,1.36-1.2,1.31a3.93,3.93,0,0,0-2.68,1.29c-.25.21-.56.78-.47.9a2.57,2.57,0,0,0,1,.66c.16.07.37,0,.57,0,5.46,0,10.93,0,16.39,0a5.09,5.09,0,0,0,2-.3,3,3,0,0,0,2.14-2.86,23.53,23.53,0,0,1,.61-3A5.5,5.5,0,0,0,144,198a8,8,0,0,0-1.35.39A5.36,5.36,0,0,0,140.2,201a2.57,2.57,0,0,1-2.42,1.56,17.82,17.82,0,0,1-3.2,0c-1.37-.2-1.79-.71-1.82-2C132.72,198,132.75,195.39,132.75,192.38Z"/><path class="cls-1" d="M277.31,194.33l2.12.46c4.56,1,8.88-2,10.72-5.08a7.2,7.2,0,0,0-3.8-10.72,14.28,14.28,0,0,0-4.08-.83c-4-.21-8-.22-12-.39-1.37-.06-2.21.85-3.19,1.5-.48.32-.36.83.14,1.07a4.11,4.11,0,0,0,1.29.27c1.68.19,1.88.38,1.9,2.16,0,1.54,0,3.09,0,4.63q0,6.27-.08,12.55c0,.39,0,.77,0,1.16-.09,1-.24,1.86-1.41,2.23a5.43,5.43,0,0,0-1.72,1.18.63.63,0,0,0,.31,1.14,2.51,2.51,0,0,0,.57,0c3.3,0,6.61,0,9.91,0a4.33,4.33,0,0,0,2.87-1.32c.52-.43.42-1-.21-1.17a13.14,13.14,0,0,0-1.68-.32c-1.22-.24-1.58-.57-1.6-1.75C277.28,199,277.31,196.8,277.31,194.33Zm.15-13.61c3.08-.12,5.09,1,6.09,3.31a6.33,6.33,0,0,1-.35,6.1c-1,1.53-2.82,1.14-4.38,1.2l-.19,0c-1.09-.15-1.32-.34-1.33-1.47,0-2.7,0-5.4,0-8.1A7.56,7.56,0,0,1,277.46,180.72Z"/><path class="cls-1" d="M153.76,228.78a4.29,4.29,0,0,0,4.16-.07,3.86,3.86,0,0,0-.41-.52,6.57,6.57,0,0,0-.69-.47c.61-.82.2-2.24,1.56-2.42.69-.09,1.65-.43,2.08.43.54,1.08,1,2.26-.53,3.49,3.45-.05,6.51.32,10-.24-.83-.59-1.49-.83-1.69-1.27a5,5,0,0,1-.13-1.9,6.86,6.86,0,0,1,.32-2.56l2.65,5.86c2-1.77,2-4.4,3.56-6.65,0,1.91,0,3.39,0,4.88,0,.35-.39.7-.65,1a11.64,11.64,0,0,1-1,.94c2.13-.21,3.85.25,5.64-.44-1.63-.85-1.51-2.26-1.48-3.66a36.71,36.71,0,0,0,0-3.86c-.09-1.2,0-2.17,1.57-2.36-2-1.23-3.81-.76-4.65,1.08-.34.76-.6,1.56-.91,2.33s-.58,1.39-1,2.41c-.56-1.24-1-2.19-1.42-3.16-.31-.7-.62-1.41-.9-2.13A1.5,1.5,0,0,0,168,218.4c-.89.13-1.91-.39-2.79.56a3.53,3.53,0,0,0,.78.5,1,1,0,0,1,.76,1.16c-.14,2.31-.26,4.62-.44,6.92a.87.87,0,0,1-1.36.74,4.18,4.18,0,0,1-1.39-1.72c-.92-2.32-1.71-4.7-2.56-7.05-.21-.57-.45-1.12-.79-1.94a8.18,8.18,0,0,0-.84,1.12c-1.26,2.73-2.51,5.47-3.72,8.23a2.89,2.89,0,0,1-2,1.91Zm4.48-5,.91-1.79.56,1.9Z"/><path class="cls-1" d="M86.2,217.65,96,229.11c.17.19.27.44.45.62a.7.7,0,0,0,1.21-.27,6.22,6.22,0,0,0,.21-1.71c.05-3.41.12-6.82.11-10.23,0-1.3,0-2.46,1.58-2.81.15,0,.24-.28.4-.46-.53-.73-1.31-.54-1.9-.38-1.34.35-2.9-.36-4.14.73.15.23.2.4.29.43,2.12.62,1.95.16,2,2.72,0,1.79,0,3.58,0,5.83-.69-.72-1.08-1.09-1.43-1.5-1.94-2.29-3.91-4.57-5.79-6.91a3.14,3.14,0,0,0-3-1.26c-.76.07-1.52,0-2.28.1-.54,0-1.17,0-1.38.69,0,.09,0,.18.08.21,1.94,1,1.94,1,1.92,3.24,0,2.57-.07,5.15-.06,7.72,0,1.16,0,2.22-1.52,2.36-.25,0-.46.34-.93.71,2.1.68,4,.33,5.82.32.35,0,.71-.37,1.36-.75-.69-.29-1.05-.47-1.44-.6a1.77,1.77,0,0,1-1.4-1.82C86.2,223.41,86.2,220.72,86.2,217.65Z"/><path class="cls-1" d="M117.83,229.88A19.26,19.26,0,0,0,119,228q1.66-3.79,3.25-7.6c.29-.71.62-1.25,1.48-1.24s1.31.3,1.33,1.23c0,2.25,0,4.5,0,6.76a1,1,0,0,1-.83,1.1,5.28,5.28,0,0,0-1.15.8,10.25,10.25,0,0,0,1.32.23c1.65,0,3.3,0,5,0,2.09.05,2.86-.17,2.74-2.74-.74-.32-.93.39-1.34.72a3.25,3.25,0,0,1-1.2.77c-1.47.28-1.81,0-1.83-1.54,0-.75,0-1.5.07-2.18,1.47-.5,1.77.62,2.26,1.37,1.05-.87,1.13-1.32.72-3.8-1.11-.18-1.35,2-2.89.9v-3.33c1.12-.06,2.17,0,2.84,1.23a1,1,0,0,0,.79.28c.16,0,.36-.34.42-.56.37-1.47,0-2-1.53-2q-4.76,0-9.52,0a6.22,6.22,0,0,0-1.38.38c.31.25.42.42.56.45.86.16,1,.65.69,1.4-.6,1.48-1.18,3-1.91,4.82l-2.75-5.8c.27-.18.51-.33.74-.51s.33-.31.84-.79c-2.15.21-3.9-.2-6,.5a4.13,4.13,0,0,1,2.42,2.74c1,2.3,2,4.58,3,6.87C117.21,228.78,117.41,229.1,117.83,229.88Z"/><path class="cls-1" d="M153.71,228.84v-4c-.73-.23-1.08.11-1.17.67-.29,1.73-1.45,2.3-3,2.35s-2.92.08-4.38,0c-1,0-1.24-.52-.75-1.39a15.71,15.71,0,0,1,1.2-1.73q3.66-4.81,7.34-9.6a6.78,6.78,0,0,0,.49-1c-.65-.06-1.14-.14-1.62-.14-2.54,0-5.08,0-7.62,0a4,4,0,0,1-2.27-.61c-.64-.51-.92-.19-1.24.16a8.29,8.29,0,0,0-1,4c.71.2,1.08-.32,1.34-.78a2.29,2.29,0,0,1,2.22-1.17c1.39,0,2.79-.17,4.18-.23a12.41,12.41,0,0,1,1.59.17l-10.26,13.59c.67.08,1,.16,1.41.16,3.55,0,7.11.06,10.66,0a18.56,18.56,0,0,0,2.94-.5Z"/><path class="cls-1" d="M190.31,218.82a5.75,5.75,0,0,0-4.72.06l1,.79-3.42,3.51c.21-1.82-.66-3.41,1.35-4.57a9.8,9.8,0,0,0-5.12.18,2,2,0,0,1,1.35,2.33c-.08,1.86-.06,3.73,0,5.59,0,.93-.16,1.63-1.18,1.85-.13,0-.22.27-.35.43a9,9,0,0,0,5.35-.27c-.25-.74-1.59-.62-1.37-1.77a14.93,14.93,0,0,0,0-2.54,25.62,25.62,0,0,1,3.69,3.51l-1.27,1.38c2.2-.21,4,.14,6.1-.25l-6.62-6.59a11.08,11.08,0,0,1,5.28-3.69Z"/><path class="cls-1" d="M106.78,218.25a5.77,5.77,0,0,0-6.07,6,5.36,5.36,0,0,0,5.53,5.36,6.07,6.07,0,0,0,6-6.16A5.09,5.09,0,0,0,106.78,218.25Zm2.88,5.62a19.36,19.36,0,0,1-.57,2.6c-.34.95-.78,1.92-2,2a2.82,2.82,0,0,1-2.91-1.7,7.37,7.37,0,0,1-.23-6,2.46,2.46,0,0,1,4.38-.72A5.51,5.51,0,0,1,109.66,223.87Z"/><path class="cls-1" d="M190.35,218.76c1.93,1.45,3,3.63,4.19,5.61.52.85.35,2.24.22,3.35-.05.44-.85.79-1.64,1.47,2,0,3.64,0,5.25,0,.24,0,.47-.35.72-.55-.3-.81-1.66-.3-1.55-1.48.13-1.42-.57-2.91.69-4.2s2.49-2.86,3.69-4.26a5.06,5.06,0,0,0-3.82.15l1.38.67-2.4,3.58-2.38-3.54.9-.73c0-.17-.06-.28-.08-.28-1.74-.1-3.51-.54-5.2.3Z"/><path class="cls-1" d="M159.14,217.72l3.66-2c-.2-.73-.58-1-1-.66-1,.7-2,1.47-3,2.22Z"/><path class="cls-1" d="M127.34,217.71c1.07-.61,2.15-1.21,3.2-1.85.15-.09.16-.42.24-.64-.27-.08-.64-.31-.79-.2-1,.7-2,1.47-3,2.22Z"/><path class="cls-1" d="M33.46,234.54q0,1.75-2.89,2.79a8,8,0,0,1-2.74.47q-.5,0-1.42-.07-1.9,3-3.15,5.33L21,247.47l-.6,1.19q-1.6,3.22-2.33,4.45Q14,260,8.4,260a7.55,7.55,0,0,1-3.71-1q-1.42-.78-1.42-1.25,0-.24.84-1.16a6.81,6.81,0,0,0,5.13,2.22,8.68,8.68,0,0,0,5.37-2.07,9.49,9.49,0,0,0,1.92-2,33.44,33.44,0,0,0,2.22-3.65l1.33-2.65.9-1.77a80.57,80.57,0,0,1,4.86-8.7l.2-.3a13.4,13.4,0,0,1-3.17-1l-2.14-1a9.52,9.52,0,0,0-3.88-.88A6.87,6.87,0,0,0,13,236.1,9.62,9.62,0,0,0,10.17,239,7.15,7.15,0,0,0,9,242.85,5.45,5.45,0,0,0,9.93,246a3.18,3.18,0,0,0,2.76,1.51,3.6,3.6,0,0,0,2.78-1.29,4.13,4.13,0,0,0,1.12-2.87v-.24a1.06,1.06,0,0,1,.41-.26q.15,0,.15.28a4.71,4.71,0,0,1-.26,1.19,5.81,5.81,0,0,1-1.77,2.7,4.51,4.51,0,0,1-3,1.16,3.51,3.51,0,0,1-2.85-1.34,4.69,4.69,0,0,1-1-3,9.16,9.16,0,0,1,3.06-6.71,9.69,9.69,0,0,1,6.95-3,12.14,12.14,0,0,1,4.43,1l2.5,1q.89.35,1.64.58,2.7-3.13,5.27-3.13Q33.46,233.48,33.46,234.54Zm-.47.15q0-.82-1-.82-2.24,0-4.73,2.87A7.83,7.83,0,0,0,29,237a6.16,6.16,0,0,0,2.46-.52Q33,235.77,33,234.69Z"/><path class="cls-1" d="M36.08,250.65a1.64,1.64,0,0,1-.37.52q-5.33,6.06-8,6.05a2,2,0,0,1-2.14-2.14q0-1.84,2.11-4.51a1,1,0,0,0,.19-.32q0-.11-.15-.11a2.22,2.22,0,0,0-.5.13,3.4,3.4,0,0,1-1,.2,2.54,2.54,0,0,1-.84-.15.05.05,0,0,1,0,0l0,0-.32.37q-.37.43-.5.43c-.1,0-.15,0-.15-.13a.42.42,0,0,1,.07-.15l.11-.11.06-.07.28-.35.22-.26a1.28,1.28,0,0,1-.2-.67,2.31,2.31,0,0,1,.43-1.24,1.19,1.19,0,0,1,1-.66q.47,0,.47.5a3.71,3.71,0,0,1-.93,1.73,2.67,2.67,0,0,0-.22.28,1.86,1.86,0,0,0,.47.07,4.7,4.7,0,0,0,2-.56,3.73,3.73,0,0,1,1-.41q.45,0,.45.41a.54.54,0,0,1-.17.39l-.65.82q-1.92,2.4-1.92,4a1.68,1.68,0,0,0,.46,1.18,1.49,1.49,0,0,0,1.15.49q1.55,0,4.4-2.74,1.36-1.3,2.29-2.37l.54-.61.17-.17a.2.2,0,0,1,.15-.09C36,250.5,36.08,250.55,36.08,250.65Z"/><path class="cls-1" d="M48.82,250.76a5.66,5.66,0,0,1-1,1.25,26.94,26.94,0,0,1-5.16,4.64,3.52,3.52,0,0,1-1.68.61q-1.51,0-1.51-1.86a9.9,9.9,0,0,1,.2-1.66l-.26.28q-3,3.24-5.07,3.24-1.58,0-1.58-1.7a6.43,6.43,0,0,1,1.94-3.95,13.07,13.07,0,0,1,3.48-2.79,8.81,8.81,0,0,1,4.25-1.31q2.5,0,2.5,1.62t-2.2,2.42l-.07-.22a2.26,2.26,0,0,0,1.4-1.88Q44,248,41.95,248a7,7,0,0,0-3.35,1,10.35,10.35,0,0,0-2.76,2.19Q34,253.36,34,254.8a1.25,1.25,0,0,0,1.42,1.4q1.4,0,3.22-1.91A16.73,16.73,0,0,0,41,251.16a1.06,1.06,0,0,1,.48-.15.65.65,0,0,1,.45.28,7.94,7.94,0,0,0-1.36,3.88q0,1.21,1,1.21t3.26-2a28.26,28.26,0,0,0,2.79-2.74l.45-.52q.48-.56.61-.56C48.77,250.6,48.82,250.65,48.82,250.76Z"/><path class="cls-1" d="M63.15,250.65a1.75,1.75,0,0,1-.39.54,38.82,38.82,0,0,1-3.57,3.6q-2.55,2.27-4,2.27-1.88,0-1.88-3,0-.39.06-1.14s0-.15,0-.41l-.3.34a19.83,19.83,0,0,1-3.28,3.09,4.31,4.31,0,0,1-2.42.91q-1.47,0-1.47-1.58A5.22,5.22,0,0,1,47,252.37a8.57,8.57,0,0,1,2.18-2.25,5.55,5.55,0,0,1,3-1.27,2.28,2.28,0,0,1,1.19.34l-.52.5a1.81,1.81,0,0,0-.88-.34,4.3,4.3,0,0,0-2.61,1.17,7.16,7.16,0,0,0-1.21,1.25,4.71,4.71,0,0,0-1.16,2.7q0,1.34,1.14,1.34t2.94-1.66a26.64,26.64,0,0,0,2.46-2.53l.07-.28.26-1.12a33.12,33.12,0,0,1,3.84-9.15,19.81,19.81,0,0,1,1.77-2.53q1.47-1.81,2.29-1.81.43,0,.43.56,0,1.92-2.76,6.58a66,66,0,0,1-3.74,5.64l-1,1.36a17.24,17.24,0,0,0-.26,2.5q0,2.72,1.4,2.72,1.94,0,6.13-4.62.26-.26.67-.75a.78.78,0,0,1,.3-.24A.15.15,0,0,1,63.15,250.65Zm-1.43-12.78q0-.41-.3-.41-.82,0-2.66,2.92a30.17,30.17,0,0,0-2.94,6.43,24.9,24.9,0,0,0-.86,3,53.64,53.64,0,0,0,3.45-5Q61.72,239.55,61.72,237.87Z"/><path class="cls-1" d="M70.42,250.8a13.44,13.44,0,0,1-1,1.1A24.31,24.31,0,0,1,64,256.5a4.21,4.21,0,0,1-1.88.63q-1.36,0-1.36-1.47a9.54,9.54,0,0,1,1.55-4.36,18.56,18.56,0,0,1,1-1.66,6,6,0,0,1,1.29-.26l-.19.28A22.66,22.66,0,0,0,62.54,253a5.79,5.79,0,0,0-.56,2.25q0,1,.8,1,1.42,0,4.27-2.52a28.53,28.53,0,0,0,2.61-2.57q.48-.54.6-.54A.15.15,0,0,1,70.42,250.8Z"/><path class="cls-1" d="M67.72,245a.86.86,0,0,0-.17.13l-.6.45a17.31,17.31,0,0,0-1.81,1.6l-.07.07q-.32-.11-.32-.3t.8-1.17a2.48,2.48,0,0,1,1.58-1A1.18,1.18,0,0,1,67.72,245Z"/><path class="cls-1" d="M79.64,250.76q0,.13-.24.39l-.73.8q-4.32,4.77-6.95,5.42a3.8,3.8,0,0,1-1,.13q-2.25,0-2.25-2.57a7.4,7.4,0,0,1,2.42-5q2.35-2.4,4.6-2.4,1.55,0,1.55,1.19a2.6,2.6,0,0,1-1,1.9,2.91,2.91,0,0,1-2,.89c-.16,0-.24,0-.24-.15s.19-.29.58-.58h.17a2,2,0,0,0,1.3-.51,1.56,1.56,0,0,0,.6-1.22q0-1-1.38-1a4.87,4.87,0,0,0-2.88,1.22,7.64,7.64,0,0,0-2.38,3.1,4.59,4.59,0,0,0-.41,1.77,2.42,2.42,0,0,0,.58,1.64,1.91,1.91,0,0,0,1.55.73q1.6,0,4.19-2.24a27.57,27.57,0,0,0,3.17-3.2l.2-.24q.19-.22.3-.22C79.59,250.6,79.64,250.65,79.64,250.76Z"/><path class="cls-1" d="M94.82,250.71a3.07,3.07,0,0,1-.58.73l-1.15,1.25q-3.72,4-5.86,4-1.34,0-1.34-1.56a18.09,18.09,0,0,1,.52-3.07,3.17,3.17,0,0,0,.09-.63q0-.54-.47-.54a5.17,5.17,0,0,0-2,.93,29.73,29.73,0,0,0-5.66,4.32q-.65.69-.84.69t-.3-.58a9.61,9.61,0,0,1,1.12-3.47,25.53,25.53,0,0,1,1.83-3.26,6.43,6.43,0,0,1,1.36-.45,43.6,43.6,0,0,0-2.27,4.12,5.87,5.87,0,0,0-.6,1.49c0,.12.06.19.17.19a3,3,0,0,0,.78-.5q2-1.51,2.76-2a21.94,21.94,0,0,1,3.6-2A3,3,0,0,1,87,250q.69,0,.69.78a9.8,9.8,0,0,1-.26,1.6,14.4,14.4,0,0,0-.39,2.42q0,1.12.93,1.12,1.36,0,4.66-3.33.82-.82,1.68-1.79.26-.3.35-.3C94.77,250.54,94.82,250.6,94.82,250.71Z"/><path class="cls-1" d="M103.88,250.63a3.43,3.43,0,0,1-.65.84q-5.59,6.26-8.44,6.26a2.27,2.27,0,0,1-1.73-.72,2.51,2.51,0,0,1-.67-1.78,6.13,6.13,0,0,1,1.1-3.24,10.26,10.26,0,0,1,2.31-2.59,4.53,4.53,0,0,1,2.68-1.21q1.21,0,1.21,1,0,1.9-2.77,3.26a5.39,5.39,0,0,1-2.36.6l-.78-.06a5.68,5.68,0,0,0-.24,1.45A2.19,2.19,0,0,0,94.1,256a1.94,1.94,0,0,0,1.5.61q1.75,0,4.3-2.27a31.51,31.51,0,0,0,2.84-2.89l.45-.5.26-.3q.17-.19.28-.19A.13.13,0,0,1,103.88,250.63Zm-5-1.06q0-.76-.84-.76-1.25,0-2.85,1.79a7.59,7.59,0,0,0-1.25,2,3.08,3.08,0,0,0,.71.07,4.64,4.64,0,0,0,3.58-1.7A2.18,2.18,0,0,0,98.87,249.57Z"/><path class="cls-1" d="M123.33,250.65a1.26,1.26,0,0,1-.22.34l-.39.45a10.38,10.38,0,0,1-1.49,1.32,16.1,16.1,0,0,1-4.53,2.46q-2.2,2.12-3.69,2.12t-1.4-1.29q0-1.19.65-1.19h.09l.06,0,.43.11a6.38,6.38,0,0,0,1.62.19,6,6,0,0,0,2-.26,5.44,5.44,0,0,0,1.68-3.52,1.19,1.19,0,0,0-1.32-1.36q-2,0-4.86,3.2a20.22,20.22,0,0,0-3.84,7.17,29.11,29.11,0,0,0-1.56,6.69l-1.06.28.06-.35a43.71,43.71,0,0,1,8-19l.61-.89a1.16,1.16,0,0,1,.91-.43h0l.45,0-.22.28q-.5.61-1.45,1.88a43.78,43.78,0,0,0-3.19,5.22l.22-.24.88-1a19.33,19.33,0,0,1,2.48-2.33,5.21,5.21,0,0,1,3.11-1.4q1.45,0,1.45,1.58a7.09,7.09,0,0,1-1.64,4,12,12,0,0,0,3.58-2,14.26,14.26,0,0,0,2.14-2q.17-.22.24-.22T123.33,250.65Zm-7.47,4.81q-1.1.07-1.6.07a8.53,8.53,0,0,1-1.68-.17,1.62,1.62,0,0,0-.11.5q0,.78,1,.78A3.56,3.56,0,0,0,115.86,255.46Z"/><path class="cls-1" d="M136.05,250.76a5.66,5.66,0,0,1-1,1.25,26.94,26.94,0,0,1-5.16,4.64,3.52,3.52,0,0,1-1.68.61q-1.51,0-1.51-1.86a9.9,9.9,0,0,1,.2-1.66l-.26.28q-3,3.24-5.07,3.24-1.58,0-1.58-1.7a6.43,6.43,0,0,1,1.94-3.95,13.07,13.07,0,0,1,3.48-2.79,8.81,8.81,0,0,1,4.25-1.31q2.5,0,2.5,1.62t-2.2,2.42l-.07-.22a2.26,2.26,0,0,0,1.4-1.88q0-1.42-2.09-1.42a7,7,0,0,0-3.35,1,10.35,10.35,0,0,0-2.76,2.19q-1.84,2.12-1.84,3.56a1.25,1.25,0,0,0,1.42,1.4q1.4,0,3.22-1.91a16.73,16.73,0,0,0,2.35-3.13,1.06,1.06,0,0,1,.48-.15.65.65,0,0,1,.45.28,7.94,7.94,0,0,0-1.36,3.88q0,1.21,1,1.21t3.26-2a28.26,28.26,0,0,0,2.79-2.74l.45-.52q.48-.56.61-.56C136,250.6,136.05,250.65,136.05,250.76Z"/><path class="cls-1" d="M151.23,250.71a3.07,3.07,0,0,1-.58.73l-1.15,1.25q-3.72,4-5.86,4-1.34,0-1.34-1.56a18.09,18.09,0,0,1,.52-3.07,3.17,3.17,0,0,0,.09-.63q0-.54-.47-.54a5.17,5.17,0,0,0-2,.93,29.73,29.73,0,0,0-5.66,4.32q-.65.69-.84.69t-.3-.58a9.61,9.61,0,0,1,1.12-3.47,25.53,25.53,0,0,1,1.83-3.26,6.43,6.43,0,0,1,1.36-.45,43.6,43.6,0,0,0-2.27,4.12,5.87,5.87,0,0,0-.6,1.49c0,.12.06.19.17.19a3,3,0,0,0,.78-.5q2-1.51,2.76-2a21.94,21.94,0,0,1,3.6-2,3,3,0,0,1,1.06-.28q.69,0,.69.78a9.8,9.8,0,0,1-.26,1.6,14.4,14.4,0,0,0-.39,2.42q0,1.12.93,1.12,1.36,0,4.66-3.33.82-.82,1.68-1.79.26-.3.35-.3C151.18,250.54,151.23,250.6,151.23,250.71Z"/><path class="cls-1" d="M160.87,250.62a2.23,2.23,0,0,1-.45.61l-.43.48a22.92,22.92,0,0,1-4.45,4.06,8.25,8.25,0,0,1-3.93,1.3l-.37.07a7.84,7.84,0,0,1-1.38.19q-1.92,0-1.92-.84,0-.43.48-.43a3.18,3.18,0,0,1,.8.19,14.52,14.52,0,0,0,1.88.48,3,3,0,0,0,1.71-1.29,3.7,3.7,0,0,0,.61-2.09,5.52,5.52,0,0,0-1.12-3.06l-.28-.41q-.17.17-.45.5l-.5.6q-.19.22-.34.22a.13.13,0,0,1-.15-.15q0-.11.3-.45l.86-1,.11-.11a2.55,2.55,0,0,1-.2-.91,1.7,1.7,0,0,1,.28-.91.94.94,0,0,1,.76-.52q.47,0,.47.56a2.13,2.13,0,0,1-.56,1.32l-.17.2a.16.16,0,0,0-.06.11.28.28,0,0,0,.07.15l.09.13.39.45a5.18,5.18,0,0,1,1.64,3.28,3.93,3.93,0,0,1-2.07,3.22,10.58,10.58,0,0,0,5-2.92,30.65,30.65,0,0,0,2.85-3q.22-.26.32-.26C160.81,250.47,160.87,250.52,160.87,250.62Z"/><path class="cls-1" d="M176.76,250.71q0,.11-.47.61l-.65.71q-5.07,5.5-8.12,5.5a3.18,3.18,0,0,1-2.2-.8,2.71,2.71,0,0,1-1-2.12q0-1.55.86-1.55l.13,0,1.6.11a2,2,0,0,0,.76-.35,1.62,1.62,0,0,0,1-1.4q0-1.29-1.51-1.29-2.68,0-5.1,3.07a8.94,8.94,0,0,0-1.56,2.92q-.65.6-.93.6t-.35-.5a21.46,21.46,0,0,1,.58-3.43,36.45,36.45,0,0,1,2.29-6.89q.75-1.68,1.71-3.5,3-5.66,4.45-5.66.35,0,.35.47a8.92,8.92,0,0,1-.84,2.83,32.69,32.69,0,0,1-3,5.57,26.2,26.2,0,0,1-1.64,2.25l-1.27,1.55-.39.48a15.84,15.84,0,0,0-.88,4.79A11.36,11.36,0,0,1,165.3,250a5.89,5.89,0,0,1,2.59-.63,1.91,1.91,0,0,1,1.22.42,1.34,1.34,0,0,1,.53,1.11,2.54,2.54,0,0,1-1.64,2.24,3.18,3.18,0,0,1-1.49.39H166q-.56,0-.56.82a2.42,2.42,0,0,0,.7,1.72,2.24,2.24,0,0,0,1.69.74,7.3,7.3,0,0,0,4.19-1.92,27.29,27.29,0,0,0,3.45-3.2l.54-.6a2.54,2.54,0,0,0,.31-.34q.2-.24.33-.24C176.71,250.54,176.76,250.6,176.76,250.71ZM167.93,238q0-.32-.26-.32t-.85.67a13.9,13.9,0,0,0-1.26,1.83,39.63,39.63,0,0,0-2.89,6.05q-.6,1.56-1,2.83a28.15,28.15,0,0,0,4.49-6.74q1.1-2.2,1.32-2.85l.26-.78A2.22,2.22,0,0,0,167.93,238Z"/><path class="cls-1" d="M185.81,250.63a3.43,3.43,0,0,1-.65.84q-5.59,6.26-8.44,6.26A2.27,2.27,0,0,1,175,257a2.51,2.51,0,0,1-.67-1.78,6.13,6.13,0,0,1,1.1-3.24,10.26,10.26,0,0,1,2.31-2.59,4.53,4.53,0,0,1,2.68-1.21q1.21,0,1.21,1,0,1.9-2.77,3.26a5.39,5.39,0,0,1-2.36.6l-.78-.06a5.68,5.68,0,0,0-.24,1.45A2.19,2.19,0,0,0,176,256a1.94,1.94,0,0,0,1.5.61q1.75,0,4.3-2.27a31.51,31.51,0,0,0,2.84-2.89l.45-.5.26-.3q.17-.19.28-.19A.13.13,0,0,1,185.81,250.63Zm-5-1.06q0-.76-.84-.76-1.25,0-2.85,1.79a7.59,7.59,0,0,0-1.25,2,3.08,3.08,0,0,0,.71.07,4.64,4.64,0,0,0,3.58-1.7A2.18,2.18,0,0,0,180.8,249.57Z"/><path class="cls-1" d="M210.49,250.82q0,.11-.24.37l-.78.84-1.25,1.27q-3.48,3.45-5.38,3.45a1.31,1.31,0,0,1-1-.45,1.49,1.49,0,0,1-.41-1,5.84,5.84,0,0,1,.2-1.25l.3-1.23a8.17,8.17,0,0,0,.26-1.38q0-.52-.48-.52-.91,0-3.5,1.87a17.1,17.1,0,0,0-3.58,3.35q-.5.65-.65.65-.39,0-.39-.82,0-4.43,3.6-11.83a37,37,0,0,1,3.22-5.58q1.27-1.73,2-1.73.37,0,.37.45,0,1.86-2.76,6.67a35.56,35.56,0,0,1-3.69,5.18l-.69.82-.07.3q-.32,1.25-.63,3.06a9,9,0,0,0-.17,1.42q0,.3.17.3t.32-.2a24,24,0,0,1,3.32-2.74q2.91-2,4.12-2,.76,0,.76.8a3.94,3.94,0,0,1-.15.93,16.35,16.35,0,0,0-.6,3.09q0,1.16.89,1.16,1.66,0,5.35-3.91l.63-.67.48-.53q.2-.23.3-.23A.15.15,0,0,1,210.49,250.82ZM202.1,238q0-.45-.24-.43-.58,0-2.27,2.83a34.65,34.65,0,0,0-3.74,8.63,18.63,18.63,0,0,0,1.58-2,40.36,40.36,0,0,0,3.91-6.63A7.26,7.26,0,0,0,202.1,238Z"/><path class="cls-1" d="M220,250.63q0,.19-.48.61a4.33,4.33,0,0,1-2.92,1.1,5.91,5.91,0,0,1-1.4-.2q.06.67.06.89a4.81,4.81,0,0,1-2.29,4,3.51,3.51,0,0,1-2,.71,2.37,2.37,0,0,1-1.9-.86,3.06,3.06,0,0,1-.73-2,6.15,6.15,0,0,1,3-5.2,4.69,4.69,0,0,1,2.65-.91q1.32,0,1.32.43a.62.62,0,0,1-.21.37.58.58,0,0,1-.36.22l-.19-.07a2.29,2.29,0,0,0-1.06-.34,3.68,3.68,0,0,0-2.92,1.51,4.79,4.79,0,0,0-1.17,3.14,2.82,2.82,0,0,0,.6,1.82,2.09,2.09,0,0,0,1.7.8A2.89,2.89,0,0,0,214,255.5a3.85,3.85,0,0,0,.89-2.5,4.08,4.08,0,0,0-.13-1,1.52,1.52,0,0,0-.3-.13q-.91-.37-.91-.78t.37-.3q.6,0,1.1.91a4.73,4.73,0,0,0,1.58.3,3.89,3.89,0,0,0,3-1.36q.17-.19.26-.19C219.94,250.47,220,250.52,220,250.63Z"/><path class="cls-1" d="M230.22,250.73a4.22,4.22,0,0,1-.69.86q-5.24,5.85-7.84,5.85t-2.7-4.49a20.61,20.61,0,0,1,1.58-7.47,28.89,28.89,0,0,1,4.14-7.77q1-1.14,1.71-1.14t.82,1.08q0,2.09-3.24,7.27-.8,1.29-1.77,2.59l-.93,1.25-.75,1-.32.41a10.09,10.09,0,0,0-.13,1.7q0,4.71,2.24,4.71,1.9,0,5.27-3.45,1.49-1.53,2-2.22.26-.32.39-.32T230.22,250.73Zm-3.52-12.78q0-.71-.56-.71-.84,0-2.27,2.5a29.28,29.28,0,0,0-1.6,3.26,34.36,34.36,0,0,0-1.47,4.34q-.24.91-.45,2a36.19,36.19,0,0,0,3.15-4.34Q226.69,240.05,226.69,237.95Z"/><path class="cls-1" d="M237.57,250.8a13.44,13.44,0,0,1-1,1.1,24.31,24.31,0,0,1-5.48,4.6,4.21,4.21,0,0,1-1.88.63q-1.36,0-1.36-1.47a9.54,9.54,0,0,1,1.55-4.36,18.56,18.56,0,0,1,1-1.66,6,6,0,0,1,1.29-.26l-.19.28a22.66,22.66,0,0,0-1.88,3.35,5.79,5.79,0,0,0-.56,2.25q0,1,.8,1,1.42,0,4.27-2.52a28.53,28.53,0,0,0,2.61-2.57q.48-.54.6-.54A.15.15,0,0,1,237.57,250.8Zm-2.7-5.81a.86.86,0,0,0-.17.13l-.6.45a17.31,17.31,0,0,0-1.81,1.6l-.07.07q-.32-.11-.32-.3t.8-1.17a2.48,2.48,0,0,1,1.58-1A1.18,1.18,0,0,1,234.87,245Z"/><path class="cls-1" d="M246.8,250.76q0,.13-.24.39l-.73.8q-4.32,4.77-6.95,5.42a3.8,3.8,0,0,1-1,.13q-2.25,0-2.25-2.57a7.4,7.4,0,0,1,2.42-5q2.35-2.4,4.6-2.4,1.55,0,1.55,1.19a2.6,2.6,0,0,1-1,1.9,2.91,2.91,0,0,1-2,.89c-.16,0-.24,0-.24-.15s.19-.29.58-.58h.17a2,2,0,0,0,1.3-.51,1.56,1.56,0,0,0,.6-1.22q0-1-1.38-1a4.87,4.87,0,0,0-2.88,1.22,7.64,7.64,0,0,0-2.38,3.1,4.59,4.59,0,0,0-.41,1.77,2.42,2.42,0,0,0,.58,1.64,1.91,1.91,0,0,0,1.55.73q1.6,0,4.19-2.24a27.57,27.57,0,0,0,3.17-3.2l.2-.24q.19-.22.3-.22C246.75,250.6,246.8,250.65,246.8,250.76Z"/><path class="cls-1" d="M256.54,250.62a2.23,2.23,0,0,1-.45.61l-.43.48a22.92,22.92,0,0,1-4.45,4.06,8.25,8.25,0,0,1-3.93,1.3l-.37.07a7.84,7.84,0,0,1-1.38.19q-1.92,0-1.92-.84,0-.43.48-.43a3.18,3.18,0,0,1,.8.19,14.52,14.52,0,0,0,1.88.48,3,3,0,0,0,1.71-1.29,3.7,3.7,0,0,0,.61-2.09,5.52,5.52,0,0,0-1.12-3.06l-.28-.41q-.17.17-.45.5l-.5.6q-.19.22-.34.22a.13.13,0,0,1-.15-.15q0-.11.3-.45l.86-1,.11-.11a2.55,2.55,0,0,1-.2-.91,1.7,1.7,0,0,1,.28-.91.94.94,0,0,1,.76-.52q.47,0,.47.56a2.13,2.13,0,0,1-.56,1.32l-.17.2a.16.16,0,0,0-.06.11.28.28,0,0,0,.07.15l.09.13.39.45a5.18,5.18,0,0,1,1.64,3.28,3.93,3.93,0,0,1-2.07,3.22,10.58,10.58,0,0,0,5-2.92,30.65,30.65,0,0,0,2.85-3q.22-.26.32-.26C256.48,250.47,256.54,250.52,256.54,250.62Z"/><path class="cls-1" d="M265.07,250.65q0,.13-.52.71-5.18,5.79-7.77,5.79a1.9,1.9,0,0,1-1.49-.62,2.27,2.27,0,0,1-.56-1.57,6.11,6.11,0,0,1,.32-1.86,16.48,16.48,0,0,1,1.17-2.72l.17-.32-2.38.13.43-.45h2.14l.17-.32q.43-.82,1.27-2.2l1.14-1.88,1.34-.22-.48.74q-1,1.66-1.89,3.25l-.35.64,4.72-.22-.29.45H260q-1.33,0-2,0l-.36,0a11.71,11.71,0,0,0-1.72,4.79q0,1.56,1.38,1.56a5.87,5.87,0,0,0,3.4-1.71,38.09,38.09,0,0,0,3.6-3.54l.34-.37q.22-.24.3-.24C265,250.5,265.07,250.55,265.07,250.65Z"/><path class="cls-1" d="M275.21,250.58q0,.13-.32.48a3,3,0,0,1-2.22,1.16,2.4,2.4,0,0,1-1.73-.82q-2.74,5.53-5.79,5.53a1.73,1.73,0,0,1-1.43-.69,2.36,2.36,0,0,1-.5-1.55,8.06,8.06,0,0,1,2.16-4.81,3.58,3.58,0,0,1,1.4-.37q-2.52,3.06-2.52,5.12a1.64,1.64,0,0,0,.41,1.11,1.3,1.3,0,0,0,1,.48q1.47,0,3.24-2.2a10.78,10.78,0,0,0,1.38-2.18l.24-.5a1.88,1.88,0,0,0,.13-.34s-.07-.27-.2-.71a4,4,0,0,1-.2-1.12q0-1.55.62-1.55t.53,1.34a6.64,6.64,0,0,1-.35,2.07,2,2,0,0,0,1.6.8,2.71,2.71,0,0,0,2.07-1.19q.2-.24.3-.24C275.16,250.41,275.21,250.47,275.21,250.58Z"/><path class="cls-1" d="M284.49,250.63q0,.19-.48.61a4.33,4.33,0,0,1-2.92,1.1,5.91,5.91,0,0,1-1.4-.2q.06.67.06.89a4.81,4.81,0,0,1-2.29,4,3.51,3.51,0,0,1-2,.71,2.37,2.37,0,0,1-1.9-.86,3.06,3.06,0,0,1-.73-2,6.15,6.15,0,0,1,3-5.2,4.69,4.69,0,0,1,2.65-.91q1.32,0,1.32.43a.62.62,0,0,1-.21.37.58.58,0,0,1-.36.22l-.19-.07a2.29,2.29,0,0,0-1.06-.34,3.68,3.68,0,0,0-2.92,1.51,4.79,4.79,0,0,0-1.17,3.14,2.82,2.82,0,0,0,.6,1.82,2.09,2.09,0,0,0,1.7.8,2.89,2.89,0,0,0,2.31-1.16,3.85,3.85,0,0,0,.89-2.5,4.08,4.08,0,0,0-.13-1,1.52,1.52,0,0,0-.3-.13q-.91-.37-.91-.78t.37-.3q.6,0,1.1.91a4.73,4.73,0,0,0,1.58.3,3.89,3.89,0,0,0,3-1.36q.17-.19.26-.19C284.44,250.47,284.49,250.52,284.49,250.63Z"/></g></g></svg>