<svg xmlns="http://www.w3.org/2000/svg" viewBox="0 0 822.57 850.76"><defs><style>.cls-1{fill:#231f20;}.cls-2{fill:#f4eee6;}</style></defs><title>Asset 3</title><g id="Layer_2" data-name="Layer 2"><g id="Layer_1-2" data-name="Layer 1"><path class="cls-1" d="M814.55,404.57c-1.58-4.69-8.46-6.94-21-6.87-13.4.07-25.72-.68-29.17-.91-1.37-3.13-3.93-3.9-6.21-4.56-2.64-.76-4.92-1.41-6.32-5.57a6.38,6.38,0,0,1,2.67-7.72c2.72-1.88,6.46-2.25,8.18-.83l2-2.45c-2.81-2.33-8.08-2-12,.66a9.53,9.53,0,0,0-3.88,11.36c1.93,5.74,5.55,6.77,8.46,7.61,2.1.6,3.35,1,4.1,2.55-2.72,2.37-12,10.34-22.58,18.31-10.05,7.56-14.17,13.52-12.59,18.21,1.86,5.52,5.63,7.43,11.16,5.74l11.48,34a12.13,12.13,0,0,0,15.35,7.61l50.15-16.91a12.13,12.13,0,0,0,7.61-15.35l-11.51-34.14C814.85,413.25,816.25,409.64,814.55,404.57Zm-.08,32.72-67.09,22.62-7.46-22.12a9,9,0,0,1,5.61-11.32l50.15-16.91A9,9,0,0,1,807,415.18Zm-66.07,25.63,67.09-22.62,1.07,3.16-67.09,22.62Zm64.92-1.08-50.15,16.91a9,9,0,0,1-11.32-5.61l-1.36-4,67.09-22.62,1.36,4A9,9,0,0,1,813.31,461.84Zm-4.05-49.43a12.12,12.12,0,0,0-14.59-5.86l-50.15,16.91a12.12,12.12,0,0,0-8,13.6c-5,1.56-6.4-1.08-7.28-3.71-.49-1.44-.34-5.76,11.49-14.65,11.12-8.37,20.82-16.76,23.1-18.76,3,.21,15.82,1,29.74.94,14.8-.08,17.53,3.27,18,4.71C812.34,408,812.83,410.6,809.26,412.41Z"/><path class="cls-1" d="M407.73,732.52a4.42,4.42,0,0,0-1.8-.38,8.13,8.13,0,0,0-14.38,4.59l-3.67,1.33a8.12,8.12,0,0,0-14,5.14,6.22,6.22,0,0,0-3.21,2.73,3.84,3.84,0,0,0-.08,3l3.77,10.41a4.83,4.83,0,0,0,2.63,2.92,8.52,8.52,0,0,0,5.21.16c-2.47,3.34-2.75,7.29-1,12.17l24.47,67.58c2.35,6.48,10.35,9.87,15.26,8.09l14.94-5.41c4.91-1.78,8.89-9.5,6.54-16L418,761.31c-1.77-4.88-4.51-7.74-8.55-8.72a8.52,8.52,0,0,0,3.9-3.46,4.83,4.83,0,0,0,.15-3.93l-3.77-10.41A3.84,3.84,0,0,0,407.73,732.52Zm-33.18,18.53L408,738.93l.49,1.35L375,752.4Zm23.35-18.58a5.15,5.15,0,0,1,4.32.4l-1.43.51-.56.2-5.39,2A5.15,5.15,0,0,1,397.9,732.47Zm-17.64,6.39a5.14,5.14,0,0,1,4.31.4l-7.37,2.67A5.15,5.15,0,0,1,380.25,738.86Zm-6.87,8.35c.42-.9,2.59-1.67,4.18-2.24l.57-.21,23.69-8.58c1.59-.58,3.74-1.38,4.64-1,.08,0,.28.13.43.56l.12.32-33.48,12.12-.12-.32A.83.83,0,0,1,373.38,747.21Zm65.53,80.72L407.8,839.2l-2-5.62,31.11-11.26Zm-4,14.13-14.94,5.41c-3,1.09-8.88-1-11.08-5.48l31-11.23C441.09,835.65,437.9,841,434.89,842.07Zm-19.73-79.74,20.7,57.17-31.11,11.26L384,773.59c-2.22-6.13-1.33-10.9,9.59-15.35.72-.29,1.45-.57,2.15-.83s1.44-.5,2.18-.74C409.21,753.1,412.94,756.2,415.16,762.33Zm-4.51-14.53c-1,2.1-6.16,3.7-10.69,5.1-1.73.54-3.52,1.1-5.19,1.7s-3.41,1.32-5.08,2c-4.38,1.82-9.34,3.87-11.48,2.92a1.86,1.86,0,0,1-1-1.2l-1.13-3.12,33.48-12.12,1.13,3.12A1.86,1.86,0,0,1,410.65,747.8Z"/><path class="cls-1" d="M405.67,784.7a7.62,7.62,0,1,0,9.76,4.57A7.63,7.63,0,0,0,405.67,784.7Zm4.17,11.51a4.63,4.63,0,1,1,2.78-5.93A4.63,4.63,0,0,1,409.84,796.22Z"/><path class="cls-1" d="M399.54,767.78a7.62,7.62,0,1,0,9.76,4.57A7.63,7.63,0,0,0,399.54,767.78Zm4.17,11.51a4.63,4.63,0,1,1,2.78-5.93A4.63,4.63,0,0,1,403.71,779.29Z"/><path class="cls-1" d="M378.1,84.64A2.91,2.91,0,1,0,381,87.55,2.91,2.91,0,0,0,378.1,84.64Zm0,3.73a.82.82,0,1,1,.82-.82A.82.82,0,0,1,378.1,88.37Z"/><path class="cls-1" d="M400.62,15.72a5,5,0,1,0-5-5A5,5,0,0,0,400.62,15.72Zm0-7.42a2.42,2.42,0,1,1-2.42,2.42A2.42,2.42,0,0,1,400.62,8.29Z"/><path class="cls-1" d="M461.28,35.31A15.84,15.84,0,0,0,456.69,30a1.49,1.49,0,0,0-.33-.22,8.82,8.82,0,0,0-8.46-.94c-4.75,2-42.48,26.83-44.08,27.89a1.5,1.5,0,0,0-.35,2.18l3,3.76L386.4,78c1-6.22,2.4-13.35,4.44-19,5.16-14.22,9.28-24.45,12.59-31.26a66,66,0,0,1,3.39-5.83c3.2-5.12,6.51-10.41,5.21-15-.65-2.3-2.38-4.17-5.16-5.56l-.2-.08C398.92-1.33,393.21.11,391,5.19s-13.44,35.85-16.78,50c-2.49,10.51-3.76,25.76-2.63,33.36A39,39,0,0,0,359,106.14c-1.63,4.8-2.14,11.28,0,14.37a4,4,0,0,0,3.24,1.82h.13c3.44,0,3.57-3.58,3.67-6.46a22.15,22.15,0,0,1,1.21-7.57c3-7.56,5.05-10.14,9.18-13.23a6.88,6.88,0,0,0,2.13.36,5.82,5.82,0,0,0,1.28-.14c1.32-.3,3.66-1.34,4.5-5,.07-.33.15-.7.23-1.1l76.24-51.86A1.49,1.49,0,0,0,461.28,35.31Zm-12.22-3.68a5.49,5.49,0,0,1,3.56-.27L407.86,59.67l-1-1.3C420.68,49.26,445.58,33.09,449.06,31.63Zm-84.57,75.55a24.57,24.57,0,0,0-1.42,8.58c0,1.3-.11,3.25-.47,3.54,0,0-.06.06-.26,0a1,1,0,0,1-.86-.54c-1.33-1.91-1.17-7.15.37-11.7a35.15,35.15,0,0,1,10.54-15.35,3.94,3.94,0,0,0,.48.83,7.18,7.18,0,0,0,.8.85C369.9,96.43,367.55,99.56,364.49,107.18Zm14.7-14.82a3.68,3.68,0,0,1-4.52-3.27,1.49,1.49,0,0,0-.07-.42c-.88-5.5-.48-20.11,2.52-32.81,3.31-14,14.44-44.49,16.62-49.47,1.13-2.6,3.52-3.4,6-3.4a19.51,19.51,0,0,1,5.85,1.08c2,1,3.12,2.2,3.53,3.65.94,3.35-2,8.07-4.87,12.64a68.31,68.31,0,0,0-3.54,6.11C397.39,33.36,393.23,43.68,388,58c-2.72,7.49-4.26,17.34-5.38,24.53-.33,2.09-.62,4-.89,5.44h0c-.11.6-.22,1.15-.32,1.6C381.08,91.18,380.32,92.11,379.2,92.36Zm6.09-7.31.32-2.06.11-.7,23.76-18.14a1.5,1.5,0,0,0,.27-2.12h0l45.9-29A13.12,13.12,0,0,1,458,35.61Z"/><path class="cls-1" d="M699.34,626.75a1.49,1.49,0,0,0-1.38.66l-9.73,14.53c-5.58.41-39.45,3.11-52.92,8.88A26.6,26.6,0,0,0,618.76,673a1.48,1.48,0,0,0,0,.54,29.6,29.6,0,0,0,.24,6.64,1.49,1.49,0,0,0,.07.46,33.34,33.34,0,0,0,1.62,6.15,1.5,1.5,0,0,0,.07.21l0,0q.29.76.61,1.52A24.62,24.62,0,0,0,628.4,698a1.49,1.49,0,0,0,.37.3,26.47,26.47,0,0,0,16.47,5.42l12.85,30a6.53,6.53,0,0,0,6.65,4.26,7.43,7.43,0,0,0,2.34,3.2c1.59,1.1,3.69,1.07,6.43-.1,5.38-2.3,5.9-4,4.09-8.53,1.59-1.66,2.4-3.93,1.33-7.27a7.29,7.29,0,0,0-5.56-13.16l-.58-1.34a7.29,7.29,0,0,0-5.62-13.12l-.87-2c14-9.32,30.66-23,33.9-25.69l17.19,2.78a1.5,1.5,0,0,0,1.61-2.07l-18.42-43A1.5,1.5,0,0,0,699.34,626.75ZM632.6,697.32l9.11-3.9a1.5,1.5,0,1,0-1.18-2.75l-10.68,4.58a22.76,22.76,0,0,1-2.51-2.59l11.87-5.08a1.5,1.5,0,1,0-1.18-2.75l-12.47,5.34a21.67,21.67,0,0,1-1.47-2.83l-.07-.17,12.68-5.43a1.5,1.5,0,1,0-1.18-2.75L623,684.35a30.87,30.87,0,0,1-.86-3.29l12.08-5.17a1.5,1.5,0,0,0-1.18-2.75L621.68,678a26.33,26.33,0,0,1-.09-3.62L631.71,670a1.5,1.5,0,1,0-1.18-2.75L622,670.95a23.39,23.39,0,0,1,13.29-16.84l19.26,45a27.56,27.56,0,0,1-7.76,1.77,1.49,1.49,0,0,0-1.15,0l-.09.05A22.73,22.73,0,0,1,632.6,697.32Zm39.72,41c-2.54,1.09-3.3.56-3.54.39a3.46,3.46,0,0,1-.95-1.22,25.94,25.94,0,0,0,3.57-1.29,34,34,0,0,0,3.72-1.79C676,736.74,675.49,737,672.32,738.33Zm6.42-20.75a4.3,4.3,0,0,1-1,4.8L674.58,715A4.3,4.3,0,0,1,678.74,717.58Zm-6.19-14.46a4.3,4.3,0,0,1-1,4.8l-3.16-7.38A4.3,4.3,0,0,1,672.55,703.12Zm3.16,22.1c2,4.76-.48,6.1-5.48,8.25-6.68,2.86-8.46,1.25-9.39-.93l-12.42-29a29.89,29.89,0,0,0,8.52-2.22l.12-.06c2.06-1.11,4.32-2.47,6.69-4Zm22.23-57.31c-4.6,3.8-26.67,21.81-40.7,29.84L638,652.94c13.56-5,44-7.53,50.06-8Zm17.23,1.42L700.8,667l-10.05-23.47,8.16-12.18Z"/><path class="cls-1" d="M29.83,487.82,8.34,478.92A13.51,13.51,0,0,1,1,461.29l24.36-58.87A13.51,13.51,0,0,1,43,395.11L64.51,404a13.51,13.51,0,0,1,7.31,17.63L47.46,480.5A13.51,13.51,0,0,1,29.83,487.82Zm12.08-90a10.61,10.61,0,0,0-13.84,5.74L3.71,462.4a10.61,10.61,0,0,0,5.74,13.84l21.49,8.89a10.61,10.61,0,0,0,13.84-5.74l24.36-58.87a10.61,10.61,0,0,0-5.74-13.84Z"/><path class="cls-1" d="M26.71,464.93c-7.81-3.23-9.65-16.09-4.19-29.29s15.85-21,23.66-17.76,9.65,16.09,4.19,29.29S34.52,468.16,26.71,464.93Zm18.36-44.37C39,418,29.88,425.46,25.2,436.75s-3.48,23,2.62,25.49S43,457.35,47.69,446.06,51.16,423.08,45.07,420.56Z"/><path class="cls-1" d="M64.47,407.13a1.45,1.45,0,0,1-.79-1.9l4.39-10.61a3.52,3.52,0,0,0-1.91-4.6L52,384.18a3.52,3.52,0,0,0-4.59,1.91L43.06,396.7a1.45,1.45,0,0,1-2.68-1.11L44.77,385a6.43,6.43,0,0,1,8.39-3.48l14.12,5.84a6.43,6.43,0,0,1,3.48,8.39l-4.39,10.61A1.45,1.45,0,0,1,64.47,407.13Z"/><path class="cls-1" d="M65.85,389.9a1.45,1.45,0,0,1-.79-1.9L67,383.33c.82-2,.48-3.61,0-3.79l-8.18-3.38c-.45-.19-1.84.72-2.66,2.7l-1.93,4.67a1.45,1.45,0,0,1-2.68-1.11l1.93-4.67c1.4-3.38,4.17-5.22,6.45-4.28l8.18,3.38c2.28.94,2.94,4.2,1.55,7.59l-1.93,4.67A1.45,1.45,0,0,1,65.85,389.9Z"/><path class="cls-1" d="M85.66,385.56a1.46,1.46,0,0,1-.49-.33l-6.77-7-26.63-11a1.45,1.45,0,0,1-.79-1.9l2.1-5.07a1.45,1.45,0,0,1,1.9-.79L90.4,374.12a1.45,1.45,0,0,1,.79,1.9l-3.62,8.76a1.45,1.45,0,0,1-1.9.79ZM54.23,365.09l25.56,10.58a1.46,1.46,0,0,1,.49.33l5.44,5.62,2.22-5.37L55.21,362.71Z"/><path class="cls-1" d="M59.92,376.6a1.45,1.45,0,0,1-.79-1.9l2.12-5.13a1.45,1.45,0,1,1,2.68,1.11l-2.12,5.13A1.45,1.45,0,0,1,59.92,376.6Z"/><path class="cls-1" d="M66.46,379.3a1.45,1.45,0,0,1-.79-1.9l2.12-5.13a1.45,1.45,0,1,1,2.68,1.11l-2.12,5.13A1.45,1.45,0,0,1,66.46,379.3Z"/><path class="cls-1" d="M683.69,197.63a6.72,6.72,0,1,0,2.65,9.13A6.73,6.73,0,0,0,683.69,197.63Zm-5,9.16a3.73,3.73,0,1,1,5.06-1.47A3.73,3.73,0,0,1,678.65,206.79Z"/><path class="cls-1" d="M637.77,172.39a6.72,6.72,0,1,0,2.65,9.12A6.73,6.73,0,0,0,637.77,172.39Zm-5,9.16a3.73,3.73,0,1,1,5.06-1.47A3.73,3.73,0,0,1,632.74,181.55Z"/><path class="cls-1" d="M698.25,223a6,6,0,0,0-3.9-6.36c-3.59-1.56-4.42-2.68-4.72-4.09a12.83,12.83,0,0,0-4.89-21.2l-3.57-22.7c5.51-3.57,36.1-23.39,39.75-26a10.15,10.15,0,0,0,4.39-8.14,1.5,1.5,0,0,0-.71-1.21,1.53,1.53,0,0,0-1.4-.09l-44.48,19.93-7.65-48.61a1.5,1.5,0,0,0-2.4-.94c-.42.33-4.1,3.3-4.55,6.36-.23,1.55-.24,16.44,0,49.75l-20.65,9.26a12.9,12.9,0,1,0,4,8.1l22.82-7.1,4.51,22a12.88,12.88,0,0,0,6.76,24.38c.74,2,2.37,5.77,4.32,7.37a16.11,16.11,0,0,0,2.45,1.65,11.2,11.2,0,0,0,6.67,1.6A4.39,4.39,0,0,0,698.25,223Zm23.46-85.89a7.75,7.75,0,0,1-2.56,3.08c-3.34,2.44-30.92,20.32-38.5,25.23l-1.46-9.25Zm-54.65-26.75a5.91,5.91,0,0,1,1.49-2.57l7.34,46.58-8.84,4C667,145.3,666.78,112.39,667.06,110.37Zm-3,52.58c0,1.12,0,1.82,0,2,0,.46,0,1.46,2.48,3l-19.86,6.18a12.94,12.94,0,0,0-1.32-2.78Zm-34.32,24a9.91,9.91,0,1,1,13.45-3.91A9.92,9.92,0,0,1,629.76,187ZM672,167.28a21,21,0,0,1-4.93-2.66c0-.51,0-1.55,0-3l9.3-4.17,5.23,33.23a12.92,12.92,0,0,0-4.07.3l-4.62-22.61A1.47,1.47,0,0,0,672,167.28Zm-.25,31.46a9.91,9.91,0,1,1,3.91,13.46A9.92,9.92,0,0,1,671.77,198.75ZM694.45,224c-1.74.26-4.65-.86-6.78-2.61-1.12-.92-2.4-3.54-3.24-5.66a13,13,0,0,0,2.7-1.23c.77,1.79,2.39,3.26,6,4.86a3,3,0,0,1,2.13,3.23C695.17,223.47,694.72,224,694.45,224Z"/><path class="cls-1" d="M185.31,203.53l-27.23,9.35-1.2-3.5,26.11-9a1.5,1.5,0,0,0-1-2.83l-26.11,9-.93-2.71,26.11-9a1.5,1.5,0,0,0-1-2.83L154,201l-.93-2.71,26.11-9a1.5,1.5,0,0,0-1-2.83l-26.11,9-.93-2.71,26.11-9a1.5,1.5,0,0,0-1-2.83l-26.11,9-.93-2.71,26.11-9a1.5,1.5,0,0,0-1-2.83l-26.11,9-.93-2.71,26.11-9a1.5,1.5,0,0,0-1-2.83l-26.11,9-.93-2.71,26.11-9a1.5,1.5,0,0,0-1-2.83l-26.11,9-.93-2.71,26.11-9a1.5,1.5,0,0,0-1-2.83l-26.11,9-.93-2.71,26.11-9a1.5,1.5,0,0,0-1-2.83l-26.11,9-.93-2.71,26.11-9a1.5,1.5,0,0,0-1-2.83l-26.11,9-.93-2.71L164,145a1.5,1.5,0,0,0-1-2.83l-26.11,9-.93-2.71,26.11-9a1.5,1.5,0,0,0-1-2.83l-26.11,9-.93-2.71,26.11-9a1.5,1.5,0,0,0-1-2.83l-26.11,9-.93-2.71,26.11-9a1.5,1.5,0,0,0-1-2.83l-26.11,9-.93-2.71,26.11-9a1.5,1.5,0,0,0-1-2.83l-26.11,9-.93-2.71,26.11-9a1.5,1.5,0,0,0-1-2.83l-26.11,9-.73-2.13,27.26-9.24h0a1.49,1.49,0,0,0,.93-1.9c-2.42-7.05-9.86-4.5-12.31-3.66l-21.25,7.3a10.46,10.46,0,0,0-6.49,13.28l30.44,88.61a10.46,10.46,0,0,0,13.28,6.49l21.25-7.3c2.44-.84,9.88-3.39,7.46-10.45A1.49,1.49,0,0,0,185.31,203.53Zm-6.53,8.55-21.25,7.3a7.47,7.47,0,0,1-9.48-4.63l-30.44-88.61a7.47,7.47,0,0,1,4.63-9.48l21.25-7.3c4.68-1.61,6.75-1.12,7.84.44L124.25,119h0a1.49,1.49,0,0,0-.93,1.9l32.42,94.38a1.49,1.49,0,0,0,1.9.93l27.06-9.29C184.79,208.81,183.46,210.47,178.78,212.08Z"/><path class="cls-1" d="M170.08,669.71l-1,.7c-1.8-14.45-12.9-43-17.37-49.49-3.05-4.4-10-5.92-17.77-4.79a1.5,1.5,0,0,0-.58.09,44.51,44.51,0,0,0-14,4.83l-.15.08a43.78,43.78,0,0,0-8.16,5.73,1.44,1.44,0,0,0-.27.24,44.09,44.09,0,0,0-9.29,11.63,1.5,1.5,0,0,0-.27.5c-3.5,6.71-4.34,13.41-1.38,17.66,4.48,6.45,27.37,26.86,40.28,33.6l-1,.7a5.79,5.79,0,0,0,5.32,10.19l12.12,17.47a10.31,10.31,0,0,0,10.35,4.25c-.39,4,.32,9.13,2.78,10.84a3.53,3.53,0,0,0,4.19-.2l23.88-16.57a3.53,3.53,0,0,0,1.65-3.85c-.74-2.9-5.3-5.37-9.18-6.4a10.31,10.31,0,0,0-.36-11.18l-12.12-17.47a5.79,5.79,0,0,0-7.68-8.55Zm-20.84-47.09c4.53,6.53,16.06,36.44,17,49.74l-3.94,2.73q-2.21-6.2-4.14-11.75c-7.14-20.45-12-34.43-21.16-44.59C142.71,618.43,147.29,619.82,149.24,622.63Zm8.81,55.44c-4.67-10.22-19.93-40.14-35.53-55.29a40.43,40.43,0,0,1,10.79-3.58C143,629,148,643.13,155.36,664.33c1.37,3.93,2.83,8.11,4.42,12.53Zm-38.31-53.8c15.76,14.82,31.45,45.85,35.81,55.53l-2.36,1.64c-10.28-10.11-31.8-34.6-39.49-52.92,1-.84,2.06-1.66,3.18-2.43C117.82,625.43,118.78,624.82,119.74,624.26ZM149,684.36c-3.83-3.23-7.44-6.23-10.82-9-16.88-14-28.11-23.3-33.82-35.67a39.9,39.9,0,0,1,7-9c8.1,18.38,28.95,42.22,39.34,52.53Zm-46.65-29.18c-1.86-2.68-1.67-7.17.36-12.11,6.24,11.9,17.34,21.12,33.57,34.56q4.78,4,10.18,8.49L143,688.53C130.84,683,106.85,661.71,102.32,655.18ZM196.53,714c0,.1.07.29-.46.66l-23.88,16.57c-.53.37-.69.26-.77.2-1.26-.88-2.08-5.82-1.3-9.55.27-.15.54-.31.79-.49l16.39-11.37c.26-.18.5-.37.74-.57C191.81,710.06,196.15,712.56,196.53,714Zm-10.94-6.44L169.21,719A7.32,7.32,0,0,1,159,717.14l-12-17.32,28.4-19.71,12,17.32A7.32,7.32,0,0,1,185.6,707.61ZM175,676.78,144,698.25a2.8,2.8,0,0,1-3.2-4.61l3.09-2.15h0l27.85-19.33a2.8,2.8,0,0,1,3.2,4.61Z"/><circle class="cls-1" cx="410.36" cy="424.22" r="267.39"/><path class="cls-2" d="M389.3,396.25q-3-.23-15.07-.23-6.34,0-11.9.23a29.66,29.66,0,0,1,.7-6,6.64,6.64,0,0,0,3.75-1.24q1-.93,1-3.63a42.9,42.9,0,0,0-.31-4.79l-2.24-21.25L350.75,396.1a19.36,19.36,0,0,1-5.79.62l-16.3-37.16L326.8,377q-.39,3.86-.39,5.87,0,4.17,1.16,5.68a4.86,4.86,0,0,0,3.79,1.66,24.65,24.65,0,0,1,.62,6q-2.32-.23-8.5-.23-5.1,0-9.73.23a24.6,24.6,0,0,1,.62-6,5.25,5.25,0,0,0,3.32-1.31,8.7,8.7,0,0,0,2-3.9,42.48,42.48,0,0,0,1.27-7.69l1.7-18.85a30.92,30.92,0,0,0,.23-3.48q0-3.25-1.08-4.33t-3.94-1.08a22.39,22.39,0,0,1-.62-6q3.48.23,10.82.23,8.19,0,10.51-.23l14,33.38,12.05-33.38q4.17.23,11.13.23t10.43-.23a22.43,22.43,0,0,1-.62,6q-2.86,0-4,1.24t-1.16,4.33a30.4,30.4,0,0,0,.23,3.4l2.16,21.17a43.36,43.36,0,0,0,1,6.76,4.71,4.71,0,0,0,1.62,2.74,7.47,7.47,0,0,0,3.28.93A29.17,29.17,0,0,1,389.3,396.25Z"/><path class="cls-2" d="M434.58,390a8.18,8.18,0,0,1-1,4.09,40.73,40.73,0,0,0-13.91,2.63,4.35,4.35,0,0,1-2.28-1.7,5.13,5.13,0,0,1-.66-2.7,14.25,14.25,0,0,1,.54-3.86,13.84,13.84,0,0,1-3.79,5.25q-3.55,2.86-9.66,2.86-5.56,0-8.69-2.32a7.85,7.85,0,0,1-3.13-6.72,9.26,9.26,0,0,1,3.28-7.38,20.87,20.87,0,0,1,8.27-4.17,93.92,93.92,0,0,1,11.86-2.28,18.23,18.23,0,0,0-.39-4.06,5.93,5.93,0,0,0-1.39-2.74,5.21,5.21,0,0,0-3.94-1.62,4.15,4.15,0,0,0-3.83,2.2,16.36,16.36,0,0,0-1.74,6.22,48.46,48.46,0,0,1-4.91-.19,14.71,14.71,0,0,1-3.51-.81q.15-2,.15-3.17a38.11,38.11,0,0,0-.7-6.8,41.13,41.13,0,0,1,8.15-2.09,58,58,0,0,1,9.31-.77q10,0,13.91,3.94a11.38,11.38,0,0,1,2.59,4.48,25.89,25.89,0,0,1,1,8v5.1a20.57,20.57,0,0,0,.31,4.25,2.64,2.64,0,0,0,1.2,1.82,6.5,6.5,0,0,0,2.82.58A9.9,9.9,0,0,1,434.58,390Zm-19.16-11.36q-5.1,1-7.11,2.51a4.59,4.59,0,0,0-2,3.83,3.17,3.17,0,0,0,.81,2.39,2.85,2.85,0,0,0,2,.77,5.68,5.68,0,0,0,4.33-2.2,8.77,8.77,0,0,0,1.93-6Zm-5.22-24a14.59,14.59,0,0,1-3.36-1.08,67.24,67.24,0,0,0,2.94-6.3,40.49,40.49,0,0,0,1.78-5.76,25.06,25.06,0,0,1,7.88-1,31.64,31.64,0,0,1,4.95.31,87.58,87.58,0,0,0-10,14.29A19.35,19.35,0,0,1,410.2,354.61Z"/><path class="cls-2" d="M444,393.47Q441,390.22,441,382.58V368.44a15,15,0,0,0-5.79-.93,15.22,15.22,0,0,1,1.08-6.1H441v-8.88a27,27,0,0,0,6.8-1.54,18.84,18.84,0,0,0,5.41-2.86,3.7,3.7,0,0,1,1.93,1.74,9.07,9.07,0,0,1,.54,3.67v7.88h9a23.64,23.64,0,0,1-.77,6.18,22.59,22.59,0,0,0-8.27,1.39v12.67A30,30,0,0,0,456,387a4.15,4.15,0,0,0,1.08,2.39,3.35,3.35,0,0,0,2.2.62,12.25,12.25,0,0,0,2.24-.23,10.71,10.71,0,0,0,2.16-.62,8.76,8.76,0,0,1,1.16,4.94A14.59,14.59,0,0,1,460,396a29,29,0,0,1-6.57.73Q447.09,396.71,444,393.47Z"/><path class="cls-2" d="M504.34,388.76A8.67,8.67,0,0,1,505,392a25.53,25.53,0,0,1-7.3,3.51,31.5,31.5,0,0,1-9.08,1.2q-10.59,0-15.61-4.87t-5-13.13q0-8.81,5.29-13.79t14.33-5q8.73,0,13.17,4.48t4.6,12.44a8.81,8.81,0,0,1-2.55,4.56q-11.74,0-19.78.46,1.86,7.73,9.81,7.73a19.8,19.8,0,0,0,5.56-.81,13.43,13.43,0,0,0,4.48-2.12A4.28,4.28,0,0,1,504.34,388.76ZM483.91,368.4a18.15,18.15,0,0,0-1.43,7.61H492.6q0-10.35-4.79-10.35A4.23,4.23,0,0,0,483.91,368.4Z"/><path class="cls-2" d="M278.51,487q-.85,1.85-3.63,1.85-4.25,0-7-.08l-8.58-.08q-9,0-14.6.15a10.28,10.28,0,0,1-1.16-2.67,10.83,10.83,0,0,1-.46-3.05,290.37,290.37,0,0,0,17.07-24h-2.94a5.7,5.7,0,0,0-2.9.62,4.21,4.21,0,0,0-1.66,2.2,22.91,22.91,0,0,0-1.08,4.67,22.92,22.92,0,0,1-4.64-.15,10.4,10.4,0,0,1-3.63-1.08,65.85,65.85,0,0,0,.93-12.28q4.79.23,16.46.23,10,0,15.14-.23a8.64,8.64,0,0,1,1.24,4.87,286.46,286.46,0,0,1-16.61,25h3.71a6.21,6.21,0,0,0,3.59-.85,4.83,4.83,0,0,0,1.74-2.7,26.82,26.82,0,0,0,.77-5.41,21.27,21.27,0,0,1,7.57.85A83.59,83.59,0,0,0,278.51,487Z"/><path class="cls-2" d="M324.56,482.71a8.18,8.18,0,0,1-1,4.09,40.73,40.73,0,0,0-13.91,2.63,4.35,4.35,0,0,1-2.28-1.7,5.13,5.13,0,0,1-.66-2.7,14.25,14.25,0,0,1,.54-3.86,13.84,13.84,0,0,1-3.79,5.25q-3.55,2.86-9.66,2.86-5.56,0-8.69-2.32a7.85,7.85,0,0,1-3.13-6.72,9.26,9.26,0,0,1,3.28-7.38,20.87,20.87,0,0,1,8.27-4.17,93.92,93.92,0,0,1,11.86-2.28,18.23,18.23,0,0,0-.39-4.06,5.93,5.93,0,0,0-1.39-2.74,5.21,5.21,0,0,0-3.94-1.62,4.15,4.15,0,0,0-3.83,2.2,16.36,16.36,0,0,0-1.74,6.22,48.46,48.46,0,0,1-4.91-.19,14.71,14.71,0,0,1-3.51-.81q.15-2,.15-3.17a38.11,38.11,0,0,0-.7-6.8,41.13,41.13,0,0,1,8.15-2.09,58,58,0,0,1,9.31-.77q10,0,13.91,3.94a11.38,11.38,0,0,1,2.59,4.48,25.89,25.89,0,0,1,1,8v5.1a20.57,20.57,0,0,0,.31,4.25,2.64,2.64,0,0,0,1.2,1.82,6.5,6.5,0,0,0,2.82.58A9.9,9.9,0,0,1,324.56,482.71ZM305.4,471.35q-5.1,1-7.11,2.51a4.59,4.59,0,0,0-2,3.83,3.17,3.17,0,0,0,.81,2.39,2.85,2.85,0,0,0,2,.77,5.68,5.68,0,0,0,4.33-2.2,8.77,8.77,0,0,0,1.93-6Zm-5.22-24a14.59,14.59,0,0,1-3.36-1.08,67.24,67.24,0,0,0,2.94-6.3,40.49,40.49,0,0,0,1.78-5.76,25.06,25.06,0,0,1,7.88-1,31.64,31.64,0,0,1,4.95.31,87.58,87.58,0,0,0-10,14.29A19.35,19.35,0,0,1,300.18,447.32Z"/><path class="cls-2" d="M374.24,482.71a8.19,8.19,0,0,1-1,4.09,40.73,40.73,0,0,0-13.91,2.63,4.34,4.34,0,0,1-2.28-1.7,5.13,5.13,0,0,1-.66-2.7,16.1,16.1,0,0,1,.54-3.86A10.87,10.87,0,0,1,354,486a12.21,12.21,0,0,1-4.52,2.4,21.41,21.41,0,0,1-6.53.93q-6.18,0-9.19-3.32t-3-11.2v-6.88a19.11,19.11,0,0,0-.31-4,3.1,3.1,0,0,0-1.31-2,7.44,7.44,0,0,0-3.17-.89,13,13,0,0,1,1-5.79,53.15,53.15,0,0,0,9.54-.77,26.18,26.18,0,0,0,6.3-1.78q2.63,1.16,2.63,4.95v15.14q0,4.94.81,6.76a2.65,2.65,0,0,0,2.51,1.82q2.63,0,4.48-3t1.85-8.61v-2.24a14.57,14.57,0,0,0-.42-4,3.24,3.24,0,0,0-1.58-2,9.76,9.76,0,0,0-3.48-.85,13,13,0,0,1,1-5.79,74.51,74.51,0,0,0,10.12-.62,23.53,23.53,0,0,0,6.41-1.55q2.63,1.16,2.63,4.95v16a24.12,24.12,0,0,0,.31,4.6,2.73,2.73,0,0,0,1.2,1.93,6.51,6.51,0,0,0,2.82.58A9.9,9.9,0,0,1,374.24,482.71Z"/><path class="cls-2" d="M377.6,505.65a8.25,8.25,0,0,1-1.2-3.4,22.78,22.78,0,0,0,5.22-7.34,24.46,24.46,0,0,0,1.43-9V466.4a5.46,5.46,0,0,0-1.16-3.94q-1.16-1.16-4.56-1.47a13,13,0,0,1,1-5.79,61.13,61.13,0,0,0,10-.77,25.45,25.45,0,0,0,6.64-1.78q2.7,1.24,2.7,4.95v24.72a23.77,23.77,0,0,1-2.78,11.43,30.76,30.76,0,0,1-6.8,8.69A37.52,37.52,0,0,1,380,508,6.33,6.33,0,0,1,377.6,505.65Zm5.79-58.41a5.53,5.53,0,0,1-2.12-4.56,6,6,0,0,1,2.32-5.1,9.77,9.77,0,0,1,6.1-1.78q4.09,0,6.22,1.7a6.05,6.05,0,0,1,2.12,5,5.51,5.51,0,0,1-2.4,4.63,10.65,10.65,0,0,1-6.49,1.78A9,9,0,0,1,383.39,447.24Z"/><path class="cls-2" d="M439.83,481.47a8.67,8.67,0,0,1,.62,3.25,25.53,25.53,0,0,1-7.3,3.51,31.5,31.5,0,0,1-9.08,1.2q-10.59,0-15.61-4.87t-5-13.13q0-8.81,5.29-13.79t14.33-5q8.73,0,13.17,4.48t4.6,12.44a8.81,8.81,0,0,1-2.55,4.56q-11.74,0-19.78.46,1.86,7.73,9.81,7.73a19.8,19.8,0,0,0,5.56-.81,13.43,13.43,0,0,0,4.48-2.12A4.28,4.28,0,0,1,439.83,481.47Zm-20.44-20.36a18.15,18.15,0,0,0-1.43,7.61h10.12q0-10.35-4.79-10.35A4.23,4.23,0,0,0,419.39,461.11Z"/><path class="cls-2" d="M521.42,489q-2.78-.23-10.82-.23-8.27,0-12.44.23a25.83,25.83,0,0,1,.62-6,3.34,3.34,0,0,0,2.2-.85,5.25,5.25,0,0,0,1.2-2.82,34.72,34.72,0,0,0,.39-6V469.8q0-4.33-1-6a3.28,3.28,0,0,0-3-1.7,5.57,5.57,0,0,0-5.1,3.21,18.18,18.18,0,0,0-1.78,8.77v1.7q0,4,.77,5.52a3.41,3.41,0,0,0,3.09,1.66,18.19,18.19,0,0,1,.77,6q-2.4-.23-11.74-.23t-12.13.23a19,19,0,0,1,.77-6,4.44,4.44,0,0,0,2.51-.85,4.6,4.6,0,0,0,1.12-2.82,52.41,52.41,0,0,0,.31-6.76V469q0-3.78-1.08-5.33a4,4,0,0,0-3.48-1.54q-2.86,0-4.67,3.48a18.18,18.18,0,0,0-1.82,8.5v1.7a26.34,26.34,0,0,0,.27,4.4,3.16,3.16,0,0,0,1,2,4.77,4.77,0,0,0,2.4.73,17.81,17.81,0,0,1,.77,6q-2.4-.23-12.75-.23-10,0-12.13.23a17.88,17.88,0,0,1,.77-5.95,7.23,7.23,0,0,0,3.17-.77,3.24,3.24,0,0,0,1.39-2,15.85,15.85,0,0,0,.39-4.06V469a27.28,27.28,0,0,0-.31-4.95,3,3,0,0,0-1.47-2.12,10.71,10.71,0,0,0-3.79-1,14.36,14.36,0,0,1,1.08-5.79,64.89,64.89,0,0,0,9.54-.7,24.46,24.46,0,0,0,7-1.86,3.46,3.46,0,0,1,1.89,1.66,6.52,6.52,0,0,1,.73,3.28,9.26,9.26,0,0,1-.27,2.09q-.27,1.16-.66,2.7a17.33,17.33,0,0,1,3-5.25A14.89,14.89,0,0,1,472.9,454a14.37,14.37,0,0,1,5.72-1.16,14.62,14.62,0,0,1,6.84,1.55,11.13,11.13,0,0,1,4.6,4.33,9.19,9.19,0,0,1,1.24,3.09,14.1,14.1,0,0,1,3.25-4.95,13,13,0,0,1,9.35-3.55q6.8,0,10.08,3.25t3.28,10.35v5.64q0,5.1.19,7a4.36,4.36,0,0,0,.85,2.59,3.81,3.81,0,0,0,2.36.81A19.09,19.09,0,0,1,521.42,489Z"/><path class="cls-2" d="M574.38,435.81a8,8,0,0,1,3.59,7,10.59,10.59,0,0,1-1.7,6.26,28.1,28.1,0,0,1-4.95,5.1,29,29,0,0,0-4.48,4.52,8.11,8.11,0,0,0-1.47,5,20.42,20.42,0,0,0,1.16,6.41,10.82,10.82,0,0,1-3.21,1.08,19.42,19.42,0,0,1-3.75.39,8.94,8.94,0,0,1-3.28-4,13.58,13.58,0,0,1-1.35-5.87,11,11,0,0,1,1.16-5.45,22.21,22.21,0,0,1,3.4-4.37,24,24,0,0,0,2.9-3.63,7.24,7.24,0,0,0,.89-3.79,6.26,6.26,0,0,0-1-3.86,3,3,0,0,0-2.51-1.24q-1.62,0-2.7,2.2t-1.7,8.15a19.34,19.34,0,0,1-4.36-.42,13.93,13.93,0,0,1-3.52-1.35q.23-2.94.23-6,0-2.7-.23-5a37.21,37.21,0,0,1,16-3.48Q570.79,433.34,574.38,435.81Zm-17.62,51.46a7.64,7.64,0,0,1-2.12-5.72,7,7,0,0,1,2.36-5.6,8.92,8.92,0,0,1,6.07-2,7.31,7.31,0,0,1,5.45,2.16,7,7,0,0,1,2.12,5.1,8.31,8.31,0,0,1-2.16,5.83,7.58,7.58,0,0,1-5.87,2.36A8,8,0,0,1,556.76,487.27Z"/></g></g></svg>