<svg xmlns="http://www.w3.org/2000/svg" viewBox="0 0 364.67 300.75"><defs><style>.cls-1,.cls-2{fill:#f4eee6;}.cls-2{opacity:0.3;}.cls-3{fill:none;stroke:#f4eee6;stroke-linecap:round;stroke-linejoin:round;stroke-width:4px;}</style></defs><title>Asset 4</title><g id="Layer_2" data-name="Layer 2"><g id="Layer_1-2" data-name="Layer 1"><rect class="cls-1" x="96.53" y="188.64" width="12.03" height="1.21" transform="translate(-112.61 183.43) rotate(-60)"/><rect class="cls-1" x="96.84" y="196.46" width="2.41" height="1.21" transform="translate(-121.64 183.44) rotate(-60)"/><rect class="cls-1" x="105.86" y="180.84" width="2.41" height="1.21" transform="translate(-103.6 183.44) rotate(-60)"/><rect class="cls-1" x="118.51" y="175.94" width="12.03" height="1.21"/><rect class="cls-1" x="114.29" y="175.95" width="2.41" height="1.21"/><rect class="cls-1" x="132.34" y="175.95" width="2.41" height="1.21"/><rect class="cls-1" x="145.91" y="183.22" width="1.21" height="12.03" transform="translate(-74.99 98.61) rotate(-30)"/><rect class="cls-1" x="141.39" y="180.21" width="1.21" height="2.41" transform="translate(-71.69 95.3) rotate(-30)"/><rect class="cls-1" x="150.41" y="195.84" width="1.21" height="2.41" transform="translate(-78.29 101.9) rotate(-30)"/><rect class="cls-1" x="140.5" y="214.01" width="12.03" height="1.21" transform="translate(-112.6 234.2) rotate(-60)"/><rect class="cls-1" x="149.82" y="206.19" width="2.41" height="1.21" transform="translate(-103.57 234.19) rotate(-60)"/><rect class="cls-1" x="140.8" y="221.81" width="2.41" height="1.21" transform="translate(-121.61 234.19) rotate(-60)"/><rect class="cls-1" x="132.37" y="226.7" width="2.41" height="1.21"/><rect class="cls-1" x="114.33" y="226.7" width="2.41" height="1.21"/><rect class="cls-1" x="101.95" y="208.61" width="1.21" height="12.03" transform="translate(-93.57 80.03) rotate(-30)"/><rect class="cls-1" x="106.47" y="221.24" width="1.21" height="2.41" transform="translate(-96.88 83.34) rotate(-30)"/><rect class="cls-1" x="97.45" y="205.61" width="1.21" height="2.41" transform="translate(-90.27 76.74) rotate(-30)"/><path class="cls-1" d="M113,177.14v-1.21h-3.47l-1.75,3,1.05.61.7-1.21.48-.83.16-.27,0-.08v0H113Z"/><path class="cls-1" d="M140.23,179.54l1-.6-1.73-3H136v1.21h2.8Z"/><path class="cls-1" d="M151.77,204.33l1,.6,1.73-3-1.75-3-1.05.61.7,1.21.48.83.16.27,0,.08v0h0Z"/><path class="cls-1" d="M136.07,226.72v1.21h3.47l1.75-3-1.05-.61-.7,1.21-.48.83-.16.27,0,.08v0h-2.77Z"/><path class="cls-1" d="M108.84,224.31l-1,.6,1.73,3H113v-1.21h-2.8Z"/><path class="cls-1" d="M97.3,199.53l-1-.6-1.73,3,1.75,3,1.05-.61-.7-1.21-.48-.83L96,202l0-.08v0h0Z"/><path class="cls-1" d="M137.58,187.15c0-.06-.08-.09-.12-.05a2.65,2.65,0,0,1-1.5.89,7.71,7.71,0,0,1,.33-1,.07.07,0,0,0-.11-.08,2.42,2.42,0,0,1-1.48.52,3.32,3.32,0,0,1-1.5-.49c-.88-.47-1.72-1-2.58-1.56a15.85,15.85,0,0,0-2.63-1.29c-.47-.17-1-.26-1.43-.39a8,8,0,0,0-5.75.65,8.77,8.77,0,0,0-2.81,2.44,4.44,4.44,0,0,0-2,1.73,6.75,6.75,0,0,0-.85,3,26.59,26.59,0,0,0,0,3.29,9.22,9.22,0,0,1-.14,2.67c0,.06.07.13.12.07a16,16,0,0,0,2.55-4.43.06.06,0,0,0,.05,0,3.79,3.79,0,0,1,3.16-2.35,5.08,5.08,0,0,1,2.09.25c.3.1.73.35,1.07.49a19.16,19.16,0,0,0,2.88,1,14.68,14.68,0,0,0,3.77.52,15.9,15.9,0,0,0,2.62,4.61c0,.06.14,0,.12-.07a9.24,9.24,0,0,1-.14-2.67c0-.8.06-1.61,0-2.41a8.56,8.56,0,0,0,2.62-1.81A5.72,5.72,0,0,0,137.58,187.15Z"/><path class="cls-1" d="M133.35,200.14a11.07,11.07,0,0,1-1.2,6.55V204.3s-1,3.22-2.91,3.22a15.79,15.79,0,0,1-5.12-1,14.74,14.74,0,0,1-5,1c-1.91,0-2.93-3.24-2.93-3.24l0,2.41a11.07,11.07,0,0,1-1.2-6.55s-2.24,7,.46,13.4l.4-1.09s-.4,1.87,2.89,3.74l0-1.14s-.34,2,5.39,4.68c5.73-2.65,5.13-4.68,5.13-4.68l.17,1.14c3.29-1.87,3-3.74,3-3.74l.4,1.09C135.58,207.1,133.35,200.14,133.35,200.14Zm-5.88,7.73c-.39,1.54-3.29,1.87-3.29,1.87s-2.9-.33-3.29-1.87c-.31-1.23-.35.89-.35.89l3.64-1.35,3.64,1.35S127.78,206.64,127.47,207.87Z"/><path class="cls-1" d="M131.1,206.47a.77.77,0,0,0,0-.34,0,0,0,0,0-.07,0,1.11,1.11,0,0,1-1.41.72.47.47,0,0,0,.33-.12s0-.11-.06-.08-.56,0-.71,0l-.28,0a19.86,19.86,0,0,0-1.74-1.08,2.59,2.59,0,0,0-2,0,1.89,1.89,0,0,0-.82,1l0,0a1.64,1.64,0,0,0-.1.29,1.64,1.64,0,0,0-.1-.29l0,0a1.89,1.89,0,0,0-.82-1,2.59,2.59,0,0,0-2,0,19.86,19.86,0,0,0-1.74,1.08l-.28,0c-.15,0-.58.11-.71,0s-.1,0-.06.08a.47.47,0,0,0,.33.12,1.11,1.11,0,0,1-1.41-.72,0,0,0,0,0-.07,0,.77.77,0,0,0,0,.34c-.13.57.48,1.27.88,1.56a4.83,4.83,0,0,0,2.52.74c1,.08,3.22-.23,3.51-1.37.3,1.14,2.56,1.44,3.51,1.37a4.83,4.83,0,0,0,2.52-.74C130.61,207.74,131.23,207,131.1,206.47Z"/><path id="_Path_" data-name="&lt;Path&gt;" class="cls-1" d="M122.52,196.57l-.55-.11a.17.17,0,0,1,0,.15,1.8,1.8,0,0,0-.84-.17.31.31,0,0,1,.07.11,4.89,4.89,0,0,0-1.63-.28l.1.06a2,2,0,0,0-1.75,1.05,3.89,3.89,0,0,0,.91-.28c.69-.18,1.38.23,2.08.41a6.36,6.36,0,0,0,1.9.08Z"/><path id="_Path_2" data-name="&lt;Path&gt;" class="cls-1" d="M126.06,196.64l.52-.1a.16.16,0,0,0,0,.14,1.71,1.71,0,0,1,.8-.16.3.3,0,0,0-.07.11,4.66,4.66,0,0,1,1.55-.26l-.09.06a1.91,1.91,0,0,1,1.67,1,3.71,3.71,0,0,1-.87-.26c-.66-.17-1.32.22-2,.39a6.06,6.06,0,0,1-1.81.08Z"/><path class="cls-1" d="M105.3,201.7v.41h-1v1.44h1.22V204h-1.67V199.9h1.67v.41H104.3v1.39Z"/><path class="cls-1" d="M107.7,200.87V201h-.43v-.13c0-.37-.14-.58-.46-.58s-.46.21-.46.57c0,.91,1.36,1,1.36,2.14,0,.61-.3,1-.92,1s-.91-.4-.91-1v-.23h.42V203c0,.37.15.58.48.58s.48-.21.48-.58c0-.91-1.36-1-1.36-2.13,0-.63.29-1,.9-1S107.7,200.26,107.7,200.87Z"/><path class="cls-1" d="M108.69,204v-3.65h-.75v-.41h1.95v.41h-.75V204Z"/><path class="cls-1" d="M110.29,203.4V204h-.44v-.56Z"/><path class="cls-1" d="M138.94,200.88c0,1.22-1.38,1.67-1.38,2.6v.06h1.33V204h-1.78v-.35c0-1.31,1.37-1.57,1.37-2.71,0-.42-.14-.64-.48-.64s-.48.24-.48.6v.36h-.42v-.33c0-.62.28-1,.91-1S138.94,200.26,138.94,200.88Z"/><path class="cls-1" d="M139.32,200.88c0-.62.31-1,.93-1s.93.4.93,1V203c0,.62-.31,1-.93,1s-.93-.41-.93-1Zm.45,2.12c0,.37.16.59.48.59s.48-.22.48-.59v-2.15c0-.37-.15-.59-.48-.59s-.48.22-.48.59Z"/><path class="cls-1" d="M142.45,200.63a1.21,1.21,0,0,1-.56.17v-.37a.69.69,0,0,0,.7-.54h.31V204h-.45Z"/><path class="cls-1" d="M145.4,200.87v.08H145v-.1c0-.37-.15-.58-.48-.58s-.49.22-.49.66v.91a.65.65,0,0,1,.66-.44c.52,0,.75.38.75,1V203c0,.62-.31,1-.93,1s-.93-.41-.93-1V200.9c0-.64.29-1,.93-1S145.4,200.25,145.4,200.87Zm-1.4,1.52V203c0,.37.15.59.48.59s.48-.22.48-.59v-.61c0-.37-.16-.59-.48-.59S144,202,144,202.39Z"/><rect class="cls-1" x="137.05" y="198.59" width="8.49" height="0.16"/><rect class="cls-1" x="137.05" y="205.04" width="8.49" height="0.16"/><rect class="cls-1" x="102.71" y="198.62" width="8.49" height="0.16"/><rect class="cls-1" x="102.71" y="205.07" width="8.49" height="0.16"/><path class="cls-1" d="M164.61,204.82l.05-.11c-2.6-.71-4.25-5.45-4.25-5.45-1.1-4.67-5.48-11.85-6.91-13.8s-2.92.85-2.92.85l3.68,5.72c2.34.1,5.29,7.38,5.29,7.38C162.43,204.81,164.61,204.82,164.61,204.82Z"/><path class="cls-2" d="M150.91,185.81h0a4.61,4.61,0,0,0-.32.5l3.68,5.72a1.6,1.6,0,0,1,.74.24Z"/><path class="cls-1" d="M159,210.13s5.24-8.93,3.72-9.83-2.85,4.8-7,10.64-6.25,7.86-5.38,9S156.42,215,159,210.13Z"/><circle class="cls-2" cx="161.7" cy="202.18" r="0.41" transform="translate(-88.65 136.23) rotate(-36.59)"/><circle class="cls-2" cx="157.17" cy="210.96" r="0.41" transform="translate(-94.86 135.54) rotate(-36.65)"/><circle class="cls-2" cx="154.5" cy="214.75" r="0.41" transform="matrix(0.8, -0.6, 0.6, 0.8, -97.61, 134.58)"/><circle class="cls-2" cx="151.77" cy="218.28" r="0.41" transform="translate(-100.26 133.65) rotate(-36.63)"/><path class="cls-1" d="M84.38,205l-.05-.11c2.6-.71,4.25-5.45,4.25-5.45,1.1-4.67,5.48-11.85,6.91-13.8s2.92.85,2.92.85l-3.68,5.72c-2.34.1-5.29,7.38-5.29,7.38C86.57,205,84.38,205,84.38,205Z"/><path class="cls-2" d="M98.09,186h0a4.61,4.61,0,0,1,.32.5l-3.68,5.72a1.6,1.6,0,0,0-.74.24Z"/><path class="cls-1" d="M90,210.28s-5.24-8.93-3.72-9.83,2.85,4.8,7,10.64,6.25,7.86,5.38,9S92.58,215.14,90,210.28Z"/><circle class="cls-2" cx="87.3" cy="202.33" r="0.41" transform="translate(-127.2 151.82) rotate(-53.41)"/><circle class="cls-2" cx="91.83" cy="211.11" r="0.41" transform="translate(-132.36 158.76) rotate(-53.35)"/><circle class="cls-2" cx="94.5" cy="214.9" r="0.41" transform="translate(-134.34 162.53) rotate(-53.37)"/><circle class="cls-2" cx="97.23" cy="218.43" r="0.41" transform="translate(-136.07 166.14) rotate(-53.37)"/><path class="cls-1" d="M140,168.74V173a.25.25,0,1,1-.5,0v-3.53h-.64V173a.25.25,0,1,1-.5,0v-3.53h-.64V173a.25.25,0,1,1-.5,0v-3.53h-.64V173a.25.25,0,0,1-.5,0v-3.53h-.64V173a.25.25,0,1,1-.5,0v-3.53h-.64V173a.25.25,0,1,1-.5,0v-3.53h-.64V173a.25.25,0,1,1-.5,0v-3.53H132V173a.25.25,0,1,1-.5,0v-3.53h-.64V173a.25.25,0,1,1-.5,0v-3.53h-.64V173a.25.25,0,0,1-.5,0v-3.53h-.64V173a.25.25,0,0,1-.5,0v-3.53h-.64V173a.25.25,0,0,1-.5,0v-3.53h-.64V173a.25.25,0,0,1-.5,0v-3.53h-.64V173a.25.25,0,1,1-.5,0v-3.53H124V173a.25.25,0,1,1-.5,0v-3.53h-.64V173a.25.25,0,0,1-.5,0v-3.53h-.64V173a.25.25,0,0,1-.5,0v-3.53h-.64V173a.25.25,0,0,1-.5,0v-3.53h-.64V173a.25.25,0,0,1-.5,0v-3.53h-.64V173a.25.25,0,1,1-.5,0v-3.53h-.64V173a.25.25,0,0,1-.5,0v-3.53h-.64V173a.25.25,0,0,1-.5,0v-3.53h-.64V173a.25.25,0,0,1-.5,0v-3.53h-.64V173a.25.25,0,0,1-.5,0v-3.53h-.64V173a.25.25,0,0,1-.5,0v-3.53h-.64V173a.25.25,0,0,1-.5,0v-3.53h-.64V173a.25.25,0,0,1-.5,0v-3.53h-.64V173a.25.25,0,1,1-.5,0v-3.89h0v-.35a1.61,1.61,0,0,1,1.61-1.61H138.4A1.61,1.61,0,0,1,140,168.74Z"/><path class="cls-1" d="M122.22,227.79l-.21.1Z"/><path class="cls-1" d="M129.57,227.92h.68l.3-.05v-1.16h-.74l-1.42.78A3.38,3.38,0,0,0,129.57,227.92Z"/><circle class="cls-1" cx="124.29" cy="227.32" r="0.52" transform="translate(-59.91 45.13) rotate(-16.65)"/><path class="cls-1" d="M121.89,228c-1.09.57-2.23,1.35-3.93.91a3.52,3.52,0,0,0-2.64.47,3.09,3.09,0,0,0-1.66,3.16l0,.1a1.86,1.86,0,0,1-2-.49c-.26-.31-.76.07-.5.38a2.51,2.51,0,0,0,2.74.67l.17.2a3,3,0,0,0,3.68.11,3.59,3.59,0,0,0,1.6-1.93,7.74,7.74,0,0,1,3.34-2.34l.81-.36ZM117.55,233a2,2,0,1,1,1.14-2.91A2.25,2.25,0,0,1,117.55,233Z"/><path class="cls-1" d="M119.67,226.71h-1.14v1.21h1.19a6.16,6.16,0,0,0,1.17-.52Z"/><path class="cls-1" d="M127.31,226.89l.07,0c3.83-2,8.36-4.73,8.29-5.56l-9.92,4.74Z"/><path class="cls-1" d="M123.51,226.06l-10.12-5.11c-.1.93,5.46,4.27,9.41,6.42A1.49,1.49,0,0,1,123.51,226.06Z"/><path class="cls-1" d="M133.52,229.31a3.52,3.52,0,0,0-2.63-.52c-1.89.45-2.82-.44-4-1l-1.12-.56a1.49,1.49,0,0,1-.67,1.37l1,.47a7.76,7.76,0,0,1,3.3,2.41,3.59,3.59,0,0,0,1.56,2c1.47.93,3.24.76,3.95-.37S135,230.23,133.52,229.31Zm.81,3.37a2.56,2.56,0,1,1-1.08-2.93A2.25,2.25,0,0,1,134.33,232.68Z"/><path class="cls-1" d="M364.66,142.72a2,2,0,0,0,0-.23c0-.06,0-.11,0-.17s0-.11-.05-.17a2,2,0,0,0-.07-.21v0L338.4,85.4c0-.05,0-.1,0-.15v-46h4.75a2,2,0,0,0,2-2V18.75h3.75a2,2,0,0,0,2-2V2a2,2,0,0,0-2-2h-334a2,2,0,0,0-2,2V16.75a2,2,0,0,0,2,2h5v18.5a2,2,0,0,0,2,2h5.75V85.16L.2,141.88l0,0a2,2,0,0,0-.08.21c0,.06,0,.11-.05.17s0,.12,0,.18a2,2,0,0,0,0,.22s0,0,0,0v14.67a2,2,0,0,0,2,2H8.79l18.87,49.23v74.1H21.42a2,2,0,0,0-2,2v14a2,2,0,0,0,2,2h323.5a2,2,0,0,0,2-2v-14a2,2,0,0,0-2-2h-6.25V275a2,2,0,0,0-2-2h-19.5V159.42h34.59L324.3,231a2,2,0,1,0,3.73,1.43l28-73h6.63a2,2,0,0,0,2-2v-14.7Zm-49.5,12.7H302.42V144.75h16.25v10.67Zm-66.7,29.93a2,2,0,0,0-1.41-.6l-17.76-.11V159.42h77v39.83H248.93l.11-12.48A2,2,0,0,0,248.47,185.35Zm-27.55-29.93h-3.75V144.75h16.5v10.67H220.92Zm-21.58,0h-5.17V144.75h19v10.67ZM49.67,245.75h154.5v7.5H45v-7.5Zm147.67-4H51.67V159.42H197.33ZM29.67,155.42H23.92V144.75H42.17v10.67ZM44.25,60.08H55.38L20.6,140.75H5.19Zm28.54,0-30,80.65H25L59.73,60.09Zm82.77,0-7.34,80.6H132.56l10.89-80.61Zm33.63,0,1,80.58H174.71l1.91-80.59Zm116.16.07,34.77,80.51H322.06L292.53,60.23Zm-17.08,0,29.53,80.52H301.87l-26-80.53Zm-8.35,95.19V144.75h18.5v10.67Zm-18.25,0V144.75h14.25v10.67Zm-24,0V144.75h20v10.67Zm34-95.2,26,80.53H279.48L259.72,60.21Zm-16.11,0,19.77,80.54H261.28L243.65,60.2Zm-16,0,17.63,80.55H237.39L225.24,60.19Zm-18.36,0,12.15,80.56H217l-7.38-80.57Zm-15.6,0L213,140.75H194.14l-1-80.58Zm-30.93,95.24V144.75h15.5v10.67Zm-22.62,0V144.75h18.62v10.67Zm-19.78,0V144.75H148v10.67Zm-24.27,0V144.75h20.27v10.67Zm-18.72,0V144.75H104v10.67Zm-22.86,0V144.75H85.28v10.67Zm104.3-14.67H152.24l7.34-80.6h13Zm-42.19,0h-20l18-80.62h13Zm-24.13,0H89.86l20.76-80.63h11.74Zm-18.66,0h-19L93.1,60.11h13.39Zm-23.17,0H47l30-80.65H88.89Zm-16.39,4H62.42v10.67H46.17Zm276.5,0h18.5v10.67h-18.5Zm21.81-4L309.71,60.24h12.68l37.16,80.5ZM16.92,4h330V14.75h-330Zm7,14.75H341.17v16.5H23.92Zm7.75,20.5H334.42V76.77l-8.93-19.36a2,2,0,0,0-1.82-1.16h-17l-65.5,0h0l-50,0H174.66l-32.52,0-.17,0a2,2,0,0,0-.71,0l-82.82,0H43a2,2,0,0,0-1.8,1.13L31.67,76.9ZM4,144.75H19.92v10.67H4Zm9.07,14.67H27.67v38.06ZM40.53,231l-8.87-23.13V159.42h16v82.33H43a2,2,0,0,0-2,2v11.5a2,2,0,0,0,2,2H206.17a2,2,0,0,0,2-2v-11.5a2,2,0,0,0-2-2h-4.83V159.42h17.58V273H31.67V219.08l5.13,13.39A2,2,0,1,0,40.53,231Zm-8.87,46H218.92v5.75H31.67Zm-8.25,9.75h195.5v10H23.42Zm319.5,10H317.17v-10h25.75ZM334.67,277v5.75h-17.5V277Zm-21.5-2v21.75H222.92V159.42h2.38v27.21a2,2,0,0,0,2,2l17.75.11-.11,12.5a2,2,0,0,0,2,2h61.37a2,2,0,0,0,2-2V159.42h2.88Zm47.5-119.58h-15.5V144.75h15.5Z"/><path class="cls-1" d="M308.29,209H247a2,2,0,0,0-2,2l.11,12.23H227.29a2,2,0,0,0-2,2V260.5a2,2,0,0,0,2,2h81a2,2,0,0,0,2-2V211A2,2,0,0,0,308.29,209Zm-2,49.5h-77V227.25h17.88a2,2,0,0,0,2-2L249.06,213h57.23Z"/><path class="cls-1" d="M227,209.25h14.13a2,2,0,1,0,0-4H229v-3.37a2,2,0,0,0-4,0v5.38A2,2,0,0,0,227,209.25Z"/><line class="cls-3" x1="336.67" y1="275" x2="336.67" y2="157.42"/></g></g></svg>