<svg xmlns="http://www.w3.org/2000/svg" viewBox="0 0 340.81 83.55"><defs><style>.cls-1,.cls-2{fill:#f4eee6;}.cls-2{opacity:0.6;}</style></defs><title>Asset 3</title><g id="Layer_2" data-name="Layer 2"><g id="Layer_1-2" data-name="Layer 1"><path class="cls-1" d="M0,43.8A55.81,55.81,0,0,0,1,32.18a32.23,32.23,0,0,1,8.46-.89,33.7,33.7,0,0,0,1,6.74,5.47,5.47,0,0,0,2.06,3.16,7.49,7.49,0,0,0,4.06.89,7.73,7.73,0,0,0,5-1.34,4.07,4.07,0,0,0,1.65-3.27,3.79,3.79,0,0,0-1.82-3.2,41.55,41.55,0,0,0-5.81-3.13A60.08,60.08,0,0,1,8.22,27.3a17,17,0,0,1-5.05-5.09,14.17,14.17,0,0,1-2.13-8Q1,6.95,5.74,3.47T17.81,0a39.46,39.46,0,0,1,8,.86A18.43,18.43,0,0,1,32,3a75,75,0,0,0,.48,10.38,9.69,9.69,0,0,1-3.54,1.2,26.18,26.18,0,0,1-4.37.38q-.83-5.3-2.72-7.39a6.39,6.39,0,0,0-5-2.1,6.57,6.57,0,0,0-3.75,1,3.37,3.37,0,0,0-1.48,3,4.57,4.57,0,0,0,2.17,3.82,37.47,37.47,0,0,0,6.64,3.47,65.64,65.64,0,0,1,7.7,3.92,17.15,17.15,0,0,1,5.19,5,13.43,13.43,0,0,1,2.17,7.77A12.53,12.53,0,0,1,30.67,44q-4.81,3.75-13.75,3.75A37,37,0,0,1,0,43.8Z"/><path class="cls-1" d="M39.68,41.95a7,7,0,0,0,2.79-.65,2.83,2.83,0,0,0,1.31-1.72A12.86,12.86,0,0,0,44.15,36V27.23a4.86,4.86,0,0,0-1-3.51q-1-1-4.06-1.31A11.56,11.56,0,0,1,40,17.26a54.4,54.4,0,0,0,8.94-.69A22.6,22.6,0,0,0,54.81,15q2.41,1.1,2.41,4.4V36a12.93,12.93,0,0,0,.38,3.58,2.8,2.8,0,0,0,1.34,1.75,7.29,7.29,0,0,0,2.82.65,19.09,19.09,0,0,1,.55,5.36q-2.54-.21-11.62-.21t-11.62.21A16.67,16.67,0,0,1,39.68,41.95Zm4.78-31.77a4.93,4.93,0,0,1-1.89-4.06,5.38,5.38,0,0,1,2.06-4.54A8.7,8.7,0,0,1,50.06,0,8.71,8.71,0,0,1,55.6,1.51,5.38,5.38,0,0,1,57.49,6a4.91,4.91,0,0,1-2.13,4.13,9.49,9.49,0,0,1-5.78,1.58A8,8,0,0,1,44.46,10.18Z"/><path class="cls-1" d="M111.54,47.31q-6.19-.21-9.56-.21-8.12,0-11.21.21a16.18,16.18,0,0,1,.69-5.36q3.3,0,3.3-6.74V30.46q0-3.85-1-5.47a3.54,3.54,0,0,0-3.27-1.62q-2.55,0-4.16,3A16.05,16.05,0,0,0,84.72,34V36q0,3.44.79,4.71A2.67,2.67,0,0,0,88,41.95a8.91,8.91,0,0,1,.62,2.37,27.29,27.29,0,0,1,.14,3q-3.1-.21-10.52-.21-8.53,0-11.62.21a15.8,15.8,0,0,1,.69-5.36q2.61,0,3.51-1.24T71.66,36V28.54a15.09,15.09,0,0,0-.31-3.61A2.76,2.76,0,0,0,70,23.21a8.31,8.31,0,0,0-3.27-.79,11.55,11.55,0,0,1,.89-5.16,53.17,53.17,0,0,0,8.87-.69A22.47,22.47,0,0,0,82.38,15q2.34,1,2.34,4.4a15.33,15.33,0,0,1-.83,4.19,23.33,23.33,0,0,1,1.27-2.75A8.57,8.57,0,0,1,86.58,19a12.21,12.21,0,0,1,4.09-2.68,13.68,13.68,0,0,1,5.19-1,13.11,13.11,0,0,1,8.53,2.79q3.44,2.78,3.44,8.42V36a12.11,12.11,0,0,0,.62,4.71,2.35,2.35,0,0,0,2.34,1.27A14.81,14.81,0,0,1,111.54,47.31Z"/><path class="cls-1" d="M118.38,43.7q-4.78-4-4.78-12.21a17.25,17.25,0,0,1,2-8,15.16,15.16,0,0,1,5.91-6.12A18.4,18.4,0,0,1,131,15a32.4,32.4,0,0,1,7,.65,21.22,21.22,0,0,1,5.47,2,38.83,38.83,0,0,0-.89,9.08,18.07,18.07,0,0,1-7.22,1.17A13.18,13.18,0,0,0,134.27,22a3.24,3.24,0,0,0-2.92-2.06q-2.34,0-3.61,3a19.54,19.54,0,0,0-1.27,7.6,13.19,13.19,0,0,0,2.2,7.67,7.55,7.55,0,0,0,6.67,3.2,13.39,13.39,0,0,0,6.88-1.58,6.25,6.25,0,0,1,1.58,4.4,12.32,12.32,0,0,1-5,2.58,24.85,24.85,0,0,1-7,.93Q123.16,47.72,118.38,43.7Z"/><path class="cls-1" d="M179.28,40.64a7.72,7.72,0,0,1,.55,2.89,22.7,22.7,0,0,1-6.5,3.13,28,28,0,0,1-8.08,1.07q-9.42,0-13.89-4.33T146.89,31.7q0-7.84,4.71-12.27T164.35,15q7.77,0,11.73,4t4.09,11.07a7.86,7.86,0,0,1-2.27,4.06q-10.45,0-17.6.41,1.65,6.88,8.73,6.88a17.6,17.6,0,0,0,5-.72,12,12,0,0,0,4-1.89A3.8,3.8,0,0,1,179.28,40.64ZM161.09,22.52a16.15,16.15,0,0,0-1.27,6.77h9q0-9.22-4.26-9.21A3.77,3.77,0,0,0,161.09,22.52Z"/><path class="cls-1" d="M229,43.4a5.34,5.34,0,0,1-1.58,2.76,4,4,0,0,1-2.68,1q-5.5-.17-12.86-.17-6.81,0-12,.17a18.43,18.43,0,0,1-1.72-8.55q1.65-2.07,4.09-4.71t5.4-5.66a53.15,53.15,0,0,0,4.54-5.31,15.58,15.58,0,0,0,2.1-3.8,11.43,11.43,0,0,0,.58-3.76,6.49,6.49,0,0,0-1.06-3.89A3.63,3.63,0,0,0,210.63,10a3.29,3.29,0,0,0-3.13,2.25q-1,2.25-1.48,8.21a18.29,18.29,0,0,1-3.61-.3,16.76,16.76,0,0,1-3.13-1q.21-2.07.21-5.27a42.25,42.25,0,0,0-.41-6.48,23.5,23.5,0,0,1,6.84-3.15,34.45,34.45,0,0,1,9-1q6.67,0,9.9,2.68A9.22,9.22,0,0,1,228,13.43a13.13,13.13,0,0,1-1,5.14A15.31,15.31,0,0,1,224,23.1a56.9,56.9,0,0,1-6.12,5.36q-3,2.42-5.71,4.66h3.92a16.64,16.64,0,0,0,3.82-.3,2.47,2.47,0,0,0,1.62-1.17,8.94,8.94,0,0,0,.76-2.94q4.33,0,6,.78A91.12,91.12,0,0,0,229,43.4Z"/><path class="cls-1" d="M269.36,37.14A18.83,18.83,0,0,1,262.45,45a18.28,18.28,0,0,1-9.87,2.72A19.42,19.42,0,0,1,242.4,45a18.47,18.47,0,0,1-7-7.86,27.26,27.26,0,0,1-2.58-12.27A24.61,24.61,0,0,1,235.46,13a17.65,17.65,0,0,1,7.19-7.34,20.68,20.68,0,0,1,9.94-2.42q8.87,0,14.1,5.7t5.23,16A27.3,27.3,0,0,1,269.36,37.14ZM246.6,30.79a22.2,22.2,0,0,0,2.75,7.13q1.79,2.81,4.13,2.81,2.54,0,4-3.8a27,27,0,0,0,1.41-9.33,37.46,37.46,0,0,0-.93-8.21,22.85,22.85,0,0,0-2.61-6.91q-1.68-2.76-4-2.76-2.48,0-4.09,3.8a22.37,22.37,0,0,0-1.62,8.81A38.81,38.81,0,0,0,246.6,30.79Z"/><path class="cls-1" d="M295.08,37a4,4,0,0,0,1.31,2.68,5.81,5.81,0,0,0,3.09.78,31.29,31.29,0,0,1,.55,6.74q-4-.26-11.83-.26-8.12,0-11.83.26a33.5,33.5,0,0,1,.55-6.74,7.56,7.56,0,0,0,3.13-1.17,4.1,4.1,0,0,0,1.27-2.55,36.09,36.09,0,0,0,.34-6V19.47a33.1,33.1,0,0,0-.38-5.87A3.84,3.84,0,0,0,279.95,11a6.55,6.55,0,0,0-3-.82,35.11,35.11,0,0,1-.55-6.74q3.3.26,11.83.26T300,3.49a35.19,35.19,0,0,1-.55,6.74,6.55,6.55,0,0,0-3,.82,3.78,3.78,0,0,0-1.34,2.51,32.81,32.81,0,0,0-.38,5.92V30.62A41.82,41.82,0,0,0,295.08,37Z"/><path class="cls-1" d="M337.06,23.35a11.79,11.79,0,0,1,3.75,9.18,14.09,14.09,0,0,1-2.68,9,14.45,14.45,0,0,1-6.74,4.81,25.81,25.81,0,0,1-8.53,1.41q-8.73,0-13.37-4t-4.64-13.1q0-9.49,4.61-15.54a27.1,27.1,0,0,1,11.14-8.8,37.25,37.25,0,0,1,12.86-3,4.55,4.55,0,0,1,.93,2.06,9.63,9.63,0,0,1,.17,3q-6.67,1.38-10.38,4.64A17.06,17.06,0,0,0,319,21.39a20.88,20.88,0,0,1,7.63-1.44Q333.31,19.94,337.06,23.35ZM326.5,40a11.07,11.07,0,0,0,1.17-5.57A10.64,10.64,0,0,0,325.89,28a5.36,5.36,0,0,0-4.47-2.44,9.72,9.72,0,0,0-3.3.62q-.21,2.13-.21,4.4A19.81,19.81,0,0,0,319.35,39q1.44,3,3.85,3A3.65,3.65,0,0,0,326.5,40Z"/><rect class="cls-2" y="78.22" width="150.67" height="5.33"/></g></g></svg>